<?xml version="1.0" standalone="no"?>
<!DOCTYPE svg PUBLIC "-//W3C//DTD SVG 1.1//EN" "http://www.w3.org/Graphics/SVG/1.1/DTD/svg11.dtd" >
<svg>
<metadata>
Created by FontForge 20090622 at Sun Apr 23 09:51:54 2017
 By deploy user
Copyright (c) 2013 by Mariya Pigoulevskaya. All rights reserved.
</metadata>
<defs>
<font id="Acrom-Thin" horiz-adv-x="653" >
  <font-face 
    font-family="Acrom Thin"
    font-weight="250"
    font-stretch="normal"
    units-per-em="1000"
    panose-1="0 0 3 0 0 0 0 0 0 0"
    ascent="750"
    descent="-250"
    x-height="500"
    cap-height="700"
    bbox="0 -337 1244 911"
    underline-thickness="50"
    underline-position="-50"
    unicode-range="U+0020-U+25CA"
  />
<missing-glyph horiz-adv-x="500" 
d="M0 0v700h500v-700h-500zM250 395l170 255h-340zM280 350l170 -255v510zM80 50h340l-170 255zM50 605v-510l170 255z" />
    <glyph glyph-name=".notdef" horiz-adv-x="500" 
d="M0 0v700h500v-700h-500zM250 395l170 255h-340zM280 350l170 -255v510zM80 50h340l-170 255zM50 605v-510l170 255z" />
    <glyph glyph-name=".null" horiz-adv-x="0" 
 />
    <glyph glyph-name="nonmarkingreturn" horiz-adv-x="333" 
 />
    <glyph glyph-name="space" unicode=" " horiz-adv-x="299" 
 />
    <glyph glyph-name="exclam" unicode="!" horiz-adv-x="181" 
d="M99 700v-330l-5 -228h-8l-5 228v330h18zM90 33q8 0 14 -6t6 -14t-6 -14t-14 -6t-14 6t-6 14t6 14t14 6z" />
    <glyph glyph-name="quotedbl" unicode="&#x22;" horiz-adv-x="230" 
d="M84 561h-9l-5 139h19zM155 561h-9l-5 139h19z" />
    <glyph glyph-name="numbersign" unicode="#" horiz-adv-x="703" 
d="M432 253h161l-4 -19h-161l-50 -234h-19l50 234h-165l-51 -234h-19l51 234h-155l4 19h154l37 173h-154l4 18h154l54 256h19l-54 -256h165l55 256h19l-55 -256h161l-4 -18h-161zM284 426l-36 -173h166l36 173h-166z" />
    <glyph glyph-name="dollar" unicode="$" horiz-adv-x="657" 
d="M334 379l51 -7q104 -14 152.5 -58t48.5 -126q0 -86 -72 -140.5t-171 -54.5h-5h-4v-48h-19v49q-94 4 -158 47t-87 116l12 10q24 -71 83.5 -112t149.5 -45v355l-25 3q-109 15 -155 53t-46 105q0 80 67.5 130.5t155.5 50.5h3v43h19v-43q74 -2 134 -32t92 -85l-12 -11
q-32 53 -88 81.5t-126 30.5v-312zM315 382v309h-3q-83 0 -144 -45t-61 -120q0 -60 40.5 -93.5t142.5 -47.5zM338 9h5q92 0 158.5 49t66.5 130q0 75 -43 114.5t-139 52.5l-52 7v-353h4z" />
    <glyph glyph-name="percent" unicode="%" horiz-adv-x="815" 
d="M236 707q69 0 117.5 -48.5t48.5 -117.5t-48.5 -117.5t-117.5 -48.5t-117.5 48.5t-48.5 117.5t48.5 117.5t117.5 48.5zM636 700l-436 -700h-23l436 700h23zM237 689q-66 0 -106.5 -41t-40.5 -107t40.5 -107t106.5 -41t106.5 41t40.5 107t-40.5 107t-106.5 41zM578 325
q69 0 117.5 -48.5t48.5 -117.5t-48.5 -117.5t-117.5 -48.5t-117.5 48.5t-48.5 117.5t48.5 117.5t117.5 48.5zM579 308q-66 0 -106.5 -41.5t-40.5 -107.5t40.5 -107t106.5 -41t106.5 41t40.5 107t-40.5 107.5t-106.5 41.5z" />
    <glyph glyph-name="ampersand" unicode="&#x26;" horiz-adv-x="675" 
d="M578 0l-67 68q-65 -75 -200 -75h-6q-104 2 -169.5 53.5t-65.5 144.5q0 68 36.5 115t100.5 68l-57 58q-40 42 -40 107q0 83 60 125.5t142 42.5h4q79 -2 138 -42.5t59 -117.5v-7h-18q0 75 -54.5 113t-128.5 38t-128.5 -38t-54.5 -114q0 -61 39 -98l341 -344q25 39 25 93h19
q0 -62 -31 -107l83 -83h-27zM312 10q127 0 187 71l-277 279q-62 -18 -97.5 -61.5t-35.5 -107.5q0 -87 62 -134t161 -47z" />
    <glyph glyph-name="quotesingle" unicode="'" horiz-adv-x="159" 
d="M84 561h-9l-5 139h19z" />
    <glyph glyph-name="parenleft" unicode="(" horiz-adv-x="378" 
d="M307 737v-17q-82 -42 -149.5 -157t-69.5 -256v-8q0 -143 67 -258.5t152 -163.5v-17q-91 47 -164 167t-73 272v7q2 151 75 271t162 160z" />
    <glyph glyph-name="parenright" unicode=")" horiz-adv-x="378" 
d="M70 720v17q89 -40 162 -160t75 -271v-7q0 -152 -73 -272t-164 -167v17q85 48 152 163.5t67 258.5v8q-2 141 -69.5 256t-149.5 157z" />
    <glyph glyph-name="asterisk" unicode="*" horiz-adv-x="431" 
d="M311 451l-16 -11l-80 110l-80 -110l-15 11l79 110l-129 43l6 18l129 -42l1 136h19v-136l129 42l6 -18l-129 -43z" />
    <glyph glyph-name="plus" unicode="+" horiz-adv-x="555" 
d="M286 321h198v-17h-198v-198h-18v198h-198v17h198v199h18v-199z" />
    <glyph glyph-name="comma" unicode="," horiz-adv-x="206" 
d="M135 33l-54 -125h-11l35 125h30z" />
    <glyph glyph-name="hyphen" unicode="-" horiz-adv-x="389" 
d="M318 280h-248v19h248v-19z" />
    <glyph glyph-name="period" unicode="." horiz-adv-x="181" 
d="M90 33q8 0 14 -6t6 -14t-6 -14t-14 -6t-14 6t-6 14t6 14t14 6z" />
    <glyph glyph-name="slash" unicode="/" horiz-adv-x="476" 
d="M405 700l-316 -700h-19l316 700h19z" />
    <glyph glyph-name="zero" unicode="0" horiz-adv-x="860" 
d="M429 693q145 0 247.5 -102.5t102.5 -247.5t-102.5 -247.5t-247.5 -102.5t-247 102.5t-102 247.5t102 247.5t247 102.5zM429 676q-137 0 -233.5 -97t-96.5 -236t96.5 -236t233.5 -97q138 0 235 97t97 236t-97 236t-235 97z" />
    <glyph glyph-name="one" unicode="1" horiz-adv-x="308" 
d="M187 0h-18v642l-104 -125l-15 12l132 156h5v-685z" />
    <glyph glyph-name="two" unicode="2" horiz-adv-x="629" 
d="M569 0h-509v6l327 290q85 76 114 119.5t29 96.5q0 74 -61.5 119t-143.5 45h-13q-73 0 -132.5 -28.5t-91.5 -82.5l-12 10q33 57 96 87t140 30h13q89 0 156 -50.5t67 -130.5q0 -59 -34 -107t-128 -131l-290 -257h473v-16z" />
    <glyph glyph-name="three" unicode="3" horiz-adv-x="633" 
d="M555 680l-323 -271q42 13 111 14q111 0 170 -53t59 -140q0 -105 -67.5 -170t-171.5 -67h-11q-101 1 -169 44.5t-93 119.5l12 10q25 -75 90.5 -116.5t164.5 -41.5h5q98 2 160 61t62 159q0 176 -222 176q-76 0 -133 -28l-15 11l333 281h-397v16h435v-5z" />
    <glyph glyph-name="four" unicode="4" horiz-adv-x="631" 
d="M491 162v-162h-18v162h-423v5l435 518h6v-507h90v-16h-90zM473 641l-393 -463h393v463z" />
    <glyph glyph-name="five" unicode="5" horiz-adv-x="633" 
d="M512 669h-383v-298q78 57 215 57q104 0 166 -57.5t62 -155.5q0 -96 -68 -158t-170 -64h-12q-101 1 -169 44.5t-93 119.5l12 11q25 -75 90.5 -117t164.5 -42h4q97 2 160 58.5t63 146.5q0 96 -57.5 147t-164.5 51q-58 0 -116 -17.5t-92 -49.5l-14 11v329h402v-16z" />
    <glyph glyph-name="six" unicode="6" horiz-adv-x="625" 
d="M326 692h7q133 0 205 -96l-12 -11q-71 91 -193 91h-7q-58 0 -103 -22t-71.5 -56.5t-43.5 -82.5t-23.5 -92.5t-6.5 -93.5q29 61 91 99.5t143 38.5q110 0 181.5 -68.5t71.5 -169.5t-71.5 -168.5t-181.5 -67.5q-117 0 -184 73t-67 178l-1 81q0 51 7 98.5t25.5 97.5t47.5 87
t77 60.5t109 23.5zM313 450q-101 0 -167 -61t-66 -144q0 -98 62 -166.5t171 -68.5q102 0 168 63t66 156q0 94 -66 157.5t-168 63.5z" />
    <glyph glyph-name="seven" unicode="7" horiz-adv-x="534" 
d="M484 680l-411 -680h-21l403 669h-405v16h434v-5z" />
    <glyph glyph-name="eight" unicode="8" horiz-adv-x="604" 
d="M380 368q75 -17 119 -64.5t44 -119.5q0 -88 -66 -138.5t-170 -52.5h-6q-106 0 -173.5 50.5t-67.5 140.5q0 72 44 119.5t119 64.5q-60 15 -96.5 55t-36.5 103q0 83 61.5 125.5t149.5 42.5h7q86 -2 145.5 -44t59.5 -124q0 -63 -36.5 -103t-96.5 -55zM109 526
q0 -76 55.5 -113t137.5 -37q81 0 137 37t56 113t-56 114t-137 38t-137 -38t-56 -114zM302 10q99 0 161 46t62 128t-60 127.5t-163 47.5q-24 0 -49 -3.5t-57.5 -14.5t-57.5 -29t-42 -51.5t-17 -76.5q0 -82 62 -128t161 -46z" />
    <glyph glyph-name="nine" unicode="9" horiz-adv-x="625" 
d="M299 -7h-8q-132 0 -204 96l12 11q69 -91 192 -91h8q72 0 123 32t76.5 86.5t36.5 110.5t11 118q-28 -61 -90 -99t-143 -38q-110 0 -181.5 68t-71.5 169t71.5 168.5t180.5 67.5q117 0 184.5 -73t67.5 -178l1 -80q0 -51 -7 -99t-25.5 -98t-47.5 -87t-77 -60.5t-109 -23.5z
M312 235q101 0 167 61.5t66 144.5q0 98 -62 166.5t-171 68.5q-102 0 -168 -63.5t-66 -156.5q0 -94 66 -157.5t168 -63.5z" />
    <glyph glyph-name="colon" unicode=":" horiz-adv-x="181" 
d="M90 316q8 0 14 -6t6 -14q0 -9 -6 -15t-14 -6t-14 6t-6 15q0 8 6 14t14 6zM90 33q8 0 14 -6t6 -14t-6 -14t-14 -6t-14 6t-6 14t6 14t14 6z" />
    <glyph glyph-name="semicolon" unicode=";" horiz-adv-x="211" 
d="M120 316q8 0 14 -6t6 -14q0 -9 -6 -15t-14 -6t-14 6t-6 15q0 8 6 14t14 6zM135 33l-54 -125h-11l35 125h30z" />
    <glyph glyph-name="less" unicode="&#x3c;" horiz-adv-x="449" 
d="M378 520l-273 -179l273 -178v-24l-308 203l308 202v-24z" />
    <glyph glyph-name="equal" unicode="=" horiz-adv-x="555" 
d="M484 362h-414v19h414v-19zM484 216h-414v19h414v-19z" />
    <glyph glyph-name="greater" unicode="&#x3e;" horiz-adv-x="449" 
d="M378 342l-308 -203v24l273 178l-273 179v24z" />
    <glyph glyph-name="question" unicode="?" 
d="M332 707h11q102 -2 170.5 -64t68.5 -157q0 -97 -70.5 -153.5t-187.5 -58.5v-92h-18v109q122 0 190 50t68 145q0 90 -63 146.5t-160 58.5h-4q-97 0 -163 -43.5t-92 -114.5l-12 10q26 72 94.5 117.5t167.5 46.5zM315 33q8 0 14 -6t6 -14t-6 -14t-14 -6t-14 6t-6 14t6 14
t14 6z" />
    <glyph glyph-name="at" unicode="@" horiz-adv-x="952" 
d="M475 663q192 0 299 -115.5t107 -291.5v-177q0 -84 -85 -86q-84 2 -84 89v69q-30 -71 -94.5 -114.5t-143.5 -43.5q-106 0 -181 75t-75 182t75 182.5t181 75.5q79 0 143.5 -44t95.5 -115l-1 152h20v-421q0 -40 17 -54.5t47 -14.5t47 14.5t17 53.5v177q0 170 -100.5 278.5
t-284.5 108.5q-160 0 -271.5 -112.5t-111.5 -273.5q0 -163 111 -275t272 -112q93 0 175 41l14 -14q-88 -47 -189 -47q-168 0 -286.5 119t-118.5 288q0 168 118.5 287t286.5 119zM475 490q-100 0 -169 -69.5t-69 -170.5t69 -170.5t169 -69.5q99 0 169 70t70 170t-70 170
t-169 70z" />
    <glyph glyph-name="A" unicode="A" horiz-adv-x="692" 
d="M171 244l-102 -244h-19l293 700h6l293 -700h-19l-102 244h-350zM346 662l-168 -402h337z" />
    <glyph glyph-name="B" unicode="B" horiz-adv-x="692" 
d="M120 700h238q68 0 114.5 -13.5t70 -39t33 -54t9.5 -66.5q0 -123 -120 -158q82 -13 124.5 -60.5t42.5 -121.5q0 -187 -228 -187h-284v700zM138 684v-311h220q117 0 163 42t46 113q0 35 -7.5 60t-28.5 48.5t-64.5 35.5t-108.5 12h-220zM138 357v-341h265q113 0 162 43.5
t49 127.5q0 81 -52.5 125.5t-158.5 44.5h-265z" />
    <glyph glyph-name="C" unicode="C" horiz-adv-x="761" 
d="M436 707q158 0 264 -117l-12 -11q-101 112 -252 112q-141 0 -239.5 -99.5t-98.5 -241.5q0 -143 98.5 -242t239.5 -99q153 0 252 112l12 -13q-105 -115 -264 -115q-148 0 -252 104.5t-104 252.5t104 252.5t252 104.5z" />
    <glyph glyph-name="D" unicode="D" horiz-adv-x="754" 
d="M120 700h197q151 0 253.5 -97t102.5 -253t-102.5 -253t-253.5 -97h-197v700zM138 16h179q145 0 241.5 91.5t96.5 242.5t-96.5 242.5t-241.5 91.5h-179v-668z" />
    <glyph glyph-name="E" unicode="E" horiz-adv-x="600" 
d="M138 364h384v-16h-384v-332h401v-16h-419v700h419v-16h-401v-320z" />
    <glyph glyph-name="F" unicode="F" horiz-adv-x="600" 
d="M138 364h384v-16h-384v-348h-18v700h419v-16h-401v-320z" />
    <glyph glyph-name="G" unicode="G" horiz-adv-x="811" 
d="M436 707q158 0 264 -117l-12 -11q-101 112 -252 112q-141 0 -239.5 -99.5t-98.5 -241.5q0 -143 98.5 -242t239.5 -99q147 0 246 105v217h-256v16h274v-239q-105 -115 -264 -115q-148 0 -252 104.5t-104 252.5t104 252.5t252 104.5z" />
    <glyph glyph-name="H" unicode="H" horiz-adv-x="751" 
d="M630 0h-18v349h-474v-349h-18v700h18v-335h474v335h18v-700z" />
    <glyph glyph-name="I" unicode="I" horiz-adv-x="419" 
d="M218 16h80v-16h-178v16h80v668h-80v16h178v-16h-80v-668z" />
    <glyph glyph-name="J" unicode="J" horiz-adv-x="586" 
d="M505 700v-480q0 -101 -54 -164t-159 -63q-104 0 -158 63t-54 164v18h18v-17q0 -96 48 -154t146 -58t146.5 58t48.5 154v463h-273v16h291z" />
    <glyph glyph-name="K" unicode="K" horiz-adv-x="691" 
d="M619 0l-141 218q-25 39 -34 52t-26.5 34.5t-31.5 27.5t-35 11.5t-50 5.5h-163v-349h-18v700h18v-335h145q29 0 50.5 5.5t35 11.5t31.5 27.5t26.5 34.5l34.5 52l132 204h22l-142 -216q-54 -82 -75 -102q-15 -14 -32 -22q19 -5 33 -13.5t31.5 -30.5t26 -34t33.5 -52
l151 -230h-22z" />
    <glyph glyph-name="L" unicode="L" horiz-adv-x="590" 
d="M540 0h-420v700h18v-684h402v-16z" />
    <glyph glyph-name="M" unicode="M" horiz-adv-x="889" 
d="M769 0h-18v653l-312 -402l-311 402v-653h-18v700h6l323 -418l324 418h6v-700z" />
    <glyph glyph-name="N" unicode="N" horiz-adv-x="731" 
d="M620 0h-6l-486 653v-653h-18v700h6l486 -653v653h18v-700z" />
    <glyph glyph-name="O" unicode="O" horiz-adv-x="874" 
d="M436 707q148 0 252.5 -104.5t104.5 -252.5t-104.5 -252.5t-252.5 -104.5t-252 104.5t-104 252.5t104 252.5t252 104.5zM436 691q-141 0 -239.5 -99.5t-98.5 -241.5q0 -143 98.5 -242t239.5 -99t240 99t99 242q0 142 -99 241.5t-240 99.5z" />
    <glyph glyph-name="P" unicode="P" horiz-adv-x="713" 
d="M120 700h211q130 0 215.5 -62t85.5 -183q0 -120 -85.5 -182t-215.5 -62h-193v-211h-18v700zM138 227h193q80 0 141.5 22.5t101.5 75t40 130.5q0 115 -79.5 172t-203.5 57h-193v-457z" />
    <glyph glyph-name="Q" unicode="Q" horiz-adv-x="873" 
d="M436 707q148 0 252.5 -104.5t104.5 -252.5q0 -118 -69 -211.5t-178 -129.5h246v-16h-356q-148 0 -252 104.5t-104 252.5t104 252.5t252 104.5zM436 691q-141 0 -239.5 -99.5t-98.5 -241.5q0 -143 98.5 -242t239.5 -99t240 99t99 242q0 142 -99 241.5t-240 99.5z" />
    <glyph glyph-name="R" unicode="R" horiz-adv-x="682" 
d="M120 700h211q129 0 215 -61t86 -179q0 -93 -56.5 -151.5t-149.5 -78.5q69 -20 126 -108l80 -122h-22l-70 109q-44 69 -85.5 90.5t-107.5 21.5h-209v-221h-18v700zM138 684v-447h193q123 0 203 56t80 167q0 112 -80 168t-203 56h-193z" />
    <glyph glyph-name="S" unicode="S" horiz-adv-x="637" 
d="M302 707h13q77 0 139.5 -30t95.5 -87l-12 -11q-33 54 -91.5 83t-131.5 29h-13q-83 0 -144 -45t-61 -120q0 -60 40.5 -93.5t142.5 -47.5l95 -13q104 -14 152.5 -58t48.5 -126q0 -86 -72 -140.5t-171 -54.5h-5q-103 0 -173 43.5t-95 120.5l12 10q25 -75 90.5 -116.5
t165.5 -41.5h5q92 0 158.5 49t66.5 130q0 75 -43 114.5t-139 52.5l-96 13q-109 15 -155 53t-46 105q0 80 67.5 130.5t155.5 50.5z" />
    <glyph glyph-name="T" unicode="T" horiz-adv-x="601" 
d="M309 684v-684h-18v684h-241v16h500v-16h-241z" />
    <glyph glyph-name="U" unicode="U" horiz-adv-x="804" 
d="M693 700v-391q0 -141 -75 -228.5t-212 -87.5t-211.5 87.5t-74.5 228.5v391h18v-391q0 -136 69 -218t199 -82t199.5 82t69.5 218v391h18z" />
    <glyph glyph-name="V" unicode="V" horiz-adv-x="702" 
d="M354 0h-6l-298 700h19l282 -662l282 662h19z" />
    <glyph glyph-name="W" unicode="W" horiz-adv-x="1202" 
d="M879 0h-6l-272 661l-272 -661h-6l-273 700h19l257 -661l272 661h6l272 -661l257 661h19z" />
    <glyph glyph-name="X" unicode="X" horiz-adv-x="650" 
d="M324 343l-251 -343h-23l263 358l-253 342h23l243 -329l241 329h23l-253 -344l263 -356h-23z" />
    <glyph glyph-name="Y" unicode="Y" horiz-adv-x="685" 
d="M351 0h-18v245l-283 455h21l272 -436l271 436h21l-284 -454v-246z" />
    <glyph glyph-name="Z" unicode="Z" horiz-adv-x="630" 
d="M570 0h-510v4l473 680h-433v16h464v-4l-474 -680h480v-16z" />
    <glyph glyph-name="bracketleft" unicode="[" horiz-adv-x="223" 
d="M88 -124h65v-16h-83v890h83v-16h-65v-858z" />
    <glyph glyph-name="backslash" unicode="\" horiz-adv-x="476" 
d="M405 0h-19l-316 700h19z" />
    <glyph glyph-name="bracketright" unicode="]" horiz-adv-x="223" 
d="M70 734v16h83v-890h-83v16h65v858h-65z" />
    <glyph glyph-name="asciicircum" unicode="^" horiz-adv-x="543" 
d="M472 375h-23l-178 271l-178 -271h-23l201 307z" />
    <glyph glyph-name="underscore" unicode="_" horiz-adv-x="554" 
d="M484 -100h-414v19h414v-19z" />
    <glyph glyph-name="grave" unicode="`" horiz-adv-x="240" 
d="M110 699l60 -87h-21l-79 87h40z" />
    <glyph glyph-name="a" unicode="a" horiz-adv-x="684" 
d="M584 0h-19v154q-29 -71 -94 -115.5t-145 -44.5q-106 0 -181 75t-75 181t75 181.5t181 75.5q80 0 145 -44.5t94 -116.5v154h19v-500zM327 11q99 0 168.5 69.5t69.5 169.5t-69.5 170t-168.5 70q-100 0 -169 -69.5t-69 -170.5q0 -100 69 -169.5t169 -69.5z" />
    <glyph glyph-name="b" unicode="b" horiz-adv-x="684" 
d="M118 700v-354q30 72 95 116.5t145 44.5q106 0 181 -75.5t75 -181.5t-75 -181t-181 -75q-80 0 -145 44.5t-94 115.5v-154h-19v700h18zM358 490q-99 0 -168.5 -70t-69.5 -170t69.5 -169.5t168.5 -69.5q100 0 169 69.5t69 169.5q0 101 -69 170.5t-169 69.5z" />
    <glyph glyph-name="c" unicode="c" horiz-adv-x="589" 
d="M326 507q120 0 198 -93l-13 -12q-72 88 -185 88q-99 0 -168.5 -70t-69.5 -170t69.5 -169.5t168.5 -69.5q114 0 185 87l12 -12q-76 -92 -197 -92q-106 0 -181 75t-75 181q0 107 75 182t181 75z" />
    <glyph glyph-name="d" unicode="d" horiz-adv-x="684" 
d="M584 0h-19v154q-29 -71 -94 -115.5t-145 -44.5q-106 0 -181 75t-75 181t75 181.5t181 75.5q80 0 145 -44.5t95 -116.5v354h18v-700zM327 11q99 0 168.5 69.5t69.5 169.5t-69.5 170t-168.5 70q-100 0 -169 -69.5t-69 -170.5q0 -100 69 -169.5t169 -69.5z" />
    <glyph glyph-name="e" unicode="e" horiz-adv-x="634" 
d="M326 507q82 0 142.5 -43t87.5 -114q8 -23 11 -53t-1 -46h-478q0 -111 68.5 -175.5t181.5 -64.5q109 -1 196 71l12 -13q-91 -75 -208 -75q-120 1 -194 70.5t-74 185.5q0 108 73 182.5t183 74.5zM326 490q-99 0 -165 -63.5t-72 -158.5h461q2 41 -11 76q-25 67 -80.5 106.5
t-132.5 39.5z" />
    <glyph glyph-name="f" unicode="f" horiz-adv-x="392" 
d="M342 705l-2 -15h-10q-67 0 -114 -37t-48 -123v-30h172v-16h-172v-484h-18v484h-80v16h80v29q0 93 53.5 137.5t125.5 39.5z" />
    <glyph glyph-name="g" unicode="g" horiz-adv-x="678" 
d="M321 507q79 0 143.5 -44t94.5 -115v152h19v-439q0 -119 -59.5 -185t-175.5 -67q-117 0 -208 75l12 13q88 -72 196 -71q217 0 217 236v90q-30 -71 -94.5 -114.5t-144.5 -43.5q-106 0 -181 75t-75 181t75 181.5t181 75.5zM322 490q-100 0 -169 -69.5t-69 -170.5t69 -170.5
t169 -69.5q99 0 168.5 70t69.5 170t-69.5 170t-168.5 70z" />
    <glyph glyph-name="h" unicode="h" horiz-adv-x="661" 
d="M349 507q99 0 158 -60t59 -173v-274h-19v275q0 106 -53 160.5t-145 54.5q-102 0 -164 -70t-62 -189v-231h-18v700h18v-349q30 79 94 117.5t132 38.5z" />
    <glyph glyph-name="i" unicode="i" horiz-adv-x="236" 
d="M120 580q-6 0 -10.5 4.5t-4.5 11.5q0 6 4.5 10.5t10.5 4.5q7 0 11.5 -4.5t4.5 -10.5q0 -16 -16 -16zM112 0v500h18v-500h-18z" />
    <glyph glyph-name="j" unicode="j" horiz-adv-x="236" 
d="M120 611q7 0 11.5 -4.5t4.5 -10.5q0 -16 -16 -16q-6 0 -10.5 4.5t-4.5 11.5q0 6 4.5 10.5t10.5 4.5zM130 -184h-18v684h18v-684z" />
    <glyph glyph-name="k" unicode="k" horiz-adv-x="558" 
d="M495 0l-76 120l-34.5 52t-26.5 34.5t-31.5 27.5t-35 11.5t-50.5 5.5h-118v-251h-18v700h18v-433h101q24 0 41.5 2t34 11.5t25 15t25 27.5t23 31.5t28.5 44.5l67 101h22l-76 -114q-3 -5 -13.5 -20.5l-13.5 -20l-11.5 -16.5l-11.5 -16l-10 -13t-11.5 -12.5t-11 -9.5
t-12.5 -9.5t-13 -6.5q15 -4 29 -13t22.5 -16t24 -28t22 -30.5t27.5 -42.5l86 -132h-22z" />
    <glyph glyph-name="l" unicode="l" horiz-adv-x="224" 
d="M105 0v700h18v-700h-18z" />
    <glyph glyph-name="m" unicode="m" horiz-adv-x="1099" 
d="M786 507q99 0 158 -60t59 -173v-274h-18v275q0 106 -53 160.5t-145 54.5q-103 0 -164.5 -70t-61.5 -189v-231h-19v275q0 106 -53 160.5t-145 54.5q-102 0 -164 -70t-62 -189v-231h-18v500h19v-149q30 80 93.5 118t131.5 38q84 0 140.5 -44t71.5 -128q27 88 93 130t137 42
z" />
    <glyph glyph-name="n" unicode="n" horiz-adv-x="656" 
d="M344 507q99 0 158 -60t59 -173v-274h-19v275q0 106 -53 160.5t-145 54.5q-102 0 -164 -70t-62 -189v-231h-18v500h19v-149q30 80 93.5 118t131.5 38z" />
    <glyph glyph-name="o" unicode="o" 
d="M326 507q106 0 181.5 -75.5t75.5 -181.5t-75 -181t-182 -75q-106 0 -181 75t-75 181q0 107 75 182t181 75zM327 490q-100 0 -169 -69.5t-69 -170.5q0 -100 69 -169.5t169 -69.5q99 0 168.5 69.5t69.5 169.5t-69.5 170t-168.5 70z" />
    <glyph glyph-name="p" unicode="p" horiz-adv-x="644" 
d="M318 507q106 0 181 -75.5t75 -181.5t-75 -181t-181 -75q-81 0 -145.5 44.5t-94.5 116.5v-339h-18v684h19v-154q29 72 94 116.5t145 44.5zM317 490q-99 0 -168.5 -70t-69.5 -170t69.5 -169.5t168.5 -69.5q100 0 169 69.5t69 169.5q0 101 -69 170.5t-169 69.5z" />
    <glyph glyph-name="q" unicode="q" horiz-adv-x="684" 
d="M584 -184h-18v339q-30 -72 -95 -116.5t-145 -44.5q-106 0 -181 75t-75 181t75 181.5t181 75.5q80 0 145 -44.5t94 -116.5v154h19v-684zM327 11q99 0 168.5 69.5t69.5 169.5t-69.5 170t-168.5 70q-100 0 -169 -69.5t-69 -170.5q0 -100 69 -169.5t169 -69.5z" />
    <glyph glyph-name="r" unicode="r" horiz-adv-x="421" 
d="M380 490h-6q-134 0 -195 -79.5t-61 -207.5v-203h-18v500h19v-161q29 85 96 126.5t161 41.5h4v-17z" />
    <glyph glyph-name="s" unicode="s" horiz-adv-x="546" 
d="M265 507h15q51 0 104 -26t80 -67l-13 -12q-25 39 -74 63.5t-97 24.5h-9q-70 0 -116.5 -30.5t-46.5 -80.5q0 -41 26 -66.5t106 -34.5l84 -9q31 -4 52.5 -9.5t47 -19.5t38.5 -41t13 -66q0 -66 -55 -103t-134 -37h-10q-68 0 -126 29.5t-80 75.5l13 12q19 -44 73.5 -72
t119.5 -28h4q75 0 126 31.5t51 91.5q0 36 -11.5 60t-34 35t-40.5 15.5t-46 7.5l-85 10q-85 10 -118 40.5t-33 78.5q0 58 51 92.5t125 34.5z" />
    <glyph glyph-name="t" unicode="t" horiz-adv-x="310" 
d="M168 484v-484h-18v484h-80v16h80v168h18v-168h81v-16h-81z" />
    <glyph glyph-name="u" unicode="u" horiz-adv-x="651" 
d="M556 0h-19v149q-30 -79 -94 -117.5t-131 -38.5q-99 0 -158 60t-59 173v274h18v-275q0 -106 53 -160.5t146 -54.5q102 0 164 70t62 189v231h18v-500z" />
    <glyph glyph-name="v" unicode="v" horiz-adv-x="545" 
d="M275 0h-6l-229 500h19l213 -462l214 462h19z" />
    <glyph glyph-name="w" unicode="w" horiz-adv-x="935" 
d="M680 0h-5l-208 462l-207 -462h-6l-214 500h19l198 -462l209 462h3l208 -462l199 462h19z" />
    <glyph glyph-name="x" unicode="x" horiz-adv-x="552" 
d="M275 244l-212 -244h-23l223 257l-213 243h23l204 -233l202 233h22l-213 -245l223 -255h-23z" />
    <glyph glyph-name="y" unicode="y" horiz-adv-x="656" 
d="M561 500v-439q0 -119 -59.5 -185t-175.5 -67q-117 0 -208 75l12 13q88 -72 196 -71q217 0 217 236v87q-30 -79 -94 -117.5t-132 -38.5q-99 0 -158 60t-59 172v275h18v-275q0 -106 53 -160.5t146 -54.5q102 0 164 70t62 189v231h18z" />
    <glyph glyph-name="z" unicode="z" horiz-adv-x="582" 
d="M512 0h-442v3l395 481h-360v16h393v-3l-395 -481h409v-16z" />
    <glyph glyph-name="braceleft" unicode="{" horiz-adv-x="358" 
d="M288 734h-36q-21 0 -36 -16t-15 -40v-260q0 -38 -21.5 -68.5t-57.5 -44.5q36 -14 57.5 -45t21.5 -69v-259q0 -24 15 -40t36 -16h36v-16h-35q-29 0 -49.5 21t-20.5 53v259q0 42 -31 72t-77 32h-5v16h5q46 1 77 31t31 73v259q0 32 20.5 53t49.5 21h35v-16z" />
    <glyph glyph-name="bar" unicode="|" horiz-adv-x="159" 
d="M89 -60h-19v760h19v-760z" />
    <glyph glyph-name="braceright" unicode="}" horiz-adv-x="358" 
d="M70 750h35q28 0 48.5 -21t20.5 -53v-259q0 -43 31.5 -73t77.5 -31h5v-16h-5q-46 -2 -77.5 -32t-31.5 -72v-259q0 -32 -20.5 -53t-48.5 -21h-35v16h35q21 0 36 16t15 40v259q0 39 22 69.5t58 44.5q-36 14 -58 44.5t-22 68.5v260q0 24 -15 40t-36 16h-35v16z" />
    <glyph glyph-name="asciitilde" unicode="~" horiz-adv-x="543" 
d="M473 325l-44 -52q-24 -29 -61.5 -29t-72.5 20l-61 36q-23 16 -56 15.5t-51 -24.5l-29 -39h-28l43 53q25 29 62.5 29t72.5 -21l61 -36q23 -16 55.5 -15.5t50.5 24.5l30 39h28z" />
    <glyph glyph-name="exclamdown" unicode="&#xa1;" horiz-adv-x="181" 
d="M90 550q8 0 14 -6t6 -14t-6 -14t-14 -6t-14 6t-6 14t6 14t14 6zM81 -157v330l5 228h8l5 -228v-330h-18z" />
    <glyph glyph-name="cent" unicode="&#xa2;" horiz-adv-x="594" 
d="M326 490v-479q114 0 185 87l12 -12q-76 -92 -197 -92v-92h-19v93q-100 7 -168.5 80t-68.5 175t68.5 175.5t168.5 80.5v95h19v-94q120 0 198 -93l-13 -12q-72 88 -185 88zM88 250q0 -95 63 -163t156 -75v477q-93 -7 -156 -75t-63 -164z" />
    <glyph glyph-name="sterling" unicode="&#xa3;" horiz-adv-x="670" 
d="M601 16v-16h-531v20q36 6 55 11t35.5 19.5t22 32.5t6 56t-5.5 83t-18 121h-95v16h92l-22 133q-10 62 5 106t49 66.5t72.5 32.5t82.5 10h13q77 0 139.5 -30t95.5 -87l-11 -11q-33 54 -92 83t-132 29h-13q-40 0 -75 -9t-66.5 -29.5t-45.5 -62t-4 -99.5l23 -132h237v-16
h-235q16 -97 21.5 -151t0 -92t-21 -54.5t-46.5 -29.5h464z" />
    <glyph glyph-name="currency" unicode="&#xa4;" horiz-adv-x="552" 
d="M477 486l-49 -49q54 -59 54 -139t-54 -139l50 -49l-14 -14l-49 50q-59 -54 -139 -54t-139 54l-50 -50l-13 14l49 49q-53 59 -53 139t54 139l-50 49l14 14l49 -50q59 53 138.5 53t138.5 -53l50 50zM143 166q55 -55 132.5 -55.5t132.5 54.5q55 54 55.5 132t-54.5 133
t-132 55.5t-133 -54.5q-55 -55 -55.5 -132.5t54.5 -132.5z" />
    <glyph glyph-name="yen" unicode="&#xa5;" horiz-adv-x="725" 
d="M377 256h195v-19h-201v-89h201v-19h-201v-129h-18v129h-200v19h200v89h-200v19h193l-276 444h21l272 -436l271 436h21z" />
    <glyph glyph-name="brokenbar" unicode="&#xa6;" horiz-adv-x="159" 
d="M89 380h-19v319h19v-319zM89 -60h-19v319h19v-319z" />
    <glyph glyph-name="section" unicode="&#xa7;" horiz-adv-x="546" 
d="M265 624h15q51 0 104 -26t80 -67l-13 -12q-25 39 -74 63.5t-97 24.5h-9q-70 0 -116.5 -30.5t-46.5 -80.5q0 -41 26.5 -66.5t105.5 -34.5l85 -9q62 -7 106 -39t44 -97q0 -70 -60 -107q41 -28 41 -84q0 -58 -50.5 -93t-125.5 -35h-15q-51 0 -103.5 26t-79.5 67l13 12
q24 -39 73 -63t97 -24h9q70 0 116.5 30t46.5 80q0 41 -26 66.5t-106 34.5l-84 9q-62 7 -106.5 39t-44.5 97q0 69 60 107q-41 29 -41 84q0 58 50.5 93t125.5 35zM148 401q-59 -33 -59 -96q0 -58 39 -85t93 -33l84 -10q57 -6 93 -23q59 33 59 96q0 58 -39 85t-93 33l-84 10
q-57 6 -93 23z" />
    <glyph glyph-name="dieresis" unicode="&#xa8;" horiz-adv-x="371" 
d="M85 676q-6 0 -10.5 4.5t-4.5 10.5q0 15 15 15q16 0 16 -15q0 -6 -4.5 -10.5t-11.5 -4.5zM285 676q-6 0 -10.5 4.5t-4.5 10.5q0 15 15 15q16 0 16 -15q0 -6 -4.5 -10.5t-11.5 -4.5z" />
    <glyph glyph-name="copyright" unicode="&#xa9;" horiz-adv-x="670" 
d="M335 700q113 0 189 -79.5t76 -190.5t-76 -190.5t-189 -79.5t-189 79.5t-76 190.5t76 190.5t189 79.5zM335 683q-106 0 -175.5 -74t-69.5 -179t69.5 -179t175.5 -74t176 74t70 179t-70 179t-176 74zM337 608q83 0 136 -64l-11 -11q-54 58 -125 58q-64 0 -111 -48t-47 -113
t47 -112.5t111 -47.5q67 0 124 59l12 -13q-54 -64 -136 -64q-74 0 -126 52t-52 126t52 126t126 52z" />
    <glyph glyph-name="guillemotleft" unicode="&#xab;" horiz-adv-x="384" 
d="M201 357l-101 -79l101 -78v-24l-131 103l131 103v-25zM314 357l-101 -79l101 -78v-24l-131 103l131 103v-25z" />
    <glyph glyph-name="logicalnot" unicode="&#xac;" horiz-adv-x="555" 
d="M467 303h-397v19h414v-145h-17v126z" />
    <glyph glyph-name="registered" unicode="&#xae;" horiz-adv-x="670" 
d="M335 700q113 0 189 -79.5t76 -190.5t-76 -190.5t-189 -79.5t-189 79.5t-76 190.5t76 190.5t189 79.5zM335 683q-106 0 -175.5 -74t-69.5 -179t69.5 -179t175.5 -74t176 74t70 179t-70 179t-176 74zM190 601h187q58 0 86.5 -27.5t28.5 -74.5q0 -45 -26.5 -72.5
t-80.5 -29.5l114 -138h-24l-115 138h-150v-138h-20v342zM209 583v-168h167q48 0 72 23.5t24 60.5q0 38 -23.5 61t-72.5 23h-167z" />
    <glyph glyph-name="macron" unicode="&#xaf;" horiz-adv-x="386" 
d="M316 683h-246v16h246v-16z" />
    <glyph glyph-name="degree" unicode="&#xb0;" horiz-adv-x="377" 
d="M188 707q50 0 84.5 -34.5t34.5 -84.5q0 -49 -35 -83.5t-84 -34.5t-83.5 34.5t-34.5 83.5t34.5 84t83.5 35zM188 689q-41 0 -69.5 -29t-28.5 -72q0 -42 28.5 -71t69.5 -29t70 29t29 71q0 43 -29 72t-70 29z" />
    <glyph glyph-name="plusminus" unicode="&#xb1;" horiz-adv-x="555" 
d="M286 368h198v-17h-198v-149h-18v149h-198v17h198v149h18v-149zM484 129h-414v19h414v-19z" />
    <glyph glyph-name="acute" unicode="&#xb4;" horiz-adv-x="240" 
d="M91 612h-21l60 87h40z" />
    <glyph glyph-name="paragraph" unicode="&#xb6;" horiz-adv-x="576" 
d="M505 681h-38v-844h-18v844h-118v-844h-19v471q-108 0 -175 46t-67 146q0 101 68 150.5t176 49.5h191v-19z" />
    <glyph glyph-name="periodcentered" unicode="&#xb7;" horiz-adv-x="181" 
d="M90 317q8 0 14 -6t6 -14t-6 -14t-14 -6t-14 6t-6 14t6 14t14 6z" />
    <glyph glyph-name="cedilla" unicode="&#xb8;" horiz-adv-x="249" 
d="M116 0l-11 -51q31 8 52.5 -8t21.5 -49q0 -37 -35.5 -51t-73.5 10v20q31 -24 60.5 -16t29.5 37q0 28 -21.5 37.5t-57.5 -4.5l16 75h19z" />
    <glyph glyph-name="guillemotright" unicode="&#xbb;" horiz-adv-x="384" 
d="M201 279l-131 -103v24l100 78l-100 79v25zM314 279l-131 -103v24l100 78l-100 79v25z" />
    <glyph glyph-name="onequarter" unicode="&#xbc;" horiz-adv-x="705" 
d="M154 657l-69 -83l-15 11l97 115h6v-318h-19v275zM181 0h-19l314 700h19zM587 72v-72h-19v72h-213v7l225 239h7v-228h47v-18h-47zM568 277l-175 -187h175v187z" />
    <glyph glyph-name="onehalf" unicode="&#xbd;" horiz-adv-x="790" 
d="M173 382h-19v275l-69 -83l-15 11l97 115h6v-318zM181 0h-19l314 700h19zM720 0h-304v6l198 123q39 23 57 44.5t18 50.5q0 30 -30.5 57t-80.5 27h-7q-44 0 -79 -20.5t-53 -45.5l-13 13q20 29 59 50t85 21h8q60 0 95 -31.5t35 -71.5q0 -37 -23 -61.5t-71 -55.5l-143 -89
h249v-17z" />
    <glyph glyph-name="threequarters" unicode="&#xbe;" horiz-adv-x="841" 
d="M341 694l-166 -131q14 7 51 7q65 0 99.5 -25t34.5 -66q0 -45 -38.5 -74.5t-99.5 -29.5h-6q-57 1 -94.5 23t-51.5 46l14 13q8 -13 20.5 -26t44 -26t70.5 -13q51 1 86.5 26t35.5 61q0 31 -30 52t-84 21q-47 0 -74 -11l-17 13l164 129h-193v17h234v-6zM317 0h-19l314 700h19
zM723 72v-72h-19v72h-213v7l225 239h7v-228h47v-18h-47zM704 277l-175 -187h175v187z" />
    <glyph glyph-name="questiondown" unicode="&#xbf;" 
d="M337 516q-8 0 -14 6t-6 14t6 14t14 6t14 -6t6 -14t-6 -14t-14 -6zM321 -159h-12q-103 3 -171 65t-68 157q0 97 71 153.5t187 58.5v92h18v-109q-122 0 -190 -50t-68 -145q0 -90 63 -147t160 -59h4q98 1 164 44.5t92 114.5l11 -11q-25 -71 -94 -116.5t-167 -47.5z" />
    <glyph glyph-name="Agrave" unicode="&#xc0;" horiz-adv-x="692" 
d="M371 750h-21l-79 87h40zM642 0h-19l-102 244h-350l-102 -244h-19l293 700h6zM178 260h337l-169 402z" />
    <glyph glyph-name="Aacute" unicode="&#xc1;" horiz-adv-x="692" 
d="M342 750h-21l60 87h40zM642 0h-19l-102 244h-350l-102 -244h-19l293 700h6zM178 260h337l-169 402z" />
    <glyph glyph-name="Acircumflex" unicode="&#xc2;" horiz-adv-x="692" 
d="M473 750h-29l-98 76l-99 -76h-29l123 94h9zM642 0h-19l-102 244h-350l-102 -244h-19l293 700h6zM178 260h337l-169 402z" />
    <glyph glyph-name="Atilde" unicode="&#xc3;" horiz-adv-x="692" 
d="M482 840l-10 -34q-20 -63 -63 -63q-26 0 -48 24l-38 43q-17 17 -35 17t-28 -12t-18 -38l-7 -27h-20l10 33q20 63 63 63q27 0 48 -24l38 -43q16 -16 35 -16q18 0 28 11.5t18 38.5l7 27h20zM171 244l-102 -244h-19l293 700h6l293 -700h-19l-102 244h-350zM346 662
l-168 -402h337z" />
    <glyph glyph-name="Adieresis" unicode="&#xc4;" horiz-adv-x="692" 
d="M247 750q-6 0 -10.5 4.5t-4.5 10.5q0 7 4.5 11.5t10.5 4.5q16 0 16 -16q0 -6 -4.5 -10.5t-11.5 -4.5zM447 750q-6 0 -10.5 4.5t-4.5 10.5q0 7 4.5 11.5t10.5 4.5q16 0 16 -16q0 -6 -4.5 -10.5t-11.5 -4.5zM171 244l-102 -244h-19l293 700h6l293 -700h-19l-102 244h-350z
M346 662l-168 -402h337z" />
    <glyph glyph-name="Aring" unicode="&#xc5;" horiz-adv-x="692" 
d="M345 892q29 0 50 -21t21 -49q0 -30 -21 -51t-50 -21q-30 0 -50 21t-20 51q0 28 20.5 49t49.5 21zM345 874q-22 0 -36 -15.5t-14 -36.5q0 -23 13.5 -38.5t36.5 -15.5t37.5 16t14.5 38q0 21 -14.5 36.5t-37.5 15.5zM171 244l-102 -244h-19l293 700h6l293 -700h-19l-102 244
h-350zM346 662l-168 -402h337z" />
    <glyph glyph-name="AE" unicode="&#xc6;" horiz-adv-x="822" 
d="M360 364h384v-16h-384v-332h402v-16h-420v244h-171l-102 -244h-19l293 700h419v-16h-402v-320zM343 654l-165 -394h165v394z" />
    <glyph glyph-name="Ccedilla" unicode="&#xc7;" horiz-adv-x="761" 
d="M436 9q153 0 252 112l12 -13q-105 -115 -264 -115h-4l-9 -44q31 8 52.5 -8t21.5 -49q0 -37 -35.5 -51t-73.5 10v20q31 -24 60.5 -16t29.5 37q0 28 -21.5 37.5t-57.5 -4.5l15 69q-141 8 -237.5 111t-96.5 245q0 148 104 252.5t252 104.5q158 0 264 -117l-12 -11
q-101 112 -252 112q-141 0 -239.5 -99.5t-98.5 -241.5q0 -143 98.5 -242t239.5 -99z" />
    <glyph glyph-name="Egrave" unicode="&#xc8;" horiz-adv-x="600" 
d="M359 750h-21l-79 87h40zM539 684h-401v-320h384v-16h-384v-332h401v-16h-419v700h419v-16z" />
    <glyph glyph-name="Eacute" unicode="&#xc9;" horiz-adv-x="600" 
d="M318 750h-21l60 87h40zM539 684h-401v-320h384v-16h-384v-332h401v-16h-419v700h419v-16z" />
    <glyph glyph-name="Ecircumflex" unicode="&#xca;" horiz-adv-x="600" 
d="M457 750h-29l-98 76l-99 -76h-29l123 94h9zM539 684h-401v-320h384v-16h-384v-332h401v-16h-419v700h419v-16z" />
    <glyph glyph-name="Edieresis" unicode="&#xcb;" horiz-adv-x="600" 
d="M225 781q7 0 11.5 -4.5t4.5 -10.5q0 -16 -16 -16q-6 0 -10.5 4.5t-4.5 11.5q0 6 4.5 10.5t10.5 4.5zM425 781q7 0 11.5 -4.5t4.5 -10.5q0 -16 -16 -16q-6 0 -10.5 4.5t-4.5 11.5q0 6 4.5 10.5t10.5 4.5zM539 684h-401v-320h384v-16h-384v-332h401v-16h-419v700h419v-16z
" />
    <glyph glyph-name="Igrave" unicode="&#xcc;" horiz-adv-x="419" 
d="M181 837l60 -87h-21l-79 87h40zM218 16h80v-16h-178v16h80v668h-80v16h178v-16h-80v-668z" />
    <glyph glyph-name="Iacute" unicode="&#xcd;" horiz-adv-x="419" 
d="M201 750h-21l60 87h40zM298 684h-80v-668h80v-16h-178v16h80v668h-80v16h178v-16z" />
    <glyph glyph-name="Icircumflex" unicode="&#xce;" horiz-adv-x="495" 
d="M375 750h-29l-98 76l-99 -76h-29l123 94h9zM336 684h-80v-668h80v-16h-178v16h80v668h-80v16h178v-16z" />
    <glyph glyph-name="Idieresis" unicode="&#xcf;" horiz-adv-x="471" 
d="M135 781q16 0 16 -16q0 -6 -4.5 -10.5t-11.5 -4.5q-6 0 -10.5 4.5t-4.5 10.5q0 7 4.5 11.5t10.5 4.5zM335 781q16 0 16 -16q0 -6 -4.5 -10.5t-11.5 -4.5q-6 0 -10.5 4.5t-4.5 10.5q0 7 4.5 11.5t10.5 4.5zM324 684h-80v-668h80v-16h-178v16h80v668h-80v16h178v-16z" />
    <glyph glyph-name="Eth" unicode="&#xd0;" horiz-adv-x="840" 
d="M206 700h197q151 0 253.5 -97t102.5 -253t-102.5 -253t-253.5 -97h-197v343h-86v17h86v340zM224 16h179q145 0 241.5 91.5t96.5 242.5t-96.5 242.5t-241.5 91.5h-179v-324h144v-17h-144v-327z" />
    <glyph glyph-name="Ntilde" unicode="&#xd1;" horiz-adv-x="731" 
d="M303 846q27 0 48 -24l38 -43q16 -16 35 -16q18 0 28 11.5t18 38.5l7 27h20l-10 -34q-20 -63 -63 -63q-26 0 -48 24l-38 43q-17 17 -35 17t-28 -12t-18 -38l-7 -27h-20l10 33q20 63 63 63zM620 0h-6l-486 653v-653h-18v700h6l486 -653v653h18v-700z" />
    <glyph glyph-name="Ograve" unicode="&#xd2;" horiz-adv-x="874" 
d="M397 837l60 -87h-21l-79 87h40zM436 707q148 0 252.5 -104.5t104.5 -252.5t-104.5 -252.5t-252.5 -104.5t-252 104.5t-104 252.5t104 252.5t252 104.5zM436 691q-141 0 -239.5 -99.5t-98.5 -241.5q0 -143 98.5 -242t239.5 -99t240 99t99 242q0 142 -99 241.5t-240 99.5z
" />
    <glyph glyph-name="Oacute" unicode="&#xd3;" horiz-adv-x="874" 
d="M436 750h-21l60 87h40zM436 707q148 0 252.5 -104.5t104.5 -252.5t-104.5 -252.5t-252.5 -104.5t-252 104.5t-104 252.5t104 252.5t252 104.5zM436 691q-141 0 -239.5 -99.5t-98.5 -241.5q0 -143 98.5 -242t239.5 -99t240 99t99 242q0 142 -99 241.5t-240 99.5z" />
    <glyph glyph-name="Ocircumflex" unicode="&#xd4;" horiz-adv-x="874" 
d="M564 750h-29l-98 76l-99 -76h-29l123 94h9zM436 707q148 0 252.5 -104.5t104.5 -252.5t-104.5 -252.5t-252.5 -104.5t-252 104.5t-104 252.5t104 252.5t252 104.5zM436 691q-141 0 -239.5 -99.5t-98.5 -241.5q0 -143 98.5 -242t239.5 -99t240 99t99 242q0 142 -99 241.5
t-240 99.5z" />
    <glyph glyph-name="Otilde" unicode="&#xd5;" horiz-adv-x="874" 
d="M568 840l-10 -34q-20 -63 -63 -63q-26 0 -48 24l-38 43q-17 17 -35 17t-28 -12t-18 -38l-7 -27h-20l10 33q20 63 63 63q27 0 48 -24l38 -43q16 -16 35 -16q18 0 28 11.5t18 38.5l7 27h20zM436 707q148 0 252.5 -104.5t104.5 -252.5t-104.5 -252.5t-252.5 -104.5
t-252 104.5t-104 252.5t104 252.5t252 104.5zM436 691q-141 0 -239.5 -99.5t-98.5 -241.5q0 -143 98.5 -242t239.5 -99t240 99t99 242q0 142 -99 241.5t-240 99.5z" />
    <glyph glyph-name="Odieresis" unicode="&#xd6;" horiz-adv-x="874" 
d="M337 750q-6 0 -10.5 4.5t-4.5 10.5q0 7 4.5 11.5t10.5 4.5q16 0 16 -16q0 -6 -4.5 -10.5t-11.5 -4.5zM537 750q-6 0 -10.5 4.5t-4.5 10.5q0 7 4.5 11.5t10.5 4.5q16 0 16 -16q0 -6 -4.5 -10.5t-11.5 -4.5zM436 707q148 0 252.5 -104.5t104.5 -252.5t-104.5 -252.5
t-252.5 -104.5t-252 104.5t-104 252.5t104 252.5t252 104.5zM436 691q-141 0 -239.5 -99.5t-98.5 -241.5q0 -143 98.5 -242t239.5 -99t240 99t99 242q0 142 -99 241.5t-240 99.5z" />
    <glyph glyph-name="multiply" unicode="&#xd7;" horiz-adv-x="446" 
d="M375 452l-139 -139l139 -140l-13 -13l-139 139l-140 -139l-13 13l139 140l-139 139l13 13l140 -139l139 139z" />
    <glyph glyph-name="Oslash" unicode="&#xd8;" horiz-adv-x="874" 
d="M793 700l-100 -102q100 -103 100 -248q0 -148 -104.5 -252.5t-252.5 -104.5q-142 0 -243 96l-88 -89h-25l100 102q-100 103 -100 248q0 148 104 252.5t252 104.5q141 0 244 -97l88 90h25zM98 350q0 -139 93 -237l478 486q-98 92 -233 92q-141 0 -239.5 -99.5
t-98.5 -241.5zM775 350q0 137 -94 236l-477 -485q97 -92 232 -92q141 0 240 99t99 242z" />
    <glyph glyph-name="Ugrave" unicode="&#xd9;" horiz-adv-x="804" 
d="M367 837l60 -87h-21l-79 87h40zM693 700v-391q0 -141 -75 -228.5t-212 -87.5t-211.5 87.5t-74.5 228.5v391h18v-391q0 -136 69 -218t199 -82t199.5 82t69.5 218v391h18z" />
    <glyph glyph-name="Uacute" unicode="&#xda;" horiz-adv-x="804" 
d="M406 750h-21l60 87h40zM693 700v-391q0 -141 -75 -228.5t-212 -87.5t-211.5 87.5t-74.5 228.5v391h18v-391q0 -136 69 -218t199 -82t199.5 82t69.5 218v391h18z" />
    <glyph glyph-name="Ucircumflex" unicode="&#xdb;" horiz-adv-x="804" 
d="M505 750l-98 76l-99 -76h-29l123 94h9l123 -94h-29zM693 700v-391q0 -141 -75 -228.5t-212 -87.5t-211.5 87.5t-74.5 228.5v391h18v-391q0 -136 69 -218t199 -82t199.5 82t69.5 218v391h18z" />
    <glyph glyph-name="Udieresis" unicode="&#xdc;" horiz-adv-x="804" 
d="M308 750q-6 0 -10.5 4.5t-4.5 10.5q0 7 4.5 11.5t10.5 4.5q16 0 16 -16q0 -6 -4.5 -10.5t-11.5 -4.5zM508 750q-6 0 -10.5 4.5t-4.5 10.5q0 7 4.5 11.5t10.5 4.5q16 0 16 -16q0 -6 -4.5 -10.5t-11.5 -4.5zM693 700v-391q0 -141 -75 -228.5t-212 -87.5t-211.5 87.5
t-74.5 228.5v391h18v-391q0 -136 69 -218t199 -82t199.5 82t69.5 218v391h18z" />
    <glyph glyph-name="Yacute" unicode="&#xdd;" horiz-adv-x="685" 
d="M343 750h-21l60 87h40zM351 0h-18v245l-283 455h21l272 -436l271 436h21l-284 -454v-246z" />
    <glyph glyph-name="Thorn" unicode="&#xde;" horiz-adv-x="713" 
d="M138 605h193q130 0 215.5 -62t85.5 -182q0 -121 -85.5 -183t-215.5 -62h-193v-116h-18v700h18v-95zM138 132h193q123 0 203 57t80 172q0 78 -40 130.5t-101.5 75t-141.5 22.5h-193v-457z" />
    <glyph glyph-name="germandbls" unicode="&#xdf;" horiz-adv-x="664" 
d="M322 707h33q111 0 166.5 -50.5t55.5 -129.5q0 -127 -128 -160q76 -16 115 -62.5t39 -117.5q0 -90 -67 -142t-179 -52h-160v16h160q106 0 167 47t61 131q0 82 -52 126t-158 44h-97v16h72q117 0 163 41.5t46 112.5q0 74 -50 119t-154 45h-33q-104 0 -154 -45t-50 -118v-528
h-18v527q0 79 55.5 129.5t166.5 50.5z" />
    <glyph glyph-name="agrave" unicode="&#xe0;" horiz-adv-x="684" 
d="M288 668l60 -88h-21l-79 88h40zM584 0h-19v154q-29 -71 -94 -115.5t-145 -44.5q-106 0 -181 75t-75 181t75 181.5t181 75.5q80 0 145 -44.5t94 -116.5v154h19v-500zM327 11q99 0 168.5 69.5t69.5 169.5t-69.5 170t-168.5 70q-100 0 -169 -69.5t-69 -170.5
q0 -100 69 -169.5t169 -69.5z" />
    <glyph glyph-name="aacute" unicode="&#xe1;" horiz-adv-x="684" 
d="M328 580h-21l60 88h40zM584 0h-19v154q-29 -71 -94 -115.5t-145 -44.5q-106 0 -181 75t-75 181t75 181.5t181 75.5q80 0 145 -44.5t94 -116.5v154h19v-500zM327 11q99 0 168.5 69.5t69.5 169.5t-69.5 170t-168.5 70q-100 0 -169 -69.5t-69 -170.5q0 -100 69 -169.5
t169 -69.5z" />
    <glyph glyph-name="acircumflex" unicode="&#xe2;" horiz-adv-x="684" 
d="M425 580l-98 76l-99 -76h-29l123 94h9l123 -94h-29zM584 0h-19v154q-29 -71 -94 -115.5t-145 -44.5q-106 0 -181 75t-75 181t75 181.5t181 75.5q80 0 145 -44.5t94 -116.5v154h19v-500zM327 11q99 0 168.5 69.5t69.5 169.5t-69.5 170t-168.5 70q-100 0 -169 -69.5
t-69 -170.5q0 -100 69 -169.5t169 -69.5z" />
    <glyph glyph-name="atilde" unicode="&#xe3;" horiz-adv-x="684" 
d="M456 670l-10 -33q-20 -64 -63 -64q-27 1 -48 24l-38 44q-18 16 -35 16q-18 0 -28 -12t-18 -38l-7 -27h-20l10 33q20 64 63 64q26 0 48 -24l38 -44q18 -16 35 -16q18 0 28 12t18 38l7 27h20zM584 0h-19v154q-29 -71 -94 -115.5t-145 -44.5q-106 0 -181 75t-75 181
t75 181.5t181 75.5q80 0 145 -44.5t94 -116.5v154h19v-500zM327 11q99 0 168.5 69.5t69.5 169.5t-69.5 170t-168.5 70q-100 0 -169 -69.5t-69 -170.5q0 -100 69 -169.5t169 -69.5z" />
    <glyph glyph-name="adieresis" unicode="&#xe4;" horiz-adv-x="684" 
d="M227 580q-6 0 -10.5 4.5t-4.5 11.5q0 6 4.5 10.5t10.5 4.5q7 0 11.5 -4.5t4.5 -10.5q0 -16 -16 -16zM427 580q-6 0 -10.5 4.5t-4.5 11.5q0 6 4.5 10.5t10.5 4.5q7 0 11.5 -4.5t4.5 -10.5q0 -16 -16 -16zM584 0h-19v154q-29 -71 -94 -115.5t-145 -44.5q-106 0 -181 75
t-75 181t75 181.5t181 75.5q80 0 145 -44.5t94 -116.5v154h19v-500zM327 11q99 0 168.5 69.5t69.5 169.5t-69.5 170t-168.5 70q-100 0 -169 -69.5t-69 -170.5q0 -100 69 -169.5t169 -69.5z" />
    <glyph glyph-name="aring" unicode="&#xe5;" horiz-adv-x="684" 
d="M326 722q29 0 50 -20.5t21 -49.5q0 -30 -21 -51t-50 -21q-30 0 -50 21t-20 51q0 29 20 49.5t50 20.5zM326 705q-22 0 -36 -16t-14 -37q0 -23 13.5 -38.5t36.5 -15.5t37.5 16t14.5 38q0 21 -15 37t-37 16zM584 0h-19v154q-29 -71 -94 -115.5t-145 -44.5q-106 0 -181 75
t-75 181t75 181.5t181 75.5q80 0 145 -44.5t94 -116.5v154h19v-500zM327 11q99 0 168.5 69.5t69.5 169.5t-69.5 170t-168.5 70q-100 0 -169 -69.5t-69 -170.5q0 -100 69 -169.5t169 -69.5z" />
    <glyph glyph-name="ae" unicode="&#xe6;" horiz-adv-x="1129" 
d="M326 507q80 0 145 -44.5t94 -116.5v154h19v-149q28 71 91.5 113.5t146.5 42.5q82 0 142.5 -43t86.5 -114q8 -23 11 -53t-1 -46h-477q0 -111 68.5 -175.5t181.5 -64.5q109 -1 195 71l12 -13q-91 -75 -207 -75q-89 1 -155 40.5t-95 110.5v-145h-19v154q-29 -71 -94 -115.5
t-145 -44.5q-106 0 -181 75t-75 181t75 181.5t181 75.5zM327 490q-100 0 -169 -69.5t-69 -170.5q0 -100 69 -169.5t169 -69.5q99 0 168.5 69.5t69.5 169.5t-69.5 170t-168.5 70zM822 490q-99 0 -165 -63.5t-72 -158.5h461q2 41 -11 76q-25 67 -80.5 106.5t-132.5 39.5z" />
    <glyph glyph-name="ccedilla" unicode="&#xe7;" horiz-adv-x="589" 
d="M326 11q114 0 185 87l12 -12q-76 -92 -197 -92h-1l-10 -45q31 8 52.5 -8t21.5 -49q0 -37 -35.5 -51t-73.5 10v20q31 -24 60.5 -16t29.5 37q0 28 -21.5 37.5t-57.5 -4.5l15 70q-100 8 -168 81t-68 174q0 107 75 182t181 75q120 0 198 -93l-13 -12q-72 88 -185 88
q-99 0 -168.5 -70t-69.5 -170t69.5 -169.5t168.5 -69.5z" />
    <glyph glyph-name="egrave" unicode="&#xe8;" horiz-adv-x="634" 
d="M347 580h-21l-79 88h40zM326 507q82 0 142.5 -43t87.5 -114q8 -23 11 -53t-1 -46h-478q0 -111 68.5 -175.5t181.5 -64.5q109 -1 196 71l12 -13q-91 -75 -208 -75q-120 1 -194 70.5t-74 185.5q0 108 73 182.5t183 74.5zM326 490q-99 0 -165 -63.5t-72 -158.5h461
q2 41 -11 76q-25 67 -80.5 106.5t-132.5 39.5z" />
    <glyph glyph-name="eacute" unicode="&#xe9;" horiz-adv-x="634" 
d="M326 580h-21l60 88h40zM326 507q82 0 142.5 -43t87.5 -114q8 -23 11 -53t-1 -46h-478q0 -111 68.5 -175.5t181.5 -64.5q109 -1 196 71l12 -13q-91 -75 -208 -75q-120 1 -194 70.5t-74 185.5q0 108 73 182.5t183 74.5zM326 490q-99 0 -165 -63.5t-72 -158.5h461
q2 41 -11 76q-25 67 -80.5 106.5t-132.5 39.5z" />
    <glyph glyph-name="ecircumflex" unicode="&#xea;" horiz-adv-x="634" 
d="M454 580h-29l-98 76l-99 -76h-29l123 94h9zM326 507q82 0 142.5 -43t87.5 -114q8 -23 11 -53t-1 -46h-478q0 -111 68.5 -175.5t181.5 -64.5q109 -1 196 71l12 -13q-91 -75 -208 -75q-120 1 -194 70.5t-74 185.5q0 108 73 182.5t183 74.5zM326 490q-99 0 -165 -63.5
t-72 -158.5h461q2 41 -11 76q-25 67 -80.5 106.5t-132.5 39.5z" />
    <glyph glyph-name="edieresis" unicode="&#xeb;" horiz-adv-x="634" 
d="M229 611q7 0 11.5 -4.5t4.5 -10.5q0 -16 -16 -16q-6 0 -10.5 4.5t-4.5 11.5q0 6 4.5 10.5t10.5 4.5zM429 611q7 0 11.5 -4.5t4.5 -10.5q0 -16 -16 -16q-6 0 -10.5 4.5t-4.5 11.5q0 6 4.5 10.5t10.5 4.5zM326 507q82 0 142.5 -43t87.5 -114q8 -23 11 -53t-1 -46h-478
q0 -111 68.5 -175.5t181.5 -64.5q109 -1 196 71l12 -13q-91 -75 -208 -75q-120 1 -194 70.5t-74 185.5q0 108 73 182.5t183 74.5zM326 490q-99 0 -165 -63.5t-72 -158.5h461q2 41 -11 76q-25 67 -80.5 106.5t-132.5 39.5z" />
    <glyph glyph-name="igrave" unicode="&#xec;" horiz-adv-x="306" 
d="M146 668l59 -88h-20l-80 88h41zM188 0v500h18v-500h-18z" />
    <glyph glyph-name="iacute" unicode="&#xed;" horiz-adv-x="305" 
d="M126 580h-21l60 88h40zM127 0v500h18v-500h-18z" />
    <glyph glyph-name="icircumflex" unicode="&#xee;" horiz-adv-x="461" 
d="M237 674l123 -94h-29l-98 76l-98 -76h-30l123 94h9zM241 0h-18v500h18v-500z" />
    <glyph glyph-name="idieresis" unicode="&#xef;" horiz-adv-x="436" 
d="M120 580q-6 0 -10.5 4.5t-4.5 11.5q0 6 4.5 10.5t10.5 4.5t10.5 -4.5t4.5 -10.5q0 -7 -4.5 -11.5t-10.5 -4.5zM320 580q-6 0 -10.5 4.5t-4.5 11.5q0 6 4.5 10.5t10.5 4.5q7 0 11.5 -4.5t4.5 -10.5q0 -16 -16 -16zM213 0v500h18v-500h-18z" />
    <glyph glyph-name="eth" unicode="&#xf0;" horiz-adv-x="683" 
d="M575 687l-52 -46q60 -66 60 -186v-206q0 -107 -73.5 -181.5t-183.5 -74.5q-109 0 -182.5 75t-73.5 182q0 106 75 181t181 75q80 0 144.5 -43.5t94.5 -114.5l-1 107q0 116 -54 174l-88 -80l-14 13l89 80q-53 47 -149 47q-108 3 -196 -70l-12 13q91 75 208 75
q103 0 162 -53l52 46zM327 10q103 0 170.5 69t67.5 171q0 100 -69.5 170t-168.5 70q-100 0 -169 -69.5t-69 -170.5t67.5 -170.5t170.5 -69.5z" />
    <glyph glyph-name="ntilde" unicode="&#xf1;" horiz-adv-x="656" 
d="M461 670l-10 -33q-20 -64 -63 -64q-27 1 -48 24l-38 44q-18 16 -35 16q-18 0 -28 -12t-18 -38l-7 -27h-20l10 33q20 64 63 64q26 0 48 -24l38 -44q18 -16 35 -16q18 0 28 12t18 38l7 27h20zM344 507q99 0 158 -60t59 -173v-274h-19v275q0 106 -53 160.5t-145 54.5
q-102 0 -164 -70t-62 -189v-231h-18v500h19v-149q30 80 93.5 118t131.5 38z" />
    <glyph glyph-name="ograve" unicode="&#xf2;" 
d="M287 668l60 -88h-21l-79 88h40zM326 507q106 0 181.5 -75.5t75.5 -181.5t-75 -181t-182 -75q-106 0 -181 75t-75 181q0 107 75 182t181 75zM327 490q-100 0 -169 -69.5t-69 -170.5q0 -100 69 -169.5t169 -69.5q99 0 168.5 69.5t69.5 169.5t-69.5 170t-168.5 70z" />
    <glyph glyph-name="oacute" unicode="&#xf3;" 
d="M326 580h-21l60 88h40zM326 507q106 0 181.5 -75.5t75.5 -181.5t-75 -181t-182 -75q-106 0 -181 75t-75 181q0 107 75 182t181 75zM327 490q-100 0 -169 -69.5t-69 -170.5q0 -100 69 -169.5t169 -69.5q99 0 168.5 69.5t69.5 169.5t-69.5 170t-168.5 70z" />
    <glyph glyph-name="ocircumflex" unicode="&#xf4;" 
d="M425 580l-98 76l-99 -76h-29l123 94h9l123 -94h-29zM326 507q106 0 181.5 -75.5t75.5 -181.5t-75 -181t-182 -75q-106 0 -181 75t-75 181q0 107 75 182t181 75zM327 490q-100 0 -169 -69.5t-69 -170.5q0 -100 69 -169.5t169 -69.5q99 0 168.5 69.5t69.5 169.5t-69.5 170
t-168.5 70z" />
    <glyph glyph-name="otilde" unicode="&#xf5;" 
d="M460 670l-10 -33q-20 -64 -63 -64q-27 1 -48 24l-38 44q-18 16 -35 16q-18 0 -28 -12t-18 -38l-7 -27h-20l10 33q20 64 63 64q26 0 48 -24l38 -44q18 -16 35 -16q18 0 28 12t18 38l7 27h20zM326 507q106 0 181.5 -75.5t75.5 -181.5t-75 -181t-182 -75q-106 0 -181 75
t-75 181q0 107 75 182t181 75zM327 490q-100 0 -169 -69.5t-69 -170.5q0 -100 69 -169.5t169 -69.5q99 0 168.5 69.5t69.5 169.5t-69.5 170t-168.5 70z" />
    <glyph glyph-name="odieresis" unicode="&#xf6;" 
d="M229 580q-6 0 -10.5 4.5t-4.5 11.5q0 6 4.5 10.5t10.5 4.5q7 0 11.5 -4.5t4.5 -10.5q0 -16 -16 -16zM429 580q-6 0 -10.5 4.5t-4.5 11.5q0 6 4.5 10.5t10.5 4.5q7 0 11.5 -4.5t4.5 -10.5q0 -16 -16 -16zM326 507q106 0 181.5 -75.5t75.5 -181.5t-75 -181t-182 -75
q-106 0 -181 75t-75 181q0 107 75 182t181 75zM327 490q-100 0 -169 -69.5t-69 -170.5q0 -100 69 -169.5t169 -69.5q99 0 168.5 69.5t69.5 169.5t-69.5 170t-168.5 70z" />
    <glyph glyph-name="divide" unicode="&#xf7;" horiz-adv-x="555" 
d="M278 442q8 0 14 -6t6 -14q0 -9 -6 -14.5t-14 -5.5t-14 5.5t-6 14.5q0 8 6 14t14 6zM484 250h-414v16h414v-16zM278 109q8 0 14 -6t6 -14t-6 -14t-14 -6t-14 6t-6 14t6 14t14 6z" />
    <glyph glyph-name="oslash" unicode="&#xf8;" 
d="M583 500l-71 -73q71 -74 71 -177q0 -106 -75 -181t-182 -75q-100 0 -172 66l-59 -60h-25l71 73q-71 74 -71 177q0 107 75 182t181 75q101 0 173 -67l59 60h25zM89 250q0 -96 64 -165l335 343q-68 62 -161 62q-100 0 -169 -69.5t-69 -170.5zM565 250q0 95 -65 165
l-334 -342q67 -62 161 -62q99 0 168.5 69.5t69.5 169.5z" />
    <glyph glyph-name="ugrave" unicode="&#xf9;" horiz-adv-x="651" 
d="M333 580h-21l-79 88h40zM556 0h-19v149q-30 -79 -94 -117.5t-131 -38.5q-99 0 -158 60t-59 173v274h18v-275q0 -106 53 -160.5t146 -54.5q102 0 164 70t62 189v231h18v-500z" />
    <glyph glyph-name="uacute" unicode="&#xfa;" horiz-adv-x="651" 
d="M391 668l-79 -88h-21l60 88h40zM556 0h-19v149q-30 -79 -94 -117.5t-131 -38.5q-99 0 -158 60t-59 173v274h18v-275q0 -106 53 -160.5t146 -54.5q102 0 164 70t62 189v231h18v-500z" />
    <glyph glyph-name="ucircumflex" unicode="&#xfb;" horiz-adv-x="651" 
d="M410 580l-98 76l-99 -76h-29l123 94h9l123 -94h-29zM556 0h-19v149q-30 -79 -94 -117.5t-131 -38.5q-99 0 -158 60t-59 173v274h18v-275q0 -106 53 -160.5t146 -54.5q102 0 164 70t62 189v231h18v-500z" />
    <glyph glyph-name="udieresis" unicode="&#xfc;" horiz-adv-x="651" 
d="M220 611q7 0 11.5 -4.5t4.5 -10.5q0 -16 -16 -16q-6 0 -10.5 4.5t-4.5 11.5q0 6 4.5 10.5t10.5 4.5zM420 611q7 0 11.5 -4.5t4.5 -10.5q0 -16 -16 -16q-6 0 -10.5 4.5t-4.5 11.5q0 6 4.5 10.5t10.5 4.5zM556 0h-19v149q-30 -79 -94 -117.5t-131 -38.5q-99 0 -158 60
t-59 173v274h18v-275q0 -106 53 -160.5t146 -54.5q102 0 164 70t62 189v231h18v-500z" />
    <glyph glyph-name="yacute" unicode="&#xfd;" horiz-adv-x="656" 
d="M317 580h-21l60 88h40zM561 500v-439q0 -119 -59.5 -185t-175.5 -67q-117 0 -208 75l12 13q88 -72 196 -71q217 0 217 236v87q-30 -79 -94 -117.5t-132 -38.5q-99 0 -158 60t-59 172v275h18v-275q0 -106 53 -160.5t146 -54.5q102 0 164 70t62 189v231h18z" />
    <glyph glyph-name="thorn" unicode="&#xfe;" horiz-adv-x="689" 
d="M123 700v-354q30 72 95 116.5t145 44.5q106 0 181 -75.5t75 -181.5t-75 -181t-181 -75q-81 0 -145.5 44.5t-94.5 116.5v-339h-18v884h18zM363 490q-99 0 -168.5 -70t-69.5 -170t69.5 -169.5t168.5 -69.5q100 0 169 69.5t69 169.5q0 101 -69 170.5t-169 69.5z" />
    <glyph glyph-name="ydieresis" unicode="&#xff;" horiz-adv-x="656" 
d="M218 611q7 0 11.5 -4.5t4.5 -10.5q0 -16 -16 -16q-6 0 -10.5 4.5t-4.5 11.5q0 6 4.5 10.5t10.5 4.5zM418 611q7 0 11.5 -4.5t4.5 -10.5q0 -16 -16 -16q-6 0 -10.5 4.5t-4.5 11.5q0 6 4.5 10.5t10.5 4.5zM118 500v-275q0 -106 53 -160.5t146 -54.5q102 0 164 70t62 189
v231h18v-439q0 -119 -59.5 -185t-175.5 -67q-117 0 -208 75l12 13q88 -72 196 -71q217 0 217 236v87q-30 -79 -94 -117.5t-132 -38.5q-99 0 -158 60t-59 172v275h18z" />
    <glyph glyph-name="Amacron" unicode="&#x100;" horiz-adv-x="692" 
d="M468 750h-246v17h246v-17zM171 244l-102 -244h-19l293 700h6l293 -700h-19l-102 244h-350zM346 662l-168 -402h337z" />
    <glyph glyph-name="amacron" unicode="&#x101;" horiz-adv-x="684" 
d="M448 580h-246v17h246v-17zM584 0h-19v154q-29 -71 -94 -115.5t-145 -44.5q-106 0 -181 75t-75 181t75 181.5t181 75.5q80 0 145 -44.5t94 -116.5v154h19v-500zM327 11q99 0 168.5 69.5t69.5 169.5t-69.5 170t-168.5 70q-100 0 -169 -69.5t-69 -170.5q0 -100 69 -169.5
t169 -69.5z" />
    <glyph glyph-name="Abreve" unicode="&#x102;" horiz-adv-x="692" 
d="M458 858h17q0 -46 -37.5 -77t-91.5 -31q-55 0 -92 31t-37 77h17q0 -39 32 -64.5t80 -25.5t80 25.5t32 64.5zM642 0h-19l-102 244h-350l-102 -244h-19l293 700h6zM178 260h337l-169 402z" />
    <glyph glyph-name="abreve" unicode="&#x103;" horiz-adv-x="684" 
d="M438 688h17q0 -46 -37.5 -77t-91.5 -31q-55 0 -92 31t-37 77h17q0 -39 32 -64.5t80 -25.5t80 25.5t32 64.5zM326 507q80 0 145 -44.5t94 -116.5v154h19v-500h-19v154q-29 -71 -94 -115.5t-145 -44.5q-106 0 -181 75t-75 181t75 181.5t181 75.5zM327 490
q-100 0 -169 -69.5t-69 -170.5q0 -100 69 -169.5t169 -69.5q99 0 168.5 69.5t69.5 169.5t-69.5 170t-168.5 70z" />
    <glyph glyph-name="Aogonek" unicode="&#x104;" horiz-adv-x="692" 
d="M562 -82q0 -32 22.5 -49t52.5 -17h2v-17h-2q-38 0 -66 21.5t-28 61.5q0 59 79 82h1l-102 244h-350l-102 -244h-19l293 700h6l293 -700q-80 -26 -80 -82zM515 260l-169 402l-168 -402h337z" />
    <glyph glyph-name="aogonek" unicode="&#x105;" horiz-adv-x="684" 
d="M584 500v-500q-80 -26 -80 -82q0 -32 22.5 -49t52.5 -17h2v-17h-2q-38 0 -66 21.5t-28 61.5q0 59 79 82h1v154q-29 -71 -94 -115.5t-145 -44.5q-106 0 -181 75t-75 181t75 181.5t181 75.5q80 0 145 -44.5t94 -116.5v154h19zM327 11q99 0 168.5 69.5t69.5 169.5t-69.5 170
t-168.5 70q-100 0 -169 -69.5t-69 -170.5q0 -100 69 -169.5t169 -69.5z" />
    <glyph glyph-name="Cacute" unicode="&#x106;" horiz-adv-x="761" 
d="M437 750h-21l60 87h40zM436 707q158 0 264 -117l-12 -11q-101 112 -252 112q-141 0 -239.5 -99.5t-98.5 -241.5q0 -143 98.5 -242t239.5 -99q153 0 252 112l12 -13q-105 -115 -264 -115q-148 0 -252 104.5t-104 252.5t104 252.5t252 104.5z" />
    <glyph glyph-name="cacute" unicode="&#x107;" horiz-adv-x="589" 
d="M299 580h-21l60 88h40zM326 507q120 0 198 -93l-13 -12q-72 88 -185 88q-99 0 -168.5 -70t-69.5 -170t69.5 -169.5t168.5 -69.5q114 0 185 87l12 -12q-76 -92 -197 -92q-106 0 -181 75t-75 181q0 107 75 182t181 75z" />
    <glyph glyph-name="Cdotaccent" unicode="&#x10a;" horiz-adv-x="761" 
d="M436 781q16 0 16 -16q0 -6 -4.5 -10.5t-11.5 -4.5q-6 0 -10.5 4.5t-4.5 10.5q0 7 4.5 11.5t10.5 4.5zM436 707q158 0 264 -117l-12 -11q-101 112 -252 112q-141 0 -239.5 -99.5t-98.5 -241.5q0 -143 98.5 -242t239.5 -99q153 0 252 112l12 -13q-105 -115 -264 -115
q-148 0 -252 104.5t-104 252.5t104 252.5t252 104.5z" />
    <glyph glyph-name="cdotaccent" unicode="&#x10b;" horiz-adv-x="589" 
d="M326 611q7 0 11.5 -4.5t4.5 -10.5q0 -16 -16 -16q-6 0 -10.5 4.5t-4.5 11.5q0 6 4.5 10.5t10.5 4.5zM326 507q120 0 198 -93l-13 -12q-72 88 -185 88q-99 0 -168.5 -70t-69.5 -170t69.5 -169.5t168.5 -69.5q114 0 185 87l12 -12q-76 -92 -197 -92q-106 0 -181 75t-75 181
q0 107 75 182t181 75z" />
    <glyph glyph-name="Ccaron" unicode="&#x10c;" horiz-adv-x="761" 
d="M441 750h-9l-123 94h29l99 -76l98 76h29zM436 707q158 0 264 -117l-12 -11q-101 112 -252 112q-141 0 -239.5 -99.5t-98.5 -241.5q0 -143 98.5 -242t239.5 -99q153 0 252 112l12 -13q-105 -115 -264 -115q-148 0 -252 104.5t-104 252.5t104 252.5t252 104.5z" />
    <glyph glyph-name="ccaron" unicode="&#x10d;" horiz-adv-x="589" 
d="M331 580h-9l-123 94h29l99 -75l98 75h29zM326 507q120 0 198 -93l-13 -12q-72 88 -185 88q-99 0 -168.5 -70t-69.5 -170t69.5 -169.5t168.5 -69.5q114 0 185 87l12 -12q-76 -92 -197 -92q-106 0 -181 75t-75 181q0 107 75 182t181 75z" />
    <glyph glyph-name="Dcaron" unicode="&#x10e;" horiz-adv-x="754" 
d="M352 750h-9l-123 94h29l99 -76l98 76h29zM120 700h197q151 0 253.5 -97t102.5 -253t-102.5 -253t-253.5 -97h-197v700zM138 684v-668h179q145 0 241.5 91.5t96.5 242.5t-96.5 242.5t-241.5 91.5h-179z" />
    <glyph glyph-name="dcaron" unicode="&#x10f;" horiz-adv-x="816" 
d="M584 0h-19v154q-29 -71 -94 -115.5t-145 -44.5q-106 0 -181 75t-75 181t75 181.5t181 75.5q80 0 145 -44.5t95 -116.5v354h18v-700zM637 613h-21l60 87h40zM327 11q99 0 168.5 69.5t69.5 169.5t-69.5 170t-168.5 70q-100 0 -169 -69.5t-69 -170.5q0 -100 69 -169.5
t169 -69.5z" />
    <glyph glyph-name="Dcroat" unicode="&#x110;" horiz-adv-x="840" 
d="M206 700h197q151 0 253.5 -97t102.5 -253t-102.5 -253t-253.5 -97h-197v343h-86v17h86v340zM224 16h179q145 0 241.5 91.5t96.5 242.5t-96.5 242.5t-241.5 91.5h-179v-324h144v-17h-144v-327z" />
    <glyph glyph-name="dcroat" unicode="&#x111;" horiz-adv-x="775" 
d="M675 571h-91v-571h-19v154q-29 -71 -94 -115.5t-145 -44.5q-106 0 -181 75t-75 181t75 181.5t181 75.5q80 0 145 -44.5t95 -116.5v225h-91v16h91v113h18v-113h91v-16zM327 11q99 0 168.5 69.5t69.5 169.5t-69.5 170t-168.5 70q-100 0 -169 -69.5t-69 -170.5
q0 -100 69 -169.5t169 -69.5z" />
    <glyph glyph-name="Emacron" unicode="&#x112;" horiz-adv-x="600" 
d="M447 750h-246v17h246v-17zM539 684h-401v-320h384v-16h-384v-332h401v-16h-419v700h419v-16z" />
    <glyph glyph-name="emacron" unicode="&#x113;" horiz-adv-x="634" 
d="M448 580h-246v17h246v-17zM326 507q82 0 142.5 -43t87.5 -114q8 -23 11 -53t-1 -46h-478q0 -111 68.5 -175.5t181.5 -64.5q109 -1 196 71l12 -13q-91 -75 -208 -75q-120 1 -194 70.5t-74 185.5q0 108 73 182.5t183 74.5zM326 490q-99 0 -165 -63.5t-72 -158.5h461
q2 41 -11 76q-25 67 -80.5 106.5t-132.5 39.5z" />
    <glyph glyph-name="Edotaccent" unicode="&#x116;" horiz-adv-x="600" 
d="M322 781q16 0 16 -16q0 -6 -4.5 -10.5t-11.5 -4.5q-6 0 -10.5 4.5t-4.5 10.5q0 7 4.5 11.5t10.5 4.5zM539 684h-401v-320h384v-16h-384v-332h401v-16h-419v700h419v-16z" />
    <glyph glyph-name="edotaccent" unicode="&#x117;" horiz-adv-x="634" 
d="M326 611q7 0 11.5 -4.5t4.5 -10.5q0 -16 -16 -16q-6 0 -10.5 4.5t-4.5 11.5q0 6 4.5 10.5t10.5 4.5zM326 507q82 0 142.5 -43t87.5 -114q8 -23 11 -53t-1 -46h-478q0 -111 68.5 -175.5t181.5 -64.5q109 -1 196 71l12 -13q-91 -75 -208 -75q-120 1 -194 70.5t-74 185.5
q0 108 73 182.5t183 74.5zM326 490q-99 0 -165 -63.5t-72 -158.5h461q2 41 -11 76q-25 67 -80.5 106.5t-132.5 39.5z" />
    <glyph glyph-name="Eogonek" unicode="&#x118;" horiz-adv-x="600" 
d="M460 -82q0 -32 22.5 -49t52.5 -17h2v-17h-2q-38 0 -66 21.5t-28 61.5q0 59 79 82h-400v700h419v-16h-401v-320h384v-16h-384v-332h401v-16h1q-80 -26 -80 -82z" />
    <glyph glyph-name="eogonek" unicode="&#x119;" horiz-adv-x="634" 
d="M556 350q8 -23 11 -53t-1 -46h-478q0 -111 68.5 -175.5t181.5 -64.5q109 -1 196 71l12 -13q-69 -56 -151 -70q-76 -26 -76 -81q0 -32 22.5 -49t52.5 -17h2v-17h-2q-38 0 -66 21.5t-28 61.5q0 53 64 77q-9 -1 -26 -1q-120 1 -194 70.5t-74 185.5q0 108 73 182.5t183 74.5
q82 0 142.5 -43t87.5 -114zM89 268h461q2 41 -11 76q-25 67 -80.5 106.5t-132.5 39.5q-99 0 -165 -63.5t-72 -158.5z" />
    <glyph glyph-name="Ecaron" unicode="&#x11a;" horiz-adv-x="600" 
d="M338 750h-9l-123 94h29l99 -76l98 76h29zM539 684h-401v-320h384v-16h-384v-332h401v-16h-419v700h419v-16z" />
    <glyph glyph-name="ecaron" unicode="&#x11b;" horiz-adv-x="634" 
d="M331 580h-9l-123 94h29l99 -75l98 75h29zM326 507q82 0 142.5 -43t87.5 -114q8 -23 11 -53t-1 -46h-478q0 -111 68.5 -175.5t181.5 -64.5q109 -1 196 71l12 -13q-91 -75 -208 -75q-120 1 -194 70.5t-74 185.5q0 108 73 182.5t183 74.5zM326 490q-99 0 -165 -63.5
t-72 -158.5h461q2 41 -11 76q-25 67 -80.5 106.5t-132.5 39.5z" />
    <glyph glyph-name="Gbreve" unicode="&#x11e;" horiz-adv-x="811" 
d="M548 858h17q0 -46 -37.5 -77t-91.5 -31q-55 0 -92 31t-37 77h17q0 -39 32 -64.5t80 -25.5t80 25.5t32 64.5zM436 707q158 0 264 -117l-12 -11q-101 112 -252 112q-141 0 -239.5 -99.5t-98.5 -241.5q0 -143 98.5 -242t239.5 -99q147 0 246 105v217h-256v16h274v-239
q-105 -115 -264 -115q-148 0 -252 104.5t-104 252.5t104 252.5t252 104.5z" />
    <glyph glyph-name="gbreve" unicode="&#x11f;" horiz-adv-x="678" 
d="M433 688h17q0 -46 -37.5 -77t-91.5 -31q-55 0 -92 31t-37 77h17q0 -39 32 -64.5t80 -25.5t80 25.5t32 64.5zM321 507q79 0 143.5 -44t94.5 -115v152h19v-439q0 -119 -59.5 -185t-175.5 -67q-117 0 -208 75l12 13q88 -72 196 -71q217 0 217 236v90q-30 -71 -94.5 -114.5
t-144.5 -43.5q-106 0 -181 75t-75 181t75 181.5t181 75.5zM322 490q-100 0 -169 -69.5t-69 -170.5t69 -170.5t169 -69.5q99 0 168.5 70t69.5 170t-69.5 170t-168.5 70z" />
    <glyph glyph-name="Gdotaccent" unicode="&#x120;" horiz-adv-x="811" 
d="M436 781q16 0 16 -16q0 -6 -4.5 -10.5t-11.5 -4.5q-6 0 -10.5 4.5t-4.5 10.5q0 7 4.5 11.5t10.5 4.5zM436 707q158 0 264 -117l-12 -11q-101 112 -252 112q-141 0 -239.5 -99.5t-98.5 -241.5q0 -143 98.5 -242t239.5 -99q147 0 246 105v217h-256v16h274v-239
q-105 -115 -264 -115q-148 0 -252 104.5t-104 252.5t104 252.5t252 104.5z" />
    <glyph glyph-name="gdotaccent" unicode="&#x121;" horiz-adv-x="678" 
d="M321 611q7 0 11.5 -4.5t4.5 -10.5q0 -16 -16 -16q-6 0 -10.5 4.5t-4.5 11.5q0 6 4.5 10.5t10.5 4.5zM321 507q79 0 143.5 -44t94.5 -115v152h19v-439q0 -119 -59.5 -185t-175.5 -67q-117 0 -208 75l12 13q88 -72 196 -71q217 0 217 236v90q-30 -71 -94.5 -114.5
t-144.5 -43.5q-106 0 -181 75t-75 181t75 181.5t181 75.5zM322 490q-100 0 -169 -69.5t-69 -170.5t69 -170.5t169 -69.5q99 0 168.5 70t69.5 170t-69.5 170t-168.5 70z" />
    <glyph glyph-name="Gcommaaccent" unicode="&#x122;" horiz-adv-x="811" 
d="M436 707q158 0 264 -117l-12 -11q-101 112 -252 112q-141 0 -239.5 -99.5t-98.5 -241.5q0 -143 98.5 -242t239.5 -99q147 0 246 105v217h-256v16h274v-239q-105 -115 -264 -115q-148 0 -252 104.5t-104 252.5t104 252.5t252 104.5zM399 -156h-21l60 87h40z" />
    <glyph glyph-name="gcommaaccent" unicode="&#x123;" horiz-adv-x="678" 
d="M321 507q79 0 143.5 -44t94.5 -115v152h19v-439q0 -119 -59.5 -185t-175.5 -67q-117 0 -208 75l12 13q88 -72 196 -71q217 0 217 236v90q-30 -71 -94.5 -114.5t-144.5 -43.5q-106 0 -181 75t-75 181t75 181.5t181 75.5zM322 490q-100 0 -169 -69.5t-69 -170.5t69 -170.5
t169 -69.5q99 0 168.5 70t69.5 170t-69.5 170t-168.5 70zM284 -337h-21l60 87h40z" />
    <glyph glyph-name="Hbar" unicode="&#x126;" horiz-adv-x="952" 
d="M831 500h-100v-500h-18v349h-474v-349h-18v500h-101v17h101v183h18v-183h474v183h18v-183h100v-17zM713 500h-474v-135h474v135z" />
    <glyph glyph-name="hbar" unicode="&#x127;" horiz-adv-x="753" 
d="M441 507q99 0 158 -60t59 -173v-274h-19v275q0 106 -53 160.5t-145 54.5q-102 0 -164 -70t-62 -189v-231h-18v571h-92v17h92v112h18v-112h90v-17h-90v-220q30 79 94 117.5t132 38.5z" />
    <glyph glyph-name="Imacron" unicode="&#x12a;" horiz-adv-x="485" 
d="M366 750h-246v17h246v-17zM253 16h80v-16h-178v16h80v668h-80v16h178v-16h-80v-668z" />
    <glyph glyph-name="imacron" unicode="&#x12b;" horiz-adv-x="452" 
d="M351 580h-246v17h246v-17zM220 0v500h18v-500h-18z" />
    <glyph glyph-name="Iogonek" unicode="&#x12e;" horiz-adv-x="419" 
d="M219 -82q0 -32 22.5 -49t52.5 -17h2v-17h-2q-38 0 -66 21.5t-28 61.5q0 59 79 82h-159v16h80v668h-80v16h178v-16h-80v-668h80v-16h1q-80 -26 -80 -82z" />
    <glyph glyph-name="iogonek" unicode="&#x12f;" horiz-adv-x="310" 
d="M194 611q7 0 11.5 -4.5t4.5 -10.5q0 -16 -16 -16q-6 0 -10.5 4.5t-4.5 11.5q0 6 4.5 10.5t10.5 4.5zM203 0h1q-80 -26 -80 -82q0 -32 22.5 -49t52.5 -17h3v-17h-3q-38 0 -66 21.5t-28 61.5q0 59 79 82h1v500h18v-500z" />
    <glyph glyph-name="Idotaccent" unicode="&#x130;" horiz-adv-x="419" 
d="M210 750q-6 0 -10.5 4.5t-4.5 10.5q0 7 4.5 11.5t10.5 4.5q16 0 16 -16q0 -6 -4.5 -10.5t-11.5 -4.5zM218 16h80v-16h-178v16h80v668h-80v16h178v-16h-80v-668z" />
    <glyph glyph-name="dotlessi" unicode="&#x131;" horiz-adv-x="224" 
d="M105 0v500h18v-500h-18z" />
    <glyph glyph-name="IJ" unicode="&#x132;" horiz-adv-x="832" 
d="M298 684h-80v-668h80v-16h-178v16h80v668h-80v16h178v-16zM752 700v-480q0 -101 -54 -164t-159 -63q-104 0 -158 63t-54 164v18h18v-17q0 -96 48 -154t146 -58t146.5 58t48.5 154v463h-273v16h291z" />
    <glyph glyph-name="ij" unicode="&#x133;" horiz-adv-x="367" 
d="M120 611q7 0 11.5 -4.5t4.5 -10.5q0 -16 -16 -16q-6 0 -10.5 4.5t-4.5 11.5q0 6 4.5 10.5t10.5 4.5zM251 611q7 0 11.5 -4.5t4.5 -10.5q0 -16 -16 -16q-6 0 -10.5 4.5t-4.5 11.5q0 6 4.5 10.5t10.5 4.5zM130 0h-18v500h18v-500zM261 -184h-18v684h18v-684z" />
    <glyph glyph-name="Kcommaaccent" unicode="&#x136;" horiz-adv-x="691" 
d="M615 700l-142 -216q-54 -82 -75 -102q-15 -14 -32 -22q19 -5 33 -13.5t31.5 -30.5t26 -34t33.5 -52l151 -230h-22l-141 218q-25 39 -34 52t-26.5 34.5t-31.5 27.5t-35 11.5t-50 5.5h-163v-349h-18v700h18v-335h145q29 0 50.5 5.5t35 11.5t31.5 27.5t26.5 34.5l34.5 52
l132 204h22zM304 -156h-21l60 87h40z" />
    <glyph glyph-name="kcommaaccent" unicode="&#x137;" horiz-adv-x="558" 
d="M495 0l-76 120l-34.5 52t-26.5 34.5t-31.5 27.5t-35 11.5t-50.5 5.5h-118v-251h-18v700h18v-433h101q24 0 41.5 2t34 11.5t25 15t25 27.5t23 31.5t28.5 44.5l67 101h22l-76 -114q-3 -5 -13.5 -20.5l-13.5 -20l-11.5 -16.5l-11.5 -16l-10 -13t-11.5 -12.5t-11 -9.5
t-12.5 -9.5t-13 -6.5q15 -4 29 -13t22.5 -16t24 -28t22 -30.5t27.5 -42.5l86 -132h-22zM239 -156h-21l60 87h40z" />
    <glyph glyph-name="Lacute" unicode="&#x139;" horiz-adv-x="590" 
d="M331 750h-21l60 87h40zM540 0h-420v700h18v-684h402v-16z" />
    <glyph glyph-name="lacute" unicode="&#x13a;" horiz-adv-x="306" 
d="M126 750h-21l60 87h40zM127 700h18v-700h-18v700z" />
    <glyph glyph-name="Lcommaaccent" unicode="&#x13b;" horiz-adv-x="590" 
d="M540 0h-420v700h18v-684h402v-16zM281 -156h-21l60 87h40z" />
    <glyph glyph-name="lcommaaccent" unicode="&#x13c;" horiz-adv-x="306" 
d="M165 700h18v-700h-18v700zM126 -156h-21l60 87h40z" />
    <glyph glyph-name="Lcaron" unicode="&#x13d;" horiz-adv-x="590" 
d="M540 0h-420v700h18v-684h402v-16zM461 613h-21l60 87h40z" />
    <glyph glyph-name="lcaron" unicode="&#x13e;" horiz-adv-x="354" 
d="M105 700h18v-700h-18v700zM175 613h-21l60 87h40z" />
    <glyph glyph-name="Ldot" unicode="&#x13f;" horiz-adv-x="590" 
d="M540 0h-420v700h18v-684h402v-16zM520 276q-8 0 -14 6t-6 14t6 14t14 6t14 -6t6 -14t-6 -14t-14 -6z" />
    <glyph glyph-name="ldot" unicode="&#x140;" horiz-adv-x="301" 
d="M105 700h18v-700h-18v700zM180 317q8 0 14 -6t6 -14t-6 -14t-14 -6t-14 6t-6 14t6 14t14 6z" />
    <glyph glyph-name="Lslash" unicode="&#x141;" horiz-adv-x="648" 
d="M598 16v-16h-420v446l-58 -26v21l58 26v233h18v-226l58 26v-21l-58 -26v-437h402z" />
    <glyph glyph-name="lslash" unicode="&#x142;" horiz-adv-x="340" 
d="M239 479l-57 -25v-454h-18v446l-59 -26v21l59 26v233h18v-225l57 25v-21z" />
    <glyph glyph-name="Nacute" unicode="&#x143;" horiz-adv-x="731" 
d="M361 750h-21l60 87h40zM620 0h-6l-486 653v-653h-18v700h6l486 -653v653h18v-700z" />
    <glyph glyph-name="nacute" unicode="&#x144;" horiz-adv-x="656" 
d="M344 580h-21l60 88h40zM344 507q99 0 158 -60t59 -173v-274h-19v275q0 106 -53 160.5t-145 54.5q-102 0 -164 -70t-62 -189v-231h-18v500h19v-149q30 80 93.5 118t131.5 38z" />
    <glyph glyph-name="Ncommaaccent" unicode="&#x145;" horiz-adv-x="731" 
d="M620 0h-6l-486 653v-653h-18v700h6l486 -653v653h18v-700zM316 -156h-21l60 87h40z" />
    <glyph glyph-name="ncommaaccent" unicode="&#x146;" horiz-adv-x="656" 
d="M344 507q99 0 158 -60t59 -173v-274h-19v275q0 106 -53 160.5t-145 54.5q-102 0 -164 -70t-62 -189v-231h-18v500h19v-149q30 80 93.5 118t131.5 38zM306 -156h-21l60 87h40z" />
    <glyph glyph-name="Ncaron" unicode="&#x147;" horiz-adv-x="731" 
d="M354 768l98 76h29l-123 -94h-9l-123 94h29zM620 0h-6l-486 653v-653h-18v700h6l486 -653v653h18v-700z" />
    <glyph glyph-name="ncaron" unicode="&#x148;" horiz-adv-x="656" 
d="M349 580h-9l-123 94h29l99 -75l98 75h29zM344 507q99 0 158 -60t59 -173v-274h-19v275q0 106 -53 160.5t-145 54.5q-102 0 -164 -70t-62 -189v-231h-18v500h19v-149q30 80 93.5 118t131.5 38z" />
    <glyph glyph-name="Eng" unicode="&#x14a;" horiz-adv-x="731" 
d="M620 700v-714q0 -93 -53.5 -136.5t-125.5 -39.5l-12 1l1 15h10q67 0 114.5 37.5t47.5 122.5v31l-474 636v-653h-18v700h6l486 -653v653h18z" />
    <glyph glyph-name="eng" unicode="&#x14b;" horiz-adv-x="656" 
d="M344 507q99 0 158 -60t59 -173v-288q0 -92 -53.5 -136t-125.5 -40l-13 1l2 15h10q67 0 114 37t48 123l-1 289q0 106 -53 160.5t-145 54.5q-102 0 -164 -70t-62 -189v-231h-18v500h19v-149q30 80 93.5 118t131.5 38z" />
    <glyph glyph-name="Omacron" unicode="&#x14c;" horiz-adv-x="874" 
d="M561 750h-246v17h246v-17zM436 707q148 0 252.5 -104.5t104.5 -252.5t-104.5 -252.5t-252.5 -104.5t-252 104.5t-104 252.5t104 252.5t252 104.5zM436 691q-141 0 -239.5 -99.5t-98.5 -241.5q0 -143 98.5 -242t239.5 -99t240 99t99 242q0 142 -99 241.5t-240 99.5z" />
    <glyph glyph-name="omacron" unicode="&#x14d;" 
d="M449 580h-246v17h246v-17zM326 507q106 0 181.5 -75.5t75.5 -181.5t-75 -181t-182 -75q-106 0 -181 75t-75 181q0 107 75 182t181 75zM327 490q-100 0 -169 -69.5t-69 -170.5q0 -100 69 -169.5t169 -69.5q99 0 168.5 69.5t69.5 169.5t-69.5 170t-168.5 70z" />
    <glyph glyph-name="Ohungarumlaut" unicode="&#x150;" horiz-adv-x="874" 
d="M393 750h-21l60 87h40zM494 750h-21l60 87h40zM436 707q148 0 252.5 -104.5t104.5 -252.5t-104.5 -252.5t-252.5 -104.5t-252 104.5t-104 252.5t104 252.5t252 104.5zM436 691q-141 0 -239.5 -99.5t-98.5 -241.5q0 -143 98.5 -242t239.5 -99t240 99t99 242
q0 142 -99 241.5t-240 99.5z" />
    <glyph glyph-name="ohungarumlaut" unicode="&#x151;" 
d="M276 580h-21l60 88h40zM378 580h-21l60 88h40zM326 507q106 0 181.5 -75.5t75.5 -181.5t-75 -181t-182 -75q-106 0 -181 75t-75 181q0 107 75 182t181 75zM327 490q-100 0 -169 -69.5t-69 -170.5q0 -100 69 -169.5t169 -69.5q99 0 168.5 69.5t69.5 169.5t-69.5 170
t-168.5 70z" />
    <glyph glyph-name="OE" unicode="&#x152;" horiz-adv-x="1255" 
d="M793 364h384v-16h-384v-332h401v-16h-419v234q-37 -107 -130 -174t-209 -67q-148 0 -252 104.5t-104 252.5t104 252.5t252 104.5q116 0 209 -67t130 -174v234h419v-16h-401v-320zM436 9q141 0 240 99t99 242q0 142 -99 241.5t-240 99.5t-239.5 -99.5t-98.5 -241.5
q0 -143 98.5 -242t239.5 -99z" />
    <glyph glyph-name="oe" unicode="&#x153;" horiz-adv-x="1128" 
d="M821 507q82 0 142.5 -43t86.5 -114q8 -23 11 -53t-1 -46h-477q0 -111 68.5 -175.5t181.5 -64.5q109 -1 195 71l12 -13q-91 -75 -207 -75q-99 1 -168.5 49.5t-91.5 133.5q-24 -81 -92 -132t-155 -51q-106 0 -181 75t-75 181q0 107 75 182t181 75q87 0 155.5 -52t91.5 -134
q23 83 90 134.5t158 51.5zM327 490q-100 0 -169 -69.5t-69 -170.5q0 -100 69 -169.5t169 -69.5q99 0 168.5 69.5t69.5 169.5t-69.5 170t-168.5 70zM821 490q-99 0 -165 -63.5t-72 -158.5h461q2 41 -11 76q-25 67 -80.5 106.5t-132.5 39.5z" />
    <glyph glyph-name="Racute" unicode="&#x154;" horiz-adv-x="682" 
d="M331 750h-21l60 87h40zM120 700h211q129 0 215 -61t86 -179q0 -93 -56.5 -151.5t-149.5 -78.5q69 -20 126 -108l80 -122h-22l-70 109q-44 69 -85.5 90.5t-107.5 21.5h-209v-221h-18v700zM138 684v-447h193q123 0 203 56t80 167q0 112 -80 168t-203 56h-193z" />
    <glyph glyph-name="racute" unicode="&#x155;" horiz-adv-x="421" 
d="M233 580h-21l60 88h40zM380 490h-6q-134 0 -195 -79.5t-61 -207.5v-203h-18v500h19v-161q29 85 96 126.5t161 41.5h4v-17z" />
    <glyph glyph-name="Rcommaaccent" unicode="&#x156;" horiz-adv-x="682" 
d="M120 700h211q129 0 215 -61t86 -179q0 -93 -56.5 -151.5t-149.5 -78.5q69 -20 126 -108l80 -122h-22l-70 109q-44 69 -85.5 90.5t-107.5 21.5h-209v-221h-18v700zM138 684v-447h193q123 0 203 56t80 167q0 112 -80 168t-203 56h-193zM293 -156h-21l60 87h40z" />
    <glyph glyph-name="rcommaaccent" unicode="&#x157;" horiz-adv-x="421" 
d="M380 490h-6q-134 0 -195 -79.5t-61 -207.5v-203h-18v500h19v-161q29 85 96 126.5t161 41.5h4v-17zM189 -156h-21l60 87h40z" />
    <glyph glyph-name="Rcaron" unicode="&#x158;" horiz-adv-x="682" 
d="M358 750h-9l-123 94h29l99 -76l98 76h29zM120 700h211q129 0 215 -61t86 -179q0 -93 -56.5 -151.5t-149.5 -78.5q69 -20 126 -108l80 -122h-22l-70 109q-44 69 -85.5 90.5t-107.5 21.5h-209v-221h-18v700zM138 684v-447h193q123 0 203 56t80 167q0 112 -80 168t-203 56
h-193z" />
    <glyph glyph-name="rcaron" unicode="&#x159;" horiz-adv-x="421" 
d="M241 580h-9l-123 94h29l99 -75l98 75h29zM380 490h-6q-134 0 -195 -79.5t-61 -207.5v-203h-18v500h19v-161q29 85 96 126.5t161 41.5h4v-17z" />
    <glyph glyph-name="Sacute" unicode="&#x15a;" horiz-adv-x="637" 
d="M302 750h-21l60 87h40zM302 707h13q77 0 139.5 -30t95.5 -87l-12 -11q-33 54 -91.5 83t-131.5 29h-13q-83 0 -144 -45t-61 -120q0 -60 40.5 -93.5t142.5 -47.5l95 -13q104 -14 152.5 -58t48.5 -126q0 -86 -72 -140.5t-171 -54.5h-5q-103 0 -173 43.5t-95 120.5l12 10
q25 -75 90.5 -116.5t165.5 -41.5h5q92 0 158.5 49t66.5 130q0 75 -43 114.5t-139 52.5l-96 13q-109 15 -155 53t-46 105q0 80 67.5 130.5t155.5 50.5z" />
    <glyph glyph-name="sacute" unicode="&#x15b;" horiz-adv-x="546" 
d="M271 580h-21l60 88h40zM265 507h15q51 0 104 -26t80 -67l-13 -12q-25 39 -74 63.5t-97 24.5h-9q-70 0 -116.5 -30.5t-46.5 -80.5q0 -41 26 -66.5t106 -34.5l84 -9q31 -4 52.5 -9.5t47 -19.5t38.5 -41t13 -66q0 -66 -55 -103t-134 -37h-10q-68 0 -126 29.5t-80 75.5l13 12
q19 -44 73.5 -72t119.5 -28h4q75 0 126 31.5t51 91.5q0 36 -11.5 60t-34 35t-40.5 15.5t-46 7.5l-85 10q-85 10 -118 40.5t-33 78.5q0 58 51 92.5t125 34.5z" />
    <glyph glyph-name="Scedilla" unicode="&#x15e;" horiz-adv-x="637" 
d="M327 -7l-9 -44q31 8 52.5 -8t21.5 -49q0 -37 -35.5 -51t-73.5 10v20q31 -24 60.5 -16t29.5 37q0 28 -21.5 37.5t-57.5 -4.5l15 68q-96 4 -161 47.5t-88 116.5l12 10q25 -75 90.5 -116.5t165.5 -41.5h5q92 0 158.5 49t66.5 130q0 75 -43 114.5t-139 52.5l-96 13
q-109 15 -155 53t-46 105q0 80 67.5 130.5t155.5 50.5h13q77 0 139.5 -30t95.5 -87l-12 -11q-33 54 -91.5 83t-131.5 29h-13q-83 0 -144 -45t-61 -120q0 -60 40.5 -93.5t142.5 -47.5l95 -13q104 -14 152.5 -58t48.5 -126q0 -86 -72 -140.5t-171 -54.5h-6z" />
    <glyph glyph-name="scedilla" unicode="&#x15f;" horiz-adv-x="546" 
d="M285 -7l-9 -44q31 8 52.5 -8t21.5 -49q0 -37 -35.5 -51t-73.5 10v20q31 -24 60.5 -16t29.5 37q0 28 -21.5 37.5t-57.5 -4.5l15 68q-66 2 -121 31.5t-76 73.5l13 12q19 -44 73.5 -72t119.5 -28h4q75 0 126 31.5t51 91.5q0 36 -11.5 60t-34 35t-40.5 15.5t-46 7.5l-85 10
q-85 10 -118 40.5t-33 78.5q0 58 51 92.5t125 34.5h15q51 0 104 -26t80 -67l-13 -12q-25 39 -74 63.5t-97 24.5h-9q-70 0 -116.5 -30.5t-46.5 -80.5q0 -41 26 -66.5t106 -34.5l84 -9q31 -4 52.5 -9.5t47 -19.5t38.5 -41t13 -66q0 -66 -55 -103t-135 -37z" />
    <glyph glyph-name="Scaron" unicode="&#x160;" horiz-adv-x="637" 
d="M313 750h-9l-123 94h29l99 -76l98 76h29zM302 707h13q77 0 139.5 -30t95.5 -87l-12 -11q-33 54 -91.5 83t-131.5 29h-13q-83 0 -144 -45t-61 -120q0 -60 40.5 -93.5t142.5 -47.5l95 -13q104 -14 152.5 -58t48.5 -126q0 -86 -72 -140.5t-171 -54.5h-5q-103 0 -173 43.5
t-95 120.5l12 10q25 -75 90.5 -116.5t165.5 -41.5h5q92 0 158.5 49t66.5 130q0 75 -43 114.5t-139 52.5l-96 13q-109 15 -155 53t-46 105q0 80 67.5 130.5t155.5 50.5z" />
    <glyph glyph-name="scaron" unicode="&#x161;" horiz-adv-x="546" 
d="M276 580h-9l-123 94h29l99 -75l98 75h29zM265 507h15q51 0 104 -26t80 -67l-13 -12q-25 39 -74 63.5t-97 24.5h-9q-70 0 -116.5 -30.5t-46.5 -80.5q0 -41 26 -66.5t106 -34.5l84 -9q31 -4 52.5 -9.5t47 -19.5t38.5 -41t13 -66q0 -66 -55 -103t-134 -37h-10
q-68 0 -126 29.5t-80 75.5l13 12q19 -44 73.5 -72t119.5 -28h4q75 0 126 31.5t51 91.5q0 36 -11.5 60t-34 35t-40.5 15.5t-46 7.5l-85 10q-85 10 -118 40.5t-33 78.5q0 58 51 92.5t125 34.5z" />
    <glyph glyph-name="Tcedilla" unicode="&#x162;" horiz-adv-x="601" 
d="M309 684v-684h1l-11 -51q31 8 52.5 -8t21.5 -49q0 -37 -35.5 -51t-73.5 10v20q31 -24 60.5 -16t29.5 37q0 28 -21.5 37.5t-57.5 -4.5l16 75v684h-241v16h500v-16h-241z" />
    <glyph glyph-name="tcedilla" unicode="&#x163;" horiz-adv-x="310" 
d="M168 484v-484h2l-11 -51q31 8 52.5 -8t21.5 -49q0 -37 -35.5 -51t-73.5 10v20q31 -24 60.5 -16t29.5 37q0 28 -21.5 37.5t-57.5 -4.5l16 75h-1v484h-80v16h80v168h18v-168h81v-16h-81z" />
    <glyph glyph-name="Tcaron" unicode="&#x164;" horiz-adv-x="601" 
d="M305 750h-9l-123 94h29l99 -76l98 76h29zM309 684v-684h-18v684h-241v16h500v-16h-241z" />
    <glyph glyph-name="tcaron" unicode="&#x165;" horiz-adv-x="386" 
d="M247 613h-21l60 87h40zM168 484v-484h-18v484h-80v16h80v168h18v-168h81v-16h-81z" />
    <glyph glyph-name="Tbar" unicode="&#x166;" horiz-adv-x="601" 
d="M309 684v-302h114v-17h-114v-365h-18v365h-114v17h114v302h-241v16h500v-16h-241z" />
    <glyph glyph-name="tbar" unicode="&#x167;" horiz-adv-x="310" 
d="M168 484v-133h81v-17h-81v-334h-18v334h-80v17h80v133h-80v16h80v168h18v-168h81v-16h-81z" />
    <glyph glyph-name="Umacron" unicode="&#x16a;" horiz-adv-x="804" 
d="M530 750h-246v17h246v-17zM693 700v-391q0 -141 -75 -228.5t-212 -87.5t-211.5 87.5t-74.5 228.5v391h18v-391q0 -136 69 -218t199 -82t199.5 82t69.5 218v391h18z" />
    <glyph glyph-name="umacron" unicode="&#x16b;" horiz-adv-x="651" 
d="M437 580h-246v17h246v-17zM556 0h-19v149q-30 -79 -94 -117.5t-131 -38.5q-99 0 -158 60t-59 173v274h18v-275q0 -106 53 -160.5t146 -54.5q102 0 164 70t62 189v231h18v-500z" />
    <glyph glyph-name="Uring" unicode="&#x16e;" horiz-adv-x="804" 
d="M406 892q29 0 50 -21t21 -49q0 -30 -21 -51t-50 -21q-30 0 -50 21t-20 51q0 28 20.5 49t49.5 21zM406 874q-22 0 -36 -15.5t-14 -36.5q0 -23 13.5 -38.5t36.5 -15.5t37.5 16t14.5 38q0 21 -14.5 36.5t-37.5 15.5zM693 700v-391q0 -141 -75 -228.5t-212 -87.5t-211.5 87.5
t-74.5 228.5v391h18v-391q0 -136 69 -218t199 -82t199.5 82t69.5 218v391h18z" />
    <glyph glyph-name="uring" unicode="&#x16f;" horiz-adv-x="651" 
d="M312 722q29 0 50 -20.5t21 -49.5q0 -30 -21 -51t-50 -21q-30 0 -50 21t-20 51q0 29 20 49.5t50 20.5zM311 705q-22 0 -36 -16t-14 -37q0 -23 13.5 -38.5t36.5 -15.5t37.5 16t14.5 38q0 21 -15 37t-37 16zM556 0h-19v149q-30 -79 -94 -117.5t-131 -38.5q-99 0 -158 60
t-59 173v274h18v-275q0 -106 53 -160.5t146 -54.5q102 0 164 70t62 189v231h18v-500z" />
    <glyph glyph-name="Uhungarumlaut" unicode="&#x170;" horiz-adv-x="804" 
d="M326 750h-21l60 87h40zM427 750h-21l60 87h40zM693 700v-391q0 -141 -75 -228.5t-212 -87.5t-211.5 87.5t-74.5 228.5v391h18v-391q0 -136 69 -218t199 -82t199.5 82t69.5 218v391h18z" />
    <glyph glyph-name="uhungarumlaut" unicode="&#x171;" horiz-adv-x="651" 
d="M253 580h-21l60 88h40zM355 580h-21l60 88h40zM556 0h-19v149q-30 -79 -94 -117.5t-131 -38.5q-99 0 -158 60t-59 173v274h18v-275q0 -106 53 -160.5t146 -54.5q102 0 164 70t62 189v231h18v-500z" />
    <glyph glyph-name="Uogonek" unicode="&#x172;" horiz-adv-x="804" 
d="M693 700v-391q0 -125 -60 -209.5t-171 -102.5q-72 -26 -72 -79q0 -32 22.5 -49t52.5 -17h2v-17h-2q-38 0 -66 21.5t-28 61.5q0 52 61 76q-8 -1 -26 -1q-137 0 -211.5 87.5t-74.5 228.5v391h18v-391q0 -136 69 -218t199 -82t199.5 82t69.5 218v391h18z" />
    <glyph glyph-name="uogonek" unicode="&#x173;" horiz-adv-x="651" 
d="M556 500v-500q-80 -26 -80 -82q0 -32 22.5 -49t52.5 -17h2v-17h-2q-38 0 -66 21.5t-28 61.5q0 59 79 82h1v149q-30 -79 -94 -117.5t-131 -38.5q-99 0 -158 60t-59 173v274h18v-275q0 -106 53 -160.5t146 -54.5q102 0 164 70t62 189v231h18z" />
    <glyph glyph-name="Wcircumflex" unicode="&#x174;" horiz-adv-x="1202" 
d="M699 750l-98 76l-99 -76h-29l123 94h9l123 -94h-29zM879 0h-6l-272 661l-272 -661h-6l-273 700h19l257 -661l272 661h6l272 -661l257 661h19z" />
    <glyph glyph-name="wcircumflex" unicode="&#x175;" horiz-adv-x="935" 
d="M566 580l-98 76l-99 -76h-29l123 94h9l123 -94h-29zM680 0h-5l-208 462l-207 -462h-6l-214 500h19l198 -462l209 462h3l208 -462l199 462h19z" />
    <glyph glyph-name="Ycircumflex" unicode="&#x176;" horiz-adv-x="685" 
d="M441 750l-98 76l-99 -76h-29l123 94h9l123 -94h-29zM351 0h-18v245l-283 455h21l272 -436l271 436h21l-284 -454v-246z" />
    <glyph glyph-name="ycircumflex" unicode="&#x177;" horiz-adv-x="656" 
d="M321 674l123 -94h-29l-98 76l-99 -76h-29l123 94h9zM118 500v-275q0 -106 53 -160.5t146 -54.5q102 0 164 70t62 189v231h18v-439q0 -119 -59.5 -185t-175.5 -67q-117 0 -208 75l12 13q88 -72 196 -71q217 0 217 236v87q-30 -79 -94 -117.5t-132 -38.5q-99 0 -158 60
t-59 172v275h18z" />
    <glyph glyph-name="Ydieresis" unicode="&#x178;" horiz-adv-x="685" 
d="M243 750q-6 0 -10.5 4.5t-4.5 10.5q0 7 4.5 11.5t10.5 4.5q16 0 16 -16q0 -6 -4.5 -10.5t-11.5 -4.5zM442 750q-6 0 -10.5 4.5t-4.5 10.5q0 7 4.5 11.5t10.5 4.5q16 0 16 -16q0 -6 -4.5 -10.5t-11.5 -4.5zM351 0h-18v245l-283 455h21l272 -436l271 436h21l-284 -454v-246
z" />
    <glyph glyph-name="Zacute" unicode="&#x179;" horiz-adv-x="630" 
d="M295 750h-21l60 87h40zM570 0h-510v4l473 680h-433v16h464v-4l-474 -680h480v-16z" />
    <glyph glyph-name="zacute" unicode="&#x17a;" horiz-adv-x="582" 
d="M271 580h-21l60 88h40zM512 0h-442v3l395 481h-360v16h393v-3l-395 -481h409v-16z" />
    <glyph glyph-name="Zdotaccent" unicode="&#x17b;" horiz-adv-x="630" 
d="M311 750q-6 0 -10.5 4.5t-4.5 10.5q0 7 4.5 11.5t10.5 4.5q16 0 16 -16q0 -6 -4.5 -10.5t-11.5 -4.5zM570 0h-510v4l473 680h-433v16h464v-4l-474 -680h480v-16z" />
    <glyph glyph-name="zdotaccent" unicode="&#x17c;" horiz-adv-x="582" 
d="M284 580q-6 0 -10.5 4.5t-4.5 11.5q0 6 4.5 10.5t10.5 4.5q7 0 11.5 -4.5t4.5 -10.5q0 -16 -16 -16zM512 0h-442v3l395 481h-360v16h393v-3l-395 -481h409v-16z" />
    <glyph glyph-name="Zcaron" unicode="&#x17d;" horiz-adv-x="630" 
d="M325 750h-9l-123 94h29l99 -76l98 76h29zM570 0h-510v4l473 680h-433v16h464v-4l-474 -680h480v-16z" />
    <glyph glyph-name="zcaron" unicode="&#x17e;" horiz-adv-x="582" 
d="M301 580h-9l-123 94h29l99 -75l98 75h29zM498 497l-395 -481h409v-16h-442v3l395 481h-360v16h393v-3z" />
    <glyph glyph-name="Acaron" unicode="&#x1cd;" horiz-adv-x="692" 
d="M350 750h-9l-123 94h29l99 -76l98 76h29zM642 0h-19l-102 244h-350l-102 -244h-19l293 700h6zM178 260h337l-169 402z" />
    <glyph glyph-name="acaron" unicode="&#x1ce;" horiz-adv-x="684" 
d="M331 580h-9l-123 94h29l99 -75l98 75h29zM584 0h-19v154q-29 -71 -94 -115.5t-145 -44.5q-106 0 -181 75t-75 181t75 181.5t181 75.5q80 0 145 -44.5t94 -116.5v154h19v-500zM327 11q99 0 168.5 69.5t69.5 169.5t-69.5 170t-168.5 70q-100 0 -169 -69.5t-69 -170.5
q0 -100 69 -169.5t169 -69.5z" />
    <glyph glyph-name="Icaron" unicode="&#x1cf;" horiz-adv-x="495" 
d="M252 750h-9l-123 94h29l99 -76l98 76h29zM336 684h-80v-668h80v-16h-178v16h80v668h-80v16h178v-16z" />
    <glyph glyph-name="icaron" unicode="&#x1d0;" horiz-adv-x="461" 
d="M237 580h-9l-123 94h30l98 -75l98 75h29zM241 0h-18v500h18v-500z" />
    <glyph glyph-name="Ocaron" unicode="&#x1d1;" horiz-adv-x="874" 
d="M441 750h-9l-123 94h29l99 -76l98 76h29zM436 707q148 0 252.5 -104.5t104.5 -252.5t-104.5 -252.5t-252.5 -104.5t-252 104.5t-104 252.5t104 252.5t252 104.5zM436 691q-141 0 -239.5 -99.5t-98.5 -241.5q0 -143 98.5 -242t239.5 -99t240 99t99 242q0 142 -99 241.5
t-240 99.5z" />
    <glyph glyph-name="ocaron" unicode="&#x1d2;" 
d="M331 580h-9l-123 94h29l99 -75l98 75h29zM326 507q106 0 181.5 -75.5t75.5 -181.5t-75 -181t-182 -75q-106 0 -181 75t-75 181q0 107 75 182t181 75zM327 490q-100 0 -169 -69.5t-69 -170.5q0 -100 69 -169.5t169 -69.5q99 0 168.5 69.5t69.5 169.5t-69.5 170t-168.5 70z
" />
    <glyph glyph-name="Ucaron" unicode="&#x1d3;" horiz-adv-x="804" 
d="M411 750h-9l-123 94h29l99 -76l98 76h29zM693 700v-391q0 -141 -75 -228.5t-212 -87.5t-211.5 87.5t-74.5 228.5v391h18v-391q0 -136 69 -218t199 -82t199.5 82t69.5 218v391h18z" />
    <glyph glyph-name="ucaron" unicode="&#x1d4;" horiz-adv-x="651" 
d="M316 580h-9l-123 94h29l99 -75l98 75h29zM556 0h-19v149q-30 -79 -94 -117.5t-131 -38.5q-99 0 -158 60t-59 173v274h18v-275q0 -106 53 -160.5t146 -54.5q102 0 164 70t62 189v231h18v-500z" />
    <glyph glyph-name="Udieresismacron" unicode="&#x1d5;" horiz-adv-x="804" 
d="M530 817h-246v17h246v-17zM308 750q-6 0 -10.5 4.5t-4.5 10.5q0 7 4.5 11.5t10.5 4.5q16 0 16 -16q0 -6 -4.5 -10.5t-11.5 -4.5zM508 750q-6 0 -10.5 4.5t-4.5 10.5q0 7 4.5 11.5t10.5 4.5q16 0 16 -16q0 -6 -4.5 -10.5t-11.5 -4.5zM693 700v-391q0 -141 -75 -228.5
t-212 -87.5t-211.5 87.5t-74.5 228.5v391h18v-391q0 -136 69 -218t199 -82t199.5 82t69.5 218v391h18z" />
    <glyph glyph-name="udieresismacron" unicode="&#x1d6;" horiz-adv-x="651" 
d="M445 640h-246v17h246v-17zM220 611q7 0 11.5 -4.5t4.5 -10.5q0 -16 -16 -16q-6 0 -10.5 4.5t-4.5 11.5q0 6 4.5 10.5t10.5 4.5zM420 611q7 0 11.5 -4.5t4.5 -10.5q0 -16 -16 -16q-6 0 -10.5 4.5t-4.5 11.5q0 6 4.5 10.5t10.5 4.5zM556 0h-19v149q-30 -79 -94 -117.5
t-131 -38.5q-99 0 -158 60t-59 173v274h18v-275q0 -106 53 -160.5t146 -54.5q102 0 164 70t62 189v231h18v-500z" />
    <glyph glyph-name="Udieresisacute" unicode="&#x1d7;" horiz-adv-x="804" 
d="M408 818h-21l60 87h40zM308 750q-6 0 -10.5 4.5t-4.5 10.5q0 7 4.5 11.5t10.5 4.5q16 0 16 -16q0 -6 -4.5 -10.5t-11.5 -4.5zM508 750q-6 0 -10.5 4.5t-4.5 10.5q0 7 4.5 11.5t10.5 4.5q16 0 16 -16q0 -6 -4.5 -10.5t-11.5 -4.5zM693 700v-391q0 -141 -75 -228.5
t-212 -87.5t-211.5 87.5t-74.5 228.5v391h18v-391q0 -136 69 -218t199 -82t199.5 82t69.5 218v391h18z" />
    <glyph glyph-name="udieresisacute" unicode="&#x1d8;" horiz-adv-x="651" 
d="M312 640h-21l60 88h40zM220 611q16 0 16 -16q0 -6 -4.5 -10.5t-11.5 -4.5q-6 0 -10.5 4.5t-4.5 10.5q0 7 4.5 11.5t10.5 4.5zM420 611q16 0 16 -16q0 -6 -4.5 -10.5t-11.5 -4.5q-6 0 -10.5 4.5t-4.5 10.5q0 7 4.5 11.5t10.5 4.5zM556 0h-19v149q-30 -79 -94 -117.5
t-131 -38.5q-99 0 -158 60t-59 173v274h18v-275q0 -106 53 -160.5t146 -54.5q102 0 164 70t62 189v231h18v-500z" />
    <glyph glyph-name="Udieresiscaron" unicode="&#x1d9;" horiz-adv-x="804" 
d="M407 836l98 75h29l-123 -94h-9l-123 94h29zM308 781q16 0 16 -16q0 -6 -4.5 -10.5t-11.5 -4.5q-6 0 -10.5 4.5t-4.5 10.5q0 7 4.5 11.5t10.5 4.5zM508 781q16 0 16 -16q0 -6 -4.5 -10.5t-11.5 -4.5q-6 0 -10.5 4.5t-4.5 10.5q0 7 4.5 11.5t10.5 4.5zM693 700v-391
q0 -141 -75 -228.5t-212 -87.5t-211.5 87.5t-74.5 228.5v391h18v-391q0 -136 69 -218t199 -82t199.5 82t69.5 218v391h18z" />
    <glyph glyph-name="udieresiscaron" unicode="&#x1da;" horiz-adv-x="651" 
d="M316 640h-9l-123 95h29l99 -76l98 76h29zM220 611q7 0 11.5 -4.5t4.5 -10.5q0 -16 -16 -16q-6 0 -10.5 4.5t-4.5 11.5q0 6 4.5 10.5t10.5 4.5zM420 611q7 0 11.5 -4.5t4.5 -10.5q0 -16 -16 -16q-6 0 -10.5 4.5t-4.5 11.5q0 6 4.5 10.5t10.5 4.5zM556 0h-19v149
q-30 -79 -94 -117.5t-131 -38.5q-99 0 -158 60t-59 173v274h18v-275q0 -106 53 -160.5t146 -54.5q102 0 164 70t62 189v231h18v-500z" />
    <glyph glyph-name="Udieresisgrave" unicode="&#x1db;" horiz-adv-x="804" 
d="M366 905l60 -88h-21l-79 88h40zM308 750q-6 0 -10.5 4.5t-4.5 10.5q0 7 4.5 11.5t10.5 4.5q16 0 16 -16q0 -6 -4.5 -10.5t-11.5 -4.5zM508 750q-6 0 -10.5 4.5t-4.5 10.5q0 7 4.5 11.5t10.5 4.5q16 0 16 -16q0 -6 -4.5 -10.5t-11.5 -4.5zM693 700v-391q0 -141 -75 -228.5
t-212 -87.5t-211.5 87.5t-74.5 228.5v391h18v-391q0 -136 69 -218t199 -82t199.5 82t69.5 218v391h18z" />
    <glyph glyph-name="udieresisgrave" unicode="&#x1dc;" horiz-adv-x="651" 
d="M333 640h-21l-79 88h40zM220 611q7 0 11.5 -4.5t4.5 -10.5q0 -16 -16 -16q-6 0 -10.5 4.5t-4.5 11.5q0 6 4.5 10.5t10.5 4.5zM420 611q7 0 11.5 -4.5t4.5 -10.5q0 -16 -16 -16q-6 0 -10.5 4.5t-4.5 11.5q0 6 4.5 10.5t10.5 4.5zM556 0h-19v149q-30 -79 -94 -117.5
t-131 -38.5q-99 0 -158 60t-59 173v274h18v-275q0 -106 53 -160.5t146 -54.5q102 0 164 70t62 189v231h18v-500z" />
    <glyph glyph-name="Scommaaccent" unicode="&#x218;" horiz-adv-x="637" 
d="M302 707h13q77 0 139.5 -30t95.5 -87l-12 -11q-33 54 -91.5 83t-131.5 29h-13q-83 0 -144 -45t-61 -120q0 -60 40.5 -93.5t142.5 -47.5l95 -13q104 -14 152.5 -58t48.5 -126q0 -86 -72 -140.5t-171 -54.5h-5q-103 0 -173 43.5t-95 120.5l12 10q25 -75 90.5 -116.5
t165.5 -41.5h5q92 0 158.5 49t66.5 130q0 75 -43 114.5t-139 52.5l-96 13q-109 15 -155 53t-46 105q0 80 67.5 130.5t155.5 50.5zM290 -156h-21l60 87h40z" />
    <glyph glyph-name="scommaaccent" unicode="&#x219;" horiz-adv-x="546" 
d="M265 507h15q51 0 104 -26t80 -67l-13 -12q-25 39 -74 63.5t-97 24.5h-9q-70 0 -116.5 -30.5t-46.5 -80.5q0 -41 26 -66.5t106 -34.5l84 -9q31 -4 52.5 -9.5t47 -19.5t38.5 -41t13 -66q0 -66 -55 -103t-134 -37h-10q-68 0 -126 29.5t-80 75.5l13 12q19 -44 73.5 -72
t119.5 -28h4q75 0 126 31.5t51 91.5q0 36 -11.5 60t-34 35t-40.5 15.5t-46 7.5l-85 10q-85 10 -118 40.5t-33 78.5q0 58 51 92.5t125 34.5zM239 -156h-21l60 87h40z" />
    <glyph glyph-name="uni021A" unicode="&#x21a;" horiz-adv-x="601" 
d="M309 684v-684h-18v684h-241v16h500v-16h-241zM273 -156h-21l60 87h40z" />
    <glyph glyph-name="uni021B" unicode="&#x21b;" horiz-adv-x="310" 
d="M168 484v-484h-18v484h-80v16h80v168h18v-168h81v-16h-81zM112 -156h-21l60 87h40z" />
    <glyph glyph-name="circumflex" unicode="&#x2c6;" horiz-adv-x="396" 
d="M296 605l-98 76l-99 -76h-29l123 94h9l123 -94h-29z" />
    <glyph glyph-name="caron" unicode="&#x2c7;" horiz-adv-x="396" 
d="M202 605h-9l-123 94h29l99 -75l98 75h29z" />
    <glyph glyph-name="breve" unicode="&#x2d8;" horiz-adv-x="399" 
d="M311 699h17q0 -46 -37.5 -77t-91.5 -31q-55 0 -92 31t-37 77h17q0 -39 32 -64.5t80 -25.5t80 25.5t32 64.5z" />
    <glyph glyph-name="dotaccent" unicode="&#x2d9;" horiz-adv-x="171" 
d="M85 676q-6 0 -10.5 4.5t-4.5 10.5q0 7 4.5 11.5t10.5 4.5q16 0 16 -16q0 -6 -4.5 -10.5t-11.5 -4.5z" />
    <glyph glyph-name="ring" unicode="&#x2da;" horiz-adv-x="282" 
d="M140 707q29 0 50 -21t21 -49q0 -30 -21 -51t-50 -21q-30 0 -50 21t-20 51q0 28 20.5 49t49.5 21zM140 689q-22 0 -36 -16t-14 -37q0 -22 14 -38t36 -16q23 0 37.5 16t14.5 38q0 21 -15 37t-37 16z" />
    <glyph glyph-name="ogonek" unicode="&#x2db;" horiz-adv-x="239" 
d="M149 0h20q-80 -26 -80 -82q0 -32 22.5 -49t52.5 -17h2v-17h-2q-38 0 -66 21.5t-28 61.5q0 59 79 82z" />
    <glyph glyph-name="tilde" unicode="&#x2dc;" horiz-adv-x="407" 
d="M337 700l-10 -33q-20 -63 -63 -63q-27 0 -48 24l-38 43q-16 16 -35 16q-18 0 -28 -11.5t-18 -38.5l-7 -27h-20l10 34q20 63 63 63q26 0 48 -24l38 -43q17 -17 35 -17t28 12t18 38l7 27h20z" />
    <glyph glyph-name="hungarumlaut" unicode="&#x2dd;" horiz-adv-x="342" 
d="M91 612h-21l60 87h40zM192 612h-21l60 87h40z" />
    <glyph glyph-name="commaaccentcomb" unicode="&#x326;" horiz-adv-x="0" 
d="M91 -250h-21l60 87h40z" />
    <glyph glyph-name="uni0401" unicode="&#x401;" horiz-adv-x="600" 
d="M224 750q-6 0 -10.5 4.5t-4.5 10.5q0 7 4.5 11.5t10.5 4.5q16 0 16 -16q0 -6 -4.5 -10.5t-11.5 -4.5zM424 750q-6 0 -10.5 4.5t-4.5 10.5q0 7 4.5 11.5t10.5 4.5q16 0 16 -16q0 -6 -4.5 -10.5t-11.5 -4.5zM138 364h384v-16h-384v-332h401v-16h-419v700h419v-16h-401v-320
z" />
    <glyph glyph-name="uni0410" unicode="&#x410;" horiz-adv-x="692" 
d="M171 244l-102 -244h-19l293 700h6l293 -700h-19l-102 244h-350zM346 662l-168 -402h337z" />
    <glyph glyph-name="uni0411" unicode="&#x411;" horiz-adv-x="692" 
d="M138 403h265q113 0 171 -52t58 -149q0 -99 -54.5 -150.5t-174.5 -51.5h-283v700h419v-16h-401v-281zM138 16h265q114 0 162 46t48 140q0 185 -210 185h-265v-371z" />
    <glyph glyph-name="uni0412" unicode="&#x412;" horiz-adv-x="692" 
d="M120 700h238q68 0 114.5 -13.5t70 -39t33 -54t9.5 -66.5q0 -123 -120 -158q82 -13 124.5 -60.5t42.5 -121.5q0 -187 -228 -187h-284v700zM138 684v-311h220q117 0 163 42t46 113q0 35 -7.5 60t-28.5 48.5t-64.5 35.5t-108.5 12h-220zM138 357v-341h265q113 0 162 43.5
t49 127.5q0 81 -52.5 125.5t-158.5 44.5h-265z" />
    <glyph glyph-name="uni0413" unicode="&#x413;" horiz-adv-x="590" 
d="M138 684v-684h-18v700h420v-16h-402z" />
    <glyph glyph-name="uni0414" unicode="&#x414;" horiz-adv-x="816" 
d="M787 -129h-18v129h-721v-129h-18v145h89l286 684h6l286 -684h90v-145zM408 662l-270 -646h541z" />
    <glyph glyph-name="uni0415" unicode="&#x415;" horiz-adv-x="600" 
d="M138 364h384v-16h-384v-332h401v-16h-419v700h419v-16h-401v-320z" />
    <glyph glyph-name="uni0416" unicode="&#x416;" horiz-adv-x="1045" 
d="M973 0l-141 218q-25 39 -34 52t-26.5 34.5t-31.5 27.5t-35 11.5t-50 5.5h-123v-349h-18v349h-124q-29 0 -50 -5.5t-35 -11.5t-31.5 -27.5t-26.5 -34.5t-34 -52l-141 -218h-22l151 230q25 40 33.5 52t26 34t31.5 30.5t33 13.5q-25 11 -46 36t-53 75q-5 9 -8 13l-142 216
h22l132 -204q25 -39 34 -52t26.5 -34.5t31.5 -27.5t35 -11.5t50 -5.5h107v335h18v-335h106q29 0 50 5.5t35 11.5t31.5 27.5t26.5 34.5t34 52l132 204h22l-142 -216l-12.5 -19t-11.5 -18t-10 -15.5t-10.5 -15l-9.5 -12.5t-10 -12t-10 -9.5t-10.5 -9t-10.5 -7t-12 -6.5
q25 -7 47 -26.5t33.5 -36t44.5 -67.5l150 -230h-22z" />
    <glyph glyph-name="uni0417" unicode="&#x417;" horiz-adv-x="630" 
d="M215 373h102q117 0 163 41.5t46 112.5q0 74 -50 119t-154 45h-8q-73 0 -131.5 -29t-91.5 -83l-12 11q33 57 95.5 87t139.5 30h8q111 0 166.5 -50.5t55.5 -129.5q0 -127 -128 -160q76 -16 115 -62.5t39 -117.5q0 -90 -67 -142t-179 -52h-6q-103 0 -173 43.5t-95 120.5
l12 11q25 -76 90.5 -117.5t165.5 -41.5h5q107 0 168 47t61 131q0 81 -52.5 125.5t-157.5 44.5h-127v16z" />
    <glyph glyph-name="uni0418" unicode="&#x418;" horiz-adv-x="731" 
d="M620 0h-18v653l-486 -653h-6v700h18v-653l486 653h6v-700z" />
    <glyph glyph-name="uni0419" unicode="&#x419;" horiz-adv-x="731" 
d="M366 750q-55 0 -92 31t-37 77h17q0 -39 32.5 -65t79.5 -26t79.5 26t32.5 65h17q0 -46 -37.5 -77t-91.5 -31zM620 0h-18v653l-486 -653h-6v700h18v-653l486 653h6v-700z" />
    <glyph glyph-name="uni041A" unicode="&#x41a;" horiz-adv-x="691" 
d="M619 0l-141 218q-25 39 -34 52t-26.5 34.5t-31.5 27.5t-35 11.5t-50 5.5h-163v-349h-18v700h18v-335h145q29 0 50.5 5.5t35 11.5t31.5 27.5t26.5 34.5l34.5 52l132 204h22l-142 -216q-54 -82 -75 -102q-15 -14 -32 -22q19 -5 33 -13.5t31.5 -30.5t26 -34t33.5 -52
l151 -230h-22z" />
    <glyph glyph-name="uni041B" unicode="&#x41b;" horiz-adv-x="692" 
d="M346 662l-277 -662h-19l293 700h6l293 -700h-19z" />
    <glyph glyph-name="uni041C" unicode="&#x41c;" horiz-adv-x="889" 
d="M769 0h-18v653l-312 -402l-311 402v-653h-18v700h6l323 -418l324 418h6v-700z" />
    <glyph glyph-name="uni041D" unicode="&#x41d;" horiz-adv-x="731" 
d="M620 0h-18v349h-474v-349h-18v700h18v-335h474v335h18v-700z" />
    <glyph glyph-name="uni041E" unicode="&#x41e;" horiz-adv-x="874" 
d="M436 707q148 0 252.5 -104.5t104.5 -252.5t-104.5 -252.5t-252.5 -104.5t-252 104.5t-104 252.5t104 252.5t252 104.5zM436 691q-141 0 -239.5 -99.5t-98.5 -241.5q0 -143 98.5 -242t239.5 -99t240 99t99 242q0 142 -99 241.5t-240 99.5z" />
    <glyph glyph-name="uni041F" unicode="&#x41f;" horiz-adv-x="731" 
d="M620 0h-18v684h-474v-684h-18v700h510v-700z" />
    <glyph glyph-name="uni0420" unicode="&#x420;" horiz-adv-x="713" 
d="M120 700h211q130 0 215.5 -62t85.5 -183q0 -120 -85.5 -182t-215.5 -62h-193v-211h-18v700zM138 227h193q80 0 141.5 22.5t101.5 75t40 130.5q0 115 -79.5 172t-203.5 57h-193v-457z" />
    <glyph glyph-name="uni0421" unicode="&#x421;" horiz-adv-x="761" 
d="M436 707q158 0 264 -117l-12 -11q-101 112 -252 112q-141 0 -239.5 -99.5t-98.5 -241.5q0 -143 98.5 -242t239.5 -99q153 0 252 112l12 -13q-105 -115 -264 -115q-148 0 -252 104.5t-104 252.5t104 252.5t252 104.5z" />
    <glyph glyph-name="uni0422" unicode="&#x422;" horiz-adv-x="601" 
d="M309 684v-684h-18v684h-241v16h500v-16h-241z" />
    <glyph glyph-name="uni0423" unicode="&#x423;" horiz-adv-x="684" 
d="M198 0h-20l154 247l-282 453h21l272 -436l270 436h21z" />
    <glyph glyph-name="uni0424" unicode="&#x424;" horiz-adv-x="1324" 
d="M948 708q122 0 208.5 -86.5t86.5 -208.5q0 -123 -86.5 -209.5t-208.5 -86.5q-93 0 -168.5 52.5t-109.5 137.5v-307h-18v307q-33 -84 -108.5 -137t-168.5 -53q-122 0 -208.5 86.5t-86.5 209.5q0 122 86.5 208.5t208.5 86.5q93 0 168.5 -53t108.5 -138v183h18v-183
q33 85 109 138t169 53zM375 134q116 0 196.5 81t80.5 198q0 116 -80.5 197t-196.5 81q-115 0 -195.5 -81t-80.5 -197q0 -118 80 -198.5t196 -80.5zM949 134q116 0 196 80.5t80 198.5q0 116 -80.5 197t-195.5 81q-116 0 -196.5 -81t-80.5 -197q0 -117 80.5 -198t196.5 -81z
" />
    <glyph glyph-name="uni0425" unicode="&#x425;" horiz-adv-x="650" 
d="M324 343l-251 -343h-23l263 358l-253 342h23l243 -329l241 329h23l-253 -344l263 -356h-23z" />
    <glyph glyph-name="uni0426" unicode="&#x426;" horiz-adv-x="771" 
d="M721 -129h-18v129h-593v700h18v-684h474v684h18v-684h101v-145z" />
    <glyph glyph-name="uni0427" unicode="&#x427;" horiz-adv-x="704" 
d="M584 0h-18v334q-30 -85 -97.5 -128.5t-149.5 -43.5q-118 0 -188.5 70.5t-70.5 220.5v247h18v-247q0 -145 65 -210t176 -65q102 0 174.5 70.5t72.5 208.5v243h18v-700z" />
    <glyph glyph-name="uni0428" unicode="&#x428;" horiz-adv-x="1049" 
d="M939 0h-829v700h18v-684h388v684h18v-684h387v684h18v-700z" />
    <glyph glyph-name="uni0429" unicode="&#x429;" horiz-adv-x="1089" 
d="M1039 -129h-18v129h-911v700h18v-684h388v684h18v-684h387v684h18v-684h100v-145z" />
    <glyph glyph-name="uni042A" unicode="&#x42a;" horiz-adv-x="712" 
d="M168 403h266q113 0 170.5 -52t57.5 -149q0 -100 -54 -151t-174 -51h-284v684h-100v16h118v-297zM168 16h265q114 0 162.5 46t48.5 140q0 185 -211 185h-265v-371z" />
    <glyph glyph-name="uni042B" unicode="&#x42b;" horiz-adv-x="890" 
d="M138 403h265q113 0 171 -52t58 -149q0 -100 -54 -151t-175 -51h-283v700h18v-297zM770 0h-18v700h18v-700zM138 16h265q114 0 162.5 46t48.5 140q0 185 -211 185h-265v-371z" />
    <glyph glyph-name="uni042C" unicode="&#x42c;" horiz-adv-x="682" 
d="M138 403h265q113 0 171 -52t58 -149q0 -100 -54 -151t-175 -51h-283v700h18v-297zM138 16h265q114 0 162.5 46t48.5 140q0 185 -211 185h-265v-371z" />
    <glyph glyph-name="uni042D" unicode="&#x42d;" horiz-adv-x="761" 
d="M324 707q148 0 252 -104.5t104 -252.5t-104 -252.5t-252 -104.5q-159 0 -264 115l12 13q99 -112 252 -112q140 0 237.5 96.5t100.5 237.5h-401v16h401q-4 140 -101.5 236t-236.5 96q-151 0 -252 -112l-12 11q106 117 264 117z" />
    <glyph glyph-name="uni042E" unicode="&#x42e;" horiz-adv-x="1088" 
d="M650 707q148 0 252.5 -104.5t104.5 -252.5t-104.5 -252.5t-252.5 -104.5q-146 0 -249.5 102t-106.5 248h-156v-343h-18v700h18v-341h156q4 145 107.5 246.5t248.5 101.5zM651 9q141 0 240 99t99 242q0 142 -99 241.5t-240 99.5t-239.5 -99.5t-98.5 -241.5
q0 -143 98.5 -242t239.5 -99z" />
    <glyph glyph-name="uni042F" unicode="&#x42f;" horiz-adv-x="682" 
d="M562 0h-18v221h-209q-66 0 -107.5 -21.5t-85.5 -90.5l-70 -109h-22l80 122q58 88 126 108q-93 20 -149.5 78.5t-56.5 151.5q0 117 86 178.5t216 61.5h210v-700zM544 684h-192q-124 0 -204 -56t-80 -168q0 -111 80 -167t204 -56h192v447z" />
    <glyph glyph-name="uni0430" unicode="&#x430;" horiz-adv-x="684" 
d="M584 0h-19v154q-29 -71 -94 -115.5t-145 -44.5q-106 0 -181 75t-75 181t75 181.5t181 75.5q80 0 145 -44.5t94 -116.5v154h19v-500zM327 11q99 0 168.5 69.5t69.5 169.5t-69.5 170t-168.5 70q-100 0 -169 -69.5t-69 -170.5q0 -100 69 -169.5t169 -69.5z" />
    <glyph glyph-name="uni0431" unicode="&#x431;" 
d="M515 700h19q0 -42 -37 -58t-119 -16h-8q-282 0 -282 -232v-46q30 71 94.5 114.5t143.5 43.5q107 0 182 -75t75 -181q0 -107 -73.5 -182t-182.5 -75q-110 0 -183.5 74.5t-73.5 181.5v146q0 126 78.5 187.5t220.5 61.5q87 0 116.5 11.5t29.5 44.5zM327 490
q-99 0 -168.5 -70t-69.5 -170q0 -102 67.5 -171t170.5 -69t170.5 69.5t67.5 170.5t-69 170.5t-169 69.5z" />
    <glyph glyph-name="uni0432" unicode="&#x432;" horiz-adv-x="610" 
d="M100 500h262q77 0 113 -35t36 -88q0 -88 -79 -114q102 -26 102 -128q0 -64 -41.5 -99.5t-128.5 -35.5h-264v500zM118 483v-213h244q131 0 131 107q0 47 -30.5 76.5t-100.5 29.5h-244zM118 17h246q151 0 151 118q0 117 -151 117l-246 1v-236z" />
    <glyph glyph-name="uni0433" unicode="&#x433;" horiz-adv-x="525" 
d="M118 484v-484h-18v500h395v-16h-377z" />
    <glyph glyph-name="uni0434" unicode="&#x434;" horiz-adv-x="650" 
d="M610 -130h-18v130h-534v-130h-18v146h60l222 484h6l222 -484h60v-146zM325 462l-206 -446h412z" />
    <glyph glyph-name="uni0435" unicode="&#x435;" horiz-adv-x="633" 
d="M326 507q82 0 142.5 -43t87.5 -114q8 -23 11 -53t-1 -46h-478q0 -111 68.5 -175.5t181.5 -64.5q109 -1 196 71l12 -13q-91 -75 -208 -75q-120 1 -194 70.5t-74 185.5q0 108 73 182.5t183 74.5zM326 490q-99 0 -165 -63.5t-72 -158.5h461q2 41 -11 76q-25 67 -80.5 106.5
t-132.5 39.5z" />
    <glyph glyph-name="uni0436" unicode="&#x436;" horiz-adv-x="846" 
d="M784 0l-77 120q-25 39 -34 52t-26.5 34.5t-31.5 27.5t-35 11.5t-50 5.5h-98v-251h-18v251h-98q-29 0 -50 -5.5t-35 -11.5t-31.5 -27.5t-26.5 -34.5t-34 -52l-77 -120h-22l86 132q21 33 27.5 42.5t22 30.5t24 28t22.5 16t29 13q-19 9 -37.5 28.5t-29.5 35.5l-40 60
l-76 114h22l66 -101l29 -45t23 -31.5t25 -27l25 -14.5t34 -12t41 -2h81v233h18v-233h81q24 0 41 2t34 12l25 14.5t25 27t23 31.5l29 45l66 101h22l-76 -114l-40 -60t-29.5 -35.5t-37.5 -28.5q15 -4 29 -13t22.5 -16t24 -28t22 -30.5t27.5 -42.5l86 -132h-22z" />
    <glyph glyph-name="uni0437" unicode="&#x437;" horiz-adv-x="576" 
d="M394 263q102 -26 102 -128q0 -69 -56.5 -105.5t-143.5 -36.5h-26q-68 0 -125.5 29.5t-79.5 75.5l13 12q19 -43 73.5 -71.5t119.5 -28.5h25q81 0 131 31t50 94q0 116 -151 117l-95 1v17h93q131 0 131 107q0 54 -45.5 83.5t-115.5 29.5h-17q-55 0 -106 -23.5t-75 -63.5
l-13 12q27 42 81 67t112 25h18q77 0 128 -35.5t51 -94.5q0 -88 -79 -114z" />
    <glyph glyph-name="uni0438" unicode="&#x438;" horiz-adv-x="634" 
d="M534 0h-18v460l-410 -460h-6v500h18v-460l410 460h6v-500z" />
    <glyph glyph-name="uni0439" unicode="&#x439;" horiz-adv-x="634" 
d="M315 573q-55 0 -92 31t-37 77h17q0 -39 32 -64.5t80 -25.5t80 25.5t32 64.5h17q0 -46 -37.5 -77t-91.5 -31zM534 0h-18v460l-410 -460h-6v500h18v-460l410 460h6v-500z" />
    <glyph glyph-name="uni043A" unicode="&#x43a;" horiz-adv-x="558" 
d="M495 0l-76 120l-34.5 52t-26.5 34.5t-31.5 27.5t-35 11.5t-50.5 5.5h-118v-251h-18v500h18v-233h101q24 0 41.5 2t34 11.5t25 15t25 27.5t23 31.5t28.5 44.5l67 101h22l-76 -114q-3 -5 -13.5 -20.5l-13.5 -20l-11.5 -16.5l-11.5 -16l-10 -13t-11.5 -12.5t-11 -9.5
t-12.5 -9.5t-13 -6.5q15 -4 29 -13t22.5 -16t24 -28t22 -30.5t27.5 -42.5l86 -132h-22z" />
    <glyph glyph-name="uni043B" unicode="&#x43b;" horiz-adv-x="545" 
d="M272 462l-213 -462h-19l229 500h6l230 -500h-19z" />
    <glyph glyph-name="uni043C" unicode="&#x43c;" horiz-adv-x="694" 
d="M594 0h-19v460l-228 -257l-229 257v-460h-18v500h6l241 -271l241 271h6v-500z" />
    <glyph glyph-name="uni043D" unicode="&#x43d;" horiz-adv-x="634" 
d="M534 0h-18v242h-398v-242h-18v500h18v-241h398v241h18v-500z" />
    <glyph glyph-name="uni043E" unicode="&#x43e;" 
d="M326 507q106 0 181.5 -75.5t75.5 -181.5t-75 -181t-182 -75q-106 0 -181 75t-75 181q0 107 75 182t181 75zM327 490q-100 0 -169 -69.5t-69 -170.5q0 -100 69 -169.5t169 -69.5q99 0 168.5 69.5t69.5 169.5t-69.5 170t-168.5 70z" />
    <glyph glyph-name="uni043F" unicode="&#x43f;" horiz-adv-x="634" 
d="M534 0h-18v484h-398v-484h-18v500h434v-500z" />
    <glyph glyph-name="uni0440" unicode="&#x440;" horiz-adv-x="689" 
d="M363 507q106 0 181 -75.5t75 -181.5t-75 -181t-181 -75q-81 0 -145.5 44.5t-94.5 116.5v-339h-18v684h19v-154q29 72 94 116.5t145 44.5zM363 490q-99 0 -168.5 -70t-69.5 -170t69.5 -169.5t168.5 -69.5q100 0 169 69.5t69 169.5q0 101 -69 170.5t-169 69.5z" />
    <glyph glyph-name="uni0441" unicode="&#x441;" horiz-adv-x="589" 
d="M326 507q120 0 198 -93l-13 -12q-72 88 -185 88q-99 0 -168.5 -70t-69.5 -170t69.5 -169.5t168.5 -69.5q114 0 185 87l12 -12q-76 -92 -197 -92q-106 0 -181 75t-75 181q0 107 75 182t181 75z" />
    <glyph glyph-name="uni0442" unicode="&#x442;" horiz-adv-x="521" 
d="M269 484v-484h-18v484h-211v16h441v-16h-212z" />
    <glyph glyph-name="uni0443" unicode="&#x443;" horiz-adv-x="656" 
d="M561 500v-439q0 -119 -59.5 -185t-175.5 -67q-117 0 -208 75l12 13q88 -72 196 -71q217 0 217 236v87q-30 -79 -94 -117.5t-132 -38.5q-99 0 -158 60t-59 172v275h18v-275q0 -106 53 -160.5t146 -54.5q102 0 164 70t62 189v231h18z" />
    <glyph glyph-name="uni0444" unicode="&#x444;" horiz-adv-x="1148" 
d="M821 507q107 0 182 -75.5t75 -181.5t-75 -181t-182 -75q-79 0 -143.5 43.5t-94.5 114.5v-315h-18v315q-30 -71 -95 -114.5t-144 -43.5q-106 0 -181 75t-75 181t75 181.5t181 75.5q79 0 143.5 -43.5t94.5 -114.5v151h19v-152q30 71 94.5 115t143.5 44zM327 11
q99 0 168.5 69.5t69.5 169.5t-69.5 170t-168.5 70q-100 0 -169 -69.5t-69 -170.5q0 -100 69 -169.5t169 -69.5zM821 11q100 0 169 69.5t69 169.5q0 101 -69 170.5t-169 69.5q-99 0 -168.5 -70t-69.5 -170t69.5 -169.5t168.5 -69.5z" />
    <glyph glyph-name="uni0445" unicode="&#x445;" horiz-adv-x="552" 
d="M275 244l-212 -244h-23l223 257l-213 243h23l204 -233l202 233h22l-213 -245l223 -255h-23z" />
    <glyph glyph-name="uni0446" unicode="&#x446;" horiz-adv-x="675" 
d="M634 -130h-18v130h-516v500h18v-484h398v484h18v-484h100v-146z" />
    <glyph glyph-name="uni0447" unicode="&#x447;" horiz-adv-x="651" 
d="M551 0h-19v235q-25 -59 -79.5 -91t-126.5 -32q-127 0 -179 65t-52 190v133h18v-134q0 -118 46 -177.5t166 -59.5q59 0 101.5 18.5t64.5 50.5t31.5 66t9.5 73v163h19v-500z" />
    <glyph glyph-name="uni0448" unicode="&#x448;" horiz-adv-x="916" 
d="M816 0h-716v500h18v-484h331v484h18v-484h330v484h19v-500z" />
    <glyph glyph-name="uni0449" unicode="&#x449;" horiz-adv-x="956" 
d="M916 -130h-18v130h-798v500h18v-484h331v484h18v-484h330v484h19v-484h100v-146z" />
    <glyph glyph-name="uni044A" unicode="&#x44a;" horiz-adv-x="670" 
d="M159 320h229q96 0 141 -44.5t45 -114.5q0 -71 -45 -116t-141 -45h-248v484h-100v16h119v-180zM159 16h229q90 0 129.5 40t39.5 105q0 63 -39.5 102.5t-129.5 39.5h-229v-287z" />
    <glyph glyph-name="uni044B" unicode="&#x44b;" horiz-adv-x="728" 
d="M118 320h229q96 0 141.5 -44.5t45.5 -114.5q0 -71 -45 -116t-142 -45h-247v500h18v-180zM628 0h-18v500h18v-500zM118 16h229q90 0 129.5 40t39.5 105q0 63 -39.5 102.5t-129.5 39.5h-229v-287z" />
    <glyph glyph-name="uni044C" unicode="&#x44c;" horiz-adv-x="594" 
d="M118 320h229q96 0 141.5 -44.5t45.5 -114.5q0 -71 -45 -116t-142 -45h-247v500h18v-180zM118 16h229q90 0 129.5 40t39.5 105q0 63 -39.5 102.5t-129.5 39.5h-229v-287z" />
    <glyph glyph-name="uni044D" unicode="&#x44d;" horiz-adv-x="589" 
d="M263 507q106 0 181 -75.5t75 -181.5t-75 -181t-181 -75q-121 0 -197 92l11 12q72 -87 186 -87q97 0 165.5 67t71.5 164h-274v17h274q-3 97 -71.5 164t-165.5 67q-115 0 -185 -88l-13 12q77 93 198 93z" />
    <glyph glyph-name="uni044E" unicode="&#x44e;" horiz-adv-x="817" 
d="M490 507q106 0 181.5 -75.5t75.5 -181.5t-75 -181t-182 -75q-104 0 -178.5 72t-77.5 176h-116v-242h-18v500h18v-241h116q3 104 77.5 176t178.5 72zM490 11q99 0 168.5 69.5t69.5 169.5t-69.5 170t-168.5 70q-100 0 -169 -69.5t-69 -170.5q0 -100 69 -169.5t169 -69.5z
" />
    <glyph glyph-name="uni044F" unicode="&#x44f;" horiz-adv-x="596" 
d="M495 0h-18v181h-193q-59 -1 -87 -24.5t-74 -93.5q-6 -9 -9 -14l-32 -49h-22l42 62q6 8 17 25t16 24l14 19t14 18t13 14t15 13t15 9q-68 12 -106.5 53.5t-38.5 102.5q0 73 52.5 116.5t142.5 43.5h239v-500zM477 483h-221q-83 0 -130 -38.5t-47 -104.5q0 -65 47 -103.5
t130 -38.5h221v285z" />
    <glyph glyph-name="uni0451" unicode="&#x451;" horiz-adv-x="634" 
d="M227 611q7 0 11.5 -4.5t4.5 -10.5q0 -16 -16 -16q-6 0 -10.5 4.5t-4.5 11.5q0 6 4.5 10.5t10.5 4.5zM427 611q7 0 11.5 -4.5t4.5 -10.5q0 -16 -16 -16q-6 0 -10.5 4.5t-4.5 11.5q0 6 4.5 10.5t10.5 4.5zM326 507q82 0 142.5 -43t87.5 -114q8 -23 11 -53t-1 -46h-478
q0 -111 68.5 -175.5t181.5 -64.5q109 -1 196 71l12 -13q-91 -75 -208 -75q-120 1 -194 70.5t-74 185.5q0 108 73 182.5t183 74.5zM326 490q-99 0 -165 -63.5t-72 -158.5h461q2 41 -11 76q-25 67 -80.5 106.5t-132.5 39.5z" />
    <glyph glyph-name="Wgrave" unicode="&#x1e80;" horiz-adv-x="1202" 
d="M562 837l60 -87h-21l-79 87h40zM879 0h-6l-272 661l-272 -661h-6l-273 700h19l257 -661l272 661h6l272 -661l257 661h19z" />
    <glyph glyph-name="wgrave" unicode="&#x1e81;" horiz-adv-x="935" 
d="M429 668l60 -88h-21l-79 88h40zM680 0h-5l-208 462l-207 -462h-6l-214 500h19l198 -462l209 462h3l208 -462l199 462h19z" />
    <glyph glyph-name="Wacute" unicode="&#x1e82;" horiz-adv-x="1202" 
d="M601 750h-21l60 87h40zM879 0h-6l-272 661l-272 -661h-6l-273 700h19l257 -661l272 661h6l272 -661l257 661h19z" />
    <glyph glyph-name="wacute" unicode="&#x1e83;" horiz-adv-x="935" 
d="M468 580h-21l60 88h40zM680 0h-5l-208 462l-207 -462h-6l-214 500h19l198 -462l209 462h3l208 -462l199 462h19z" />
    <glyph glyph-name="Wdieresis" unicode="&#x1e84;" horiz-adv-x="1202" 
d="M500 750q-6 0 -10.5 4.5t-4.5 10.5q0 7 4.5 11.5t10.5 4.5q16 0 16 -16q0 -6 -4.5 -10.5t-11.5 -4.5zM699 750q-6 0 -10.5 4.5t-4.5 10.5q0 7 4.5 11.5t10.5 4.5q16 0 16 -16q0 -6 -4.5 -10.5t-11.5 -4.5zM879 0h-6l-272 661l-272 -661h-6l-273 700h19l257 -661l272 661
h6l272 -661l257 661h19z" />
    <glyph glyph-name="wdieresis" unicode="&#x1e85;" horiz-adv-x="935" 
d="M370 580q-6 0 -10.5 4.5t-4.5 11.5q0 6 4.5 10.5t10.5 4.5q7 0 11.5 -4.5t4.5 -10.5q0 -16 -16 -16zM570 580q-6 0 -10.5 4.5t-4.5 11.5q0 6 4.5 10.5t10.5 4.5q7 0 11.5 -4.5t4.5 -10.5q0 -16 -16 -16zM680 0h-5l-208 462l-207 -462h-6l-214 500h19l198 -462l209 462h3
l208 -462l199 462h19z" />
    <glyph glyph-name="Ygrave" unicode="&#x1ef2;" horiz-adv-x="685" 
d="M304 837l60 -87h-21l-79 87h40zM351 0h-18v245l-283 455h21l272 -436l271 436h21l-284 -454v-246z" />
    <glyph glyph-name="ygrave" unicode="&#x1ef3;" horiz-adv-x="656" 
d="M338 580h-21l-79 88h40zM118 500v-275q0 -106 53 -160.5t146 -54.5q102 0 164 70t62 189v231h18v-439q0 -119 -59.5 -185t-175.5 -67q-117 0 -208 75l12 13q88 -72 196 -71q217 0 217 236v87q-30 -79 -94 -117.5t-132 -38.5q-99 0 -158 60t-59 172v275h18z" />
    <glyph glyph-name="endash" unicode="&#x2013;" horiz-adv-x="513" 
d="M442 280h-372v19h372v-19z" />
    <glyph glyph-name="emdash" unicode="&#x2014;" horiz-adv-x="681" 
d="M610 280h-540v19h540v-19z" />
    <glyph glyph-name="quoteleft" unicode="&#x2018;" horiz-adv-x="206" 
d="M70 575l55 125h10l-35 -125h-30z" />
    <glyph glyph-name="quoteright" unicode="&#x2019;" horiz-adv-x="206" 
d="M135 700l-54 -125h-11l35 125h30z" />
    <glyph glyph-name="quotesinglbase" unicode="&#x201a;" horiz-adv-x="206" 
d="M135 33l-54 -125h-11l35 125h30z" />
    <glyph glyph-name="quotedblleft" unicode="&#x201c;" horiz-adv-x="269" 
d="M70 575l55 125h10l-35 -125h-30zM133 575l55 125h10l-35 -125h-30z" />
    <glyph glyph-name="quotedblright" unicode="&#x201d;" horiz-adv-x="269" 
d="M135 700l-54 -125h-11l35 125h30zM198 700l-54 -125h-11l35 125h30z" />
    <glyph glyph-name="quotedblbase" unicode="&#x201e;" horiz-adv-x="269" 
d="M135 33l-54 -125h-11l35 125h30zM198 33l-54 -125h-11l35 125h30z" />
    <glyph glyph-name="dagger" unicode="&#x2020;" horiz-adv-x="388" 
d="M203 499h114v-17h-114v-542h-19v542h-114v17h114v201h19v-201z" />
    <glyph glyph-name="daggerdbl" unicode="&#x2021;" horiz-adv-x="388" 
d="M203 499h114v-17h-114v-322h114v-17h-114v-203h-19v203h-114v17h114v322h-114v17h114v201h19v-201z" />
    <glyph glyph-name="bullet" unicode="&#x2022;" horiz-adv-x="357" 
d="M178 420q46 0 77 -31.5t31 -76.5t-31 -76.5t-77 -31.5q-45 0 -76.5 31.5t-31.5 76.5t31.5 76.5t76.5 31.5z" />
    <glyph glyph-name="ellipsis" unicode="&#x2026;" horiz-adv-x="518" 
d="M90 33q8 0 14 -6t6 -14t-6 -14t-14 -6t-14 6t-6 14t6 14t14 6zM259 33q8 0 14 -6t6 -14t-6 -14t-14 -6t-14 6t-6 14t6 14t14 6zM428 33q8 0 14 -6t6 -14t-6 -14t-14 -6t-14 6t-6 14t6 14t14 6z" />
    <glyph glyph-name="perthousand" unicode="&#x2030;" horiz-adv-x="1198" 
d="M236 707q69 0 117.5 -48.5t48.5 -117.5t-48.5 -117.5t-117.5 -48.5t-117.5 48.5t-48.5 117.5t48.5 117.5t117.5 48.5zM200 0h-23l436 700h23zM237 689q-66 0 -106.5 -41t-40.5 -107t40.5 -107t106.5 -41t106.5 41t40.5 107t-40.5 107t-106.5 41zM578 325
q69 0 117.5 -48.5t48.5 -117.5t-48.5 -117.5t-117.5 -48.5t-117.5 48.5t-48.5 117.5t48.5 117.5t117.5 48.5zM962 325q69 0 117.5 -48.5t48.5 -117.5t-48.5 -117.5t-117.5 -48.5t-117.5 48.5t-48.5 117.5t48.5 117.5t117.5 48.5zM579 308q-66 0 -106.5 -41.5t-40.5 -107.5
t40.5 -107t106.5 -41t106.5 41t40.5 107t-40.5 107.5t-106.5 41.5zM962 308q-66 0 -106.5 -41.5t-40.5 -107.5t40.5 -107t106.5 -41t106.5 41t40.5 107t-40.5 107.5t-106.5 41.5z" />
    <glyph glyph-name="guilsinglleft" unicode="&#x2039;" horiz-adv-x="271" 
d="M201 357l-101 -79l101 -78v-24l-131 103l131 103v-25z" />
    <glyph glyph-name="guilsinglright" unicode="&#x203a;" horiz-adv-x="271" 
d="M201 279l-131 -103v24l100 78l-100 79v25z" />
    <glyph glyph-name="fraction" unicode="&#x2044;" horiz-adv-x="434" 
d="M383 700l-314 -700h-19l314 700h19z" />
    <glyph glyph-name="Euro" unicode="&#x20ac;" horiz-adv-x="857" 
d="M522 9q153 0 252 112l12 -13q-105 -115 -264 -115q-127 0 -224 79.5t-124 201.5h-104v17h101q-5 32 -5 59q0 33 6 63h-102v17h105q27 120 124 198.5t223 78.5q158 0 264 -117l-12 -11q-101 112 -252 112q-120 0 -211.5 -73.5t-117.5 -187.5h435l-18 -17h-420
q-6 -30 -6 -63q0 -27 5 -59h300l-18 -17h-279q26 -116 117.5 -190.5t212.5 -74.5z" />
    <glyph glyph-name="uni2116" unicode="&#x2116;" horiz-adv-x="1344" 
d="M987 707q107 0 182 -75.5t75 -181.5t-75 -181t-182 -75t-181.5 75t-74.5 181q0 107 75 182t181 75zM630 0h-6l-486 653v-653h-18v700h6l486 -653v653h18v-700zM987 690q-100 0 -169 -69.5t-69 -170.5t69 -170.5t169 -69.5q99 0 168.5 70t69.5 170t-69.5 170t-168.5 70z
M751 17h473v-17h-473v17z" />
    <glyph glyph-name="trademark" unicode="&#x2122;" horiz-adv-x="775" 
d="M220 683v-293h-19v293h-131v17h282v-17h-132zM704 390h-19v271l-142 -156l-142 156v-271h-19v310h7l154 -168l155 168h6v-310z" />
    <glyph glyph-name="oneeighth" unicode="&#x215b;" horiz-adv-x="762" 
d="M154 382v275l-69 -83l-15 11l97 115h6v-318h-19zM181 0h-19l314 700h19zM622 172q70 -23 70 -85q0 -43 -35 -68t-91 -26h-4q-57 0 -93 25.5t-36 68.5q0 62 70 85q-56 20 -56 72q0 38 31.5 59t78.5 22h5q49 0 82.5 -21t33.5 -60q0 -52 -56 -72zM563 181q20 0 39 3.5
t38 18.5t19 41q0 31 -27.5 47.5t-68.5 16.5t-68.5 -16.5t-27.5 -47.5q0 -30 26.5 -46t69.5 -17zM562 11q49 0 79.5 20.5t30.5 55.5q0 34 -30.5 55t-79.5 21t-79.5 -21t-30.5 -55q0 -35 30.5 -55.5t79.5 -20.5z" />
    <glyph glyph-name="threeeighths" unicode="&#x215c;" horiz-adv-x="899" 
d="M341 694l-166 -131q14 7 51 7q65 0 99.5 -25t34.5 -66q0 -45 -38.5 -74.5t-99.5 -29.5h-6q-57 1 -94.5 23t-51.5 46l14 13q8 -13 20.5 -26t44 -26t70.5 -13q51 1 86.5 26t35.5 61q0 31 -30 52t-84 21q-47 0 -74 -11l-17 13l164 129h-193v17h234v-6zM317 0h-19l314 700h19
zM758 172q70 -23 70 -85q0 -43 -35 -68t-91 -26h-4q-57 0 -93 25.5t-36 68.5q0 62 70 85q-56 20 -56 72q0 38 31.5 59t78.5 22h5q49 0 82.5 -21t33.5 -60q0 -52 -56 -72zM699 181q20 0 39 3.5t38 18.5t19 41q0 31 -27.5 47.5t-68.5 16.5t-68.5 -16.5t-27.5 -47.5
q0 -30 26.5 -46t69.5 -17zM699 11q49 0 79.5 20.5t30.5 55.5q0 34 -30.5 55t-79.5 21t-79.5 -21t-30.5 -55q0 -35 30.5 -55.5t79.5 -20.5z" />
    <glyph glyph-name="fiveeighths" unicode="&#x215d;" horiz-adv-x="870" 
d="M335 682h-213v-124q36 21 105 21q66 0 99.5 -26t33.5 -74q0 -45 -38.5 -74.5t-99.5 -29.5h-6q-57 1 -94.5 23t-51.5 46l14 13q8 -13 20.5 -26t44 -25.5t70.5 -12.5q51 0 86.5 25t35.5 61q0 37 -29.5 59.5t-84.5 22.5q-71 0 -107 -21l-17 5v155h232v-18zM289 0h-19
l314 700h19zM730 172q70 -23 70 -85q0 -43 -35 -68t-91 -26h-4q-57 0 -93 25.5t-36 68.5q0 62 70 85q-56 20 -56 72q0 38 31.5 59t78.5 22h5q49 0 82.5 -21t33.5 -60q0 -52 -56 -72zM671 181q20 0 39 3.5t38 18.5t19 41q0 31 -27.5 47.5t-68.5 16.5t-68.5 -16.5t-27.5 -47.5
q0 -30 26.5 -46t69.5 -17zM670 11q49 0 79.5 20.5t30.5 55.5q0 34 -30.5 55t-79.5 21t-79.5 -21t-30.5 -55q0 -35 30.5 -55.5t79.5 -20.5z" />
    <glyph glyph-name="seveneighths" unicode="&#x215e;" horiz-adv-x="760" 
d="M70 382l206 301h-195v17h226v-6l-215 -312h-22zM178 0h-19l314 700h19zM619 172q70 -23 70 -85q0 -43 -35 -68t-91 -26h-4q-57 0 -93 25.5t-36 68.5q0 62 70 85q-56 20 -56 72q0 38 31.5 59t78.5 22h5q49 0 82.5 -21t33.5 -60q0 -52 -56 -72zM560 181q20 0 39 3.5
t38 18.5t19 41q0 31 -27.5 47.5t-68.5 16.5t-68.5 -16.5t-27.5 -47.5q0 -30 26.5 -46t69.5 -17zM560 11q49 0 79.5 20.5t30.5 55.5q0 34 -30.5 55t-79.5 21t-79.5 -21t-30.5 -55q0 -35 30.5 -55.5t79.5 -20.5z" />
    <glyph glyph-name="partialdiff" unicode="&#x2202;" horiz-adv-x="676" 
d="M370 707h8q61 0 107 -23.5t71.5 -62t38 -89t12 -102.5t-10.5 -106l-15 -80q-19 -105 -99 -178t-197 -73q-109 0 -168.5 67.5t-41.5 168.5q17 101 100.5 169.5t193.5 68.5q81 0 136.5 -38.5t73.5 -99.5q9 51 10 100.5t-10.5 97.5t-35.5 84t-67 58t-101 22h-8
q-95 0 -167 -74l-9 11q74 79 179 79zM365 450q-102 0 -179 -63.5t-93 -157.5q-17 -93 38 -156t157 -63q109 0 182.5 68.5t91.5 166.5q15 83 -40.5 144t-156.5 61z" />
    <glyph glyph-name="emptyset" unicode="&#x2205;" 
d="M573 485l-59 -59q69 -74 69 -176q0 -106 -75 -181t-182 -75q-101 0 -174 68l-62 -62l-13 14l61 61q-68 74 -68 175q0 107 75 182t181 75q101 0 175 -68l59 59zM88 250q0 -95 62 -163l338 339q-67 64 -162 64q-100 0 -169 -69.5t-69 -170.5zM326 11q99 0 168.5 69.5
t69.5 169.5q0 94 -63 163l-337 -339q68 -63 162 -63z" />
    <glyph glyph-name="product" unicode="&#x220f;" horiz-adv-x="690" 
d="M556 684v-849h-18v849h-387v-849h-18v849h-63v16h549v-16h-63z" />
    <glyph glyph-name="summation" unicode="&#x2211;" horiz-adv-x="577" 
d="M507 685h-403l283 -402l-283 -402h403v-16h-437l293 418l-292 417l436 1v-16z" />
    <glyph glyph-name="minus" unicode="&#x2212;" horiz-adv-x="555" 
d="M484 303h-414v19h414v-19z" />
    <glyph glyph-name="radical" unicode="&#x221a;" horiz-adv-x="700" 
d="M345 0h-5l-187 481l-83 -27v16l93 30l179 -461l267 661h20z" />
    <glyph glyph-name="infinity" unicode="&#x221e;" horiz-adv-x="754" 
d="M195 321h7q84 0 175 -115q91 115 175 115h6q53 0 89 -37.5t36 -91.5v-11q0 -54 -36 -91.5t-89 -37.5h-6q-84 0 -175 115q-91 -115 -175 -115h-7q-54 0 -89.5 35t-35.5 94v11q0 53 36.5 91t88.5 38zM205 304h-6q-47 0 -78.5 -34t-31.5 -78v-11q0 -51 30.5 -81.5
t79.5 -30.5h6q77 0 163 119q-84 116 -163 116zM555 304h-7q-77 0 -163 -117q81 -118 163 -118h7q47 0 78 34t31 78v11q0 44 -31 78t-78 34z" />
    <glyph glyph-name="integral" unicode="&#x222b;" horiz-adv-x="336" 
d="M266 734h-14q-47 0 -69.5 -32t-20.5 -76l30 -640q2 -51 -26 -88.5t-83 -37.5h-13v16h14q46 0 69 32.5t21 76.5l-30 639q-2 51 26 88.5t82 37.5h14v-16z" />
    <glyph glyph-name="approxequal" unicode="&#x2248;" horiz-adv-x="543" 
d="M70 306l43 53q25 29 62.5 29t72.5 -21l61 -36q23 -16 55.5 -15.5t51.5 24.5l29 39h28l-44 -53q-16 -20 -40.5 -26t-48 -0.5t-45.5 18.5l-61 36q-23 16 -56 15.5t-51 -24.5l-29 -39h-28zM473 257l-44 -53q-24 -29 -61.5 -29t-72.5 21l-61 36q-23 16 -56 15.5t-51 -24.5
l-29 -39h-28l43 53q17 20 41.5 26t48 0.5t45.5 -18.5l61 -36q23 -16 55.5 -15.5t51.5 24.5l29 39h28z" />
    <glyph glyph-name="notequal" unicode="&#x2260;" horiz-adv-x="555" 
d="M317 362l-57 -127h224v-19h-233l-56 -124h-19l56 124h-162v19h171l57 127h-228v19h237l54 119h19l-54 -119h158v-19h-167z" />
    <glyph glyph-name="lessequal" unicode="&#x2264;" horiz-adv-x="449" 
d="M378 491l-273 -179l273 -179v-23l-308 202l308 203v-24zM378 0h-308v19h308v-19z" />
    <glyph glyph-name="greaterequal" unicode="&#x2265;" horiz-adv-x="449" 
d="M378 312l-308 -202v23l273 179l-273 179v24zM378 0h-308v19h308v-19z" />
    <glyph glyph-name="lozenge" unicode="&#x25ca;" horiz-adv-x="543" 
d="M271 -28l-201 264l201 264l201 -264zM271 463l-175 -227l175 -228l175 228z" />
    <glyph glyph-name="K.ss01" horiz-adv-x="675" 
d="M138 349v-349h-18v700h18v-335h208l246 335h23l-253 -344l263 -356h-23l-258 349h-206z" />
    <glyph glyph-name="Kcommaaccent.ss01" horiz-adv-x="675" 
d="M138 349v-349h-18v700h18v-335h208l246 335h23l-253 -344l263 -356h-23l-258 349h-206zM302 -156h-21l60 87h40z" />
    <glyph glyph-name="R.ss01" horiz-adv-x="682" 
d="M120 700h211q129 0 215 -61t86 -179q0 -94 -57 -152.5t-151 -77.5l201 -230h-23l-199 226q-30 -5 -56 -5h-209v-221h-18v700zM138 684v-447h193q123 0 203 56t80 167q0 112 -80 168t-203 56h-193z" />
    <glyph glyph-name="Racute.ss01" horiz-adv-x="682" 
d="M331 750h-21l60 87h40zM120 700h211q129 0 215 -61t86 -179q0 -94 -57 -152.5t-151 -77.5l201 -230h-23l-199 226q-30 -5 -56 -5h-209v-221h-18v700zM138 684v-447h193q123 0 203 56t80 167q0 112 -80 168t-203 56h-193z" />
    <glyph glyph-name="Rcaron.ss01" horiz-adv-x="682" 
d="M321 750h-9l-123 94h29l99 -76l98 76h29zM120 700h211q129 0 215 -61t86 -179q0 -94 -57 -152.5t-151 -77.5l201 -230h-23l-199 226q-30 -5 -56 -5h-209v-221h-18v700zM138 684v-447h193q123 0 203 56t80 167q0 112 -80 168t-203 56h-193z" />
    <glyph glyph-name="Rcommaaccent.ss01" horiz-adv-x="682" 
d="M120 700h211q129 0 215 -61t86 -179q0 -94 -57 -152.5t-151 -77.5l201 -230h-23l-199 226q-30 -5 -56 -5h-209v-221h-18v700zM138 684v-447h193q123 0 203 56t80 167q0 112 -80 168t-203 56h-193zM293 -156h-21l60 87h40z" />
    <glyph glyph-name="i.loclTRK" horiz-adv-x="236" 
d="M120 580q-6 0 -10.5 4.5t-4.5 11.5q0 6 4.5 10.5t10.5 4.5q7 0 11.5 -4.5t4.5 -10.5q0 -16 -16 -16zM112 0v500h18v-500h-18z" />
    <glyph glyph-name="k.ss01" horiz-adv-x="558" 
d="M123 246v-246h-18v700h18v-437h155l206 237h23l-213 -245l223 -255h-23l-216 246h-155z" />
    <glyph glyph-name="kcommaaccent.ss01" horiz-adv-x="558" 
d="M123 246v-246h-18v700h18v-437h155l206 237h23l-213 -245l223 -255h-23l-216 246h-155zM312 -69l-79 -87h-21l60 87h40z" />
    <glyph glyph-name="uni0416.ss01" horiz-adv-x="1045" 
d="M985 700l-253 -344l263 -356h-23l-257 349h-183v-349h-18v349h-184l-257 -349h-23l263 356l-253 344h23l245 -335h186v335h18v-335h185l245 335h23z" />
    <glyph glyph-name="uni041A.ss01" horiz-adv-x="675" 
d="M138 349v-349h-18v700h18v-335h208l246 335h23l-253 -344l263 -356h-23l-258 349h-206z" />
    <glyph glyph-name="uni042F.ss01" horiz-adv-x="682" 
d="M562 0h-18v221h-209q-26 0 -56 5l-199 -226h-23l201 230q-94 19 -151 77.5t-57 152.5q0 117 86 178.5t216 61.5h210v-700zM544 684h-192q-124 0 -204 -56t-80 -168q0 -111 80 -167t204 -56h192v447z" />
    <glyph glyph-name="uni0436.ss01" horiz-adv-x="836" 
d="M427 246v-246h-18v246h-130l-216 -246h-23l224 255l-214 245h23l206 -237h130v237h18v-237h130l206 237h23l-213 -245l223 -255h-23l-216 246h-130z" />
    <glyph glyph-name="uni043A.ss01" horiz-adv-x="558" 
d="M123 246v-246h-18v500h18v-237h155l206 237h23l-213 -245l223 -255h-23l-216 246h-155z" />
    <glyph glyph-name="uni044F.ss01" horiz-adv-x="586" 
d="M485 0h-18v181h-235l-159 -181h-23l160 182q-74 9 -116.5 51.5t-42.5 106.5q0 73 52.5 116.5t142.5 43.5h239v-500zM467 483h-221q-83 0 -130 -38.5t-47 -104.5q0 -65 47 -103.5t130 -38.5h221v285z" />
    <glyph glyph-name="zero.lf" horiz-adv-x="874" 
d="M436 707q148 0 252.5 -104.5t104.5 -252.5t-104.5 -252.5t-252.5 -104.5t-252 104.5t-104 252.5t104 252.5t252 104.5zM436 691q-141 0 -239.5 -99.5t-98.5 -241.5q0 -143 98.5 -242t239.5 -99t240 99t99 242q0 142 -99 241.5t-240 99.5z" />
    <glyph glyph-name="one.lf" horiz-adv-x="308" 
d="M187 0h-18v656l-104 -124l-15 11l132 157h5v-700z" />
    <glyph glyph-name="two.lf" horiz-adv-x="629" 
d="M569 0h-509v6l327 305q87 80 115 121.5t28 93.5q0 74 -61.5 119.5t-143.5 45.5h-13q-73 0 -132 -29t-92 -83l-12 11q33 57 96 87t140 30h13q88 0 155.5 -50.5t67.5 -130.5q0 -41 -18.5 -77t-47.5 -67.5t-96 -94.5l-291 -271h474v-16z" />
    <glyph glyph-name="three.lf" horiz-adv-x="633" 
d="M555 694l-325 -286q42 14 113 15q111 0 170 -53t59 -140q0 -105 -67.5 -170t-171.5 -67h-11q-101 1 -169 44.5t-93 119.5l12 10q25 -75 90.5 -116.5t164.5 -41.5h7q97 2 158.5 61.5t61.5 158.5q0 82 -52.5 129t-157.5 47q-88 0 -145 -28l-15 11l334 296h-398v16h435v-6z
" />
    <glyph glyph-name="four.lf" horiz-adv-x="631" 
d="M491 162v-162h-18v162h-423v5l435 533h6v-522h90v-16h-90zM473 656l-393 -478h393v478z" />
    <glyph glyph-name="five.lf" horiz-adv-x="633" 
d="M512 684h-383v-298q78 57 215 57q104 0 166 -57.5t62 -156.5q0 -105 -68 -170.5t-170 -65.5h-12q-101 1 -169 44.5t-93 119.5l12 10q25 -75 90.5 -116.5t164.5 -41.5h7q97 2 158.5 61.5t61.5 158.5q0 94 -56 146t-154 52q-147 0 -220 -67l-14 11v329h402v-16z" />
    <glyph glyph-name="six.lf" horiz-adv-x="625" 
d="M312 467q110 0 181.5 -68.5t71.5 -169.5t-71.5 -168.5t-181.5 -67.5q-117 0 -184 73t-67 178l-1 80q0 56 7 106.5t25.5 102.5t47.5 89.5t77 61t109 23.5h7q133 0 205 -96l-12 -11q-71 91 -193 91h-7q-72 0 -123.5 -32.5t-77 -88.5t-36.5 -114t-11 -127q29 61 91 99.5
t143 38.5zM313 10q102 0 168 63t66 156q0 94 -66 157.5t-168 63.5q-101 0 -167 -61t-66 -144q0 -98 62 -166.5t171 -68.5z" />
    <glyph glyph-name="seven.lf" horiz-adv-x="541" 
d="M491 694l-420 -694h-21l412 684h-405v16h434v-6z" />
    <glyph glyph-name="eight.lf" horiz-adv-x="604" 
d="M380 381q75 -17 119 -66t44 -124q0 -92 -64.5 -144t-168.5 -54h-9q-107 0 -174 52t-67 146q0 75 44 124t119 66q-60 16 -96.5 55.5t-36.5 102.5q0 81 57.5 123t141.5 45h12q56 0 102.5 -16.5t78 -55.5t31.5 -96q0 -63 -36.5 -102.5t-96.5 -55.5zM109 540
q0 -76 55.5 -113.5t137.5 -37.5q81 0 137 37.5t56 113.5t-56 113.5t-137 37.5t-137 -37.5t-56 -113.5zM302 10q99 0 161 47t62 134q0 86 -60 132.5t-163 48.5q-24 0 -49 -3.5t-57.5 -15t-57 -30t-42 -53t-17.5 -79.5q0 -87 62 -134t161 -47z" />
    <glyph glyph-name="nine.lf" horiz-adv-x="625" 
d="M313 234q-110 0 -181.5 68t-71.5 169t71.5 168.5t180.5 67.5q117 0 184.5 -73t67.5 -178l1 -80q0 -56 -7 -106.5t-25.5 -102.5t-47.5 -89.5t-77 -61t-109 -23.5h-8q-132 0 -204 96l12 11q69 -91 192 -91h8q58 0 103 22.5t71.5 57.5t43.5 84t23 97t6 101
q-28 -61 -90.5 -99t-142.5 -38zM312 691q-102 0 -168 -63.5t-66 -156.5q0 -94 66 -157.5t168 -63.5q101 0 167 61.5t66 144.5q0 98 -62 166.5t-171 68.5z" />
    <glyph glyph-name="zero.osf" horiz-adv-x="711" 
d="M355 544q114 0 194.5 -80.5t80.5 -194.5q0 -115 -80.5 -195.5t-194.5 -80.5t-194.5 80.5t-80.5 195.5q0 114 80.5 194.5t194.5 80.5zM356 528q-106 0 -181.5 -76t-75.5 -183t75.5 -183t181.5 -76q105 0 181 76t76 183q0 106 -76 182.5t-181 76.5z" />
    <glyph glyph-name="one.osf" horiz-adv-x="308" 
d="M187 0h-18v494l-104 -125l-15 12l132 156h5v-537z" />
    <glyph glyph-name="two.osf" horiz-adv-x="629" 
d="M569 0h-509v6l337 211q80 50 106.5 84t26.5 84q0 58 -57 100.5t-149 42.5h-12q-74 0 -132.5 -28.5t-91.5 -82.5l-12 10q33 57 96 87t140 30h12q98 0 161 -47.5t63 -111.5q0 -57 -32.5 -97t-119.5 -94l-283 -178h456v-16z" />
    <glyph glyph-name="three.osf" horiz-adv-x="633" 
d="M555 532l-325 -287q45 15 113 15q111 0 170 -53t59 -140q0 -96 -68 -158t-171 -64h-11q-101 1 -169 44.5t-93 119.5l12 11q25 -75 90.5 -117t164.5 -42h6q96 2 158.5 58.5t62.5 146.5q0 82 -52.5 129.5t-157.5 47.5q-85 0 -145 -29l-15 11l334 296h-398v16h435v-5z" />
    <glyph glyph-name="four.osf" horiz-adv-x="631" 
d="M491 14v-162h-18v162h-423v5l435 518h6v-507h90v-16h-90zM473 493l-393 -463h393v463z" />
    <glyph glyph-name="five.osf" horiz-adv-x="633" 
d="M512 521h-383v-298q78 57 215 57q104 0 166 -57.5t62 -155.5q0 -96 -68 -158t-170 -64h-12q-101 1 -169 44.5t-93 119.5l12 11q25 -75 90.5 -117t164.5 -42h5q96 2 159 58.5t63 146.5q0 94 -56 146t-154 52q-149 0 -220 -67l-14 11v329h402v-16z" />
    <glyph glyph-name="six.osf" horiz-adv-x="625" 
d="M312 467q110 0 181.5 -68.5t71.5 -169.5t-71.5 -168.5t-181.5 -67.5q-117 0 -184 73t-67 178l-1 81q0 51 7 98.5t25.5 97.5t47.5 87t77 60.5t109 23.5h7q133 0 205 -96l-12 -11q-71 91 -193 91h-7q-58 0 -103 -22t-71.5 -56.5t-43.5 -82.5t-23.5 -92.5t-6.5 -93.5
q29 61 91 99.5t143 38.5zM313 10q102 0 168 63t66 156q0 94 -66 157.5t-168 63.5q-101 0 -167 -61t-66 -144q0 -98 62 -166.5t171 -68.5z" />
    <glyph glyph-name="seven.osf" horiz-adv-x="534" 
d="M484 532l-411 -680h-21l403 669h-405v16h434v-5z" />
    <glyph glyph-name="eight.osf" horiz-adv-x="604" 
d="M380 368q75 -17 119 -64.5t44 -119.5q0 -90 -67.5 -140.5t-174.5 -50.5h-4q-105 2 -171 52t-66 139q0 72 44 119.5t119 64.5q-60 15 -96.5 55t-36.5 103q0 82 60 124.5t147 43.5h4q56 0 102.5 -16.5t78 -55.5t31.5 -96q0 -63 -36.5 -103t-96.5 -55zM109 526
q0 -76 55.5 -113t137.5 -37q81 0 137 37t56 113t-56 114t-137 38t-137 -38t-56 -114zM302 10q99 0 161 46t62 128t-60 127.5t-163 47.5q-24 0 -49 -3.5t-57.5 -14.5t-57.5 -29t-42 -51.5t-17 -76.5q0 -82 62 -128t161 -46z" />
    <glyph glyph-name="nine.osf" horiz-adv-x="625" 
d="M313 71q-110 0 -181.5 68t-71.5 169t71.5 168.5t180.5 67.5q117 0 184.5 -73t67.5 -178l1 -80q0 -51 -7 -99t-25.5 -98t-47.5 -87t-77 -60.5t-109 -23.5h-8q-132 0 -204 96l12 11q69 -91 192 -91h8q72 0 123 32t76.5 86.5t36.5 110.5t11 118q-28 -61 -90 -99t-143 -38z
M312 528q-102 0 -168 -63.5t-66 -156.5q0 -94 66 -157.5t168 -63.5q101 0 167 61.5t66 144.5q0 98 -62 166.5t-171 68.5z" />
    <glyph glyph-name="zero.tf" horiz-adv-x="853" 
d="M426 707q148 0 252.5 -104.5t104.5 -252.5t-104.5 -252.5t-252.5 -104.5t-252 104.5t-104 252.5t104 252.5t252 104.5zM426 691q-141 0 -239.5 -99.5t-98.5 -241.5q0 -143 98.5 -242t239.5 -99t240 99t99 242q0 142 -99 241.5t-240 99.5z" />
    <glyph glyph-name="one.tf" horiz-adv-x="278" 
d="M207 0h-18v656l-104 -124l-15 11l132 157h5v-700z" />
    <glyph glyph-name="two.tf" horiz-adv-x="649" 
d="M579 0h-509v6l327 305q87 80 115 121.5t28 93.5q0 74 -61.5 119.5t-143.5 45.5h-13q-73 0 -132 -29t-92 -83l-12 11q33 57 96 87t140 30h13q88 0 155.5 -50.5t67.5 -130.5q0 -41 -18.5 -77t-47.5 -67.5t-96 -94.5l-291 -271h474v-16z" />
    <glyph glyph-name="three.tf" 
d="M565 694l-325 -286q42 14 113 15q111 0 170 -53t59 -140q0 -105 -67.5 -170t-171.5 -67h-11q-101 1 -169 44.5t-93 119.5l12 10q25 -75 90.5 -116.5t164.5 -41.5h7q97 2 158.5 61.5t61.5 158.5q0 82 -52.5 129t-157.5 47q-88 0 -145 -28l-15 11l334 296h-398v16h435v-6z
" />
    <glyph glyph-name="four.tf" horiz-adv-x="671" 
d="M511 162v-162h-18v162h-423v5l435 533h6v-522h90v-16h-90zM493 656l-393 -478h393v478z" />
    <glyph glyph-name="five.tf" 
d="M522 684h-383v-298q78 57 215 57q104 0 166 -57.5t62 -156.5q0 -105 -68 -170.5t-170 -65.5h-12q-101 1 -169 44.5t-93 119.5l12 10q25 -75 90.5 -116.5t164.5 -41.5h7q97 2 158.5 61.5t61.5 158.5q0 94 -56 146t-154 52q-147 0 -220 -67l-14 11v329h402v-16z" />
    <glyph glyph-name="six.tf" horiz-adv-x="645" 
d="M322 467q110 0 181.5 -68.5t71.5 -169.5t-71.5 -168.5t-181.5 -67.5q-117 0 -184 73t-67 178l-1 80q0 56 7 106.5t25.5 102.5t47.5 89.5t77 61t109 23.5h7q133 0 205 -96l-12 -11q-71 91 -193 91h-7q-72 0 -123.5 -32.5t-77 -88.5t-36.5 -114t-11 -127q29 61 91 99.5
t143 38.5zM323 10q102 0 168 63t66 156q0 94 -66 157.5t-168 63.5q-101 0 -167 -61t-66 -144q0 -98 62 -166.5t171 -68.5z" />
    <glyph glyph-name="seven.tf" horiz-adv-x="581" 
d="M511 694l-420 -694h-21l412 684h-405v16h434v-6z" />
    <glyph glyph-name="eight.tf" horiz-adv-x="624" 
d="M390 381q75 -17 119 -66t44 -124q0 -92 -64.5 -144t-168.5 -54h-9q-107 0 -174 52t-67 146q0 75 44 124t119 66q-60 16 -96.5 55.5t-36.5 102.5q0 81 57.5 123t141.5 45h12q56 0 102.5 -16.5t78 -55.5t31.5 -96q0 -63 -36.5 -102.5t-96.5 -55.5zM119 540
q0 -76 55.5 -113.5t137.5 -37.5q81 0 137 37.5t56 113.5t-56 113.5t-137 37.5t-137 -37.5t-56 -113.5zM312 10q99 0 161 47t62 134q0 86 -60 132.5t-163 48.5q-24 0 -49 -3.5t-57.5 -15t-57 -30t-42 -53t-17.5 -79.5q0 -87 62 -134t161 -47z" />
    <glyph glyph-name="nine.tf" horiz-adv-x="645" 
d="M323 234q-110 0 -181.5 68t-71.5 169t71.5 168.5t180.5 67.5q117 0 184.5 -73t67.5 -178l1 -80q0 -56 -7 -106.5t-25.5 -102.5t-47.5 -89.5t-77 -61t-109 -23.5h-8q-132 0 -204 96l12 11q69 -91 192 -91h8q58 0 103 22.5t71.5 57.5t43.5 84t23 97t6 101
q-28 -61 -90.5 -99t-142.5 -38zM323 691q-102 0 -168 -63.5t-66 -156.5q0 -94 66 -157.5t168 -63.5q101 0 167 61.5t66 144.5q0 98 -62 166.5t-171 68.5z" />
    <glyph glyph-name="zero.tosf" horiz-adv-x="691" 
d="M345 548q114 0 194.5 -80.5t80.5 -194.5q0 -115 -80.5 -195.5t-194.5 -80.5t-194.5 80.5t-80.5 195.5q0 114 80.5 194.5t194.5 80.5zM345 532q-106 0 -181.5 -76t-75.5 -183t75.5 -183t181.5 -76q105 0 181 76t76 183q0 106 -76 182.5t-181 76.5z" />
    <glyph glyph-name="one.tosf" horiz-adv-x="278" 
d="M207 0h-18v498l-104 -125l-15 12l132 156h5v-541z" />
    <glyph glyph-name="two.tosf" horiz-adv-x="649" 
d="M579 0h-509v6l337 211q80 50 106.5 84t26.5 84q0 58 -57 100.5t-149 42.5h-12q-74 0 -132.5 -28.5t-91.5 -82.5l-12 10q33 57 96 87t140 30h12q98 0 161 -47.5t63 -111.5q0 -57 -32.5 -97t-119.5 -94l-283 -178h456v-16z" />
    <glyph glyph-name="three.tosf" 
d="M565 532l-325 -287q45 15 113 15q111 0 170 -53t59 -140q0 -96 -68 -158t-171 -64h-11q-101 1 -169 44.5t-93 119.5l12 11q25 -75 90.5 -117t164.5 -42h6q96 2 158.5 58.5t62.5 146.5q0 82 -52.5 129.5t-157.5 47.5q-85 0 -145 -29l-15 11l334 296h-398v16h435v-5z" />
    <glyph glyph-name="four.tosf" horiz-adv-x="671" 
d="M511 14v-162h-18v162h-423v5l435 518h6v-507h90v-16h-90zM493 493l-393 -463h393v463z" />
    <glyph glyph-name="five.tosf" 
d="M522 521h-383v-298q78 57 215 57q104 0 166 -57.5t62 -155.5q0 -96 -68 -158t-170 -64h-12q-101 1 -169 44.5t-93 119.5l12 11q25 -75 90.5 -117t164.5 -42h5q96 2 159 58.5t63 146.5q0 94 -56 146t-154 52q-149 0 -220 -67l-14 11v329h402v-16z" />
    <glyph glyph-name="six.tosf" horiz-adv-x="645" 
d="M322 467q110 0 181.5 -68.5t71.5 -169.5t-71.5 -168.5t-181.5 -67.5q-117 0 -184 73t-67 178l-1 81q0 51 7 98.5t25.5 97.5t47.5 87t77 60.5t109 23.5h7q133 0 205 -96l-12 -11q-71 91 -193 91h-7q-58 0 -103 -22t-71.5 -56.5t-43.5 -82.5t-23.5 -92.5t-6.5 -93.5
q29 61 91 99.5t143 38.5zM323 10q102 0 168 63t66 156q0 94 -66 157.5t-168 63.5q-101 0 -167 -61t-66 -144q0 -98 62 -166.5t171 -68.5z" />
    <glyph glyph-name="seven.tosf" horiz-adv-x="574" 
d="M504 532l-411 -680h-21l403 669h-405v16h434v-5z" />
    <glyph glyph-name="eight.tosf" horiz-adv-x="624" 
d="M390 368q75 -17 119 -64.5t44 -119.5q0 -90 -67.5 -140.5t-174.5 -50.5h-4q-105 2 -171 52t-66 139q0 72 44 119.5t119 64.5q-60 15 -96.5 55t-36.5 103q0 82 60 124.5t147 43.5h4q56 0 102.5 -16.5t78 -55.5t31.5 -96q0 -63 -36.5 -103t-96.5 -55zM119 526
q0 -76 55.5 -113t137.5 -37q81 0 137 37t56 113t-56 114t-137 38t-137 -38t-56 -114zM312 10q99 0 161 46t62 128t-60 127.5t-163 47.5q-24 0 -49 -3.5t-57.5 -14.5t-57.5 -29t-42 -51.5t-17 -76.5q0 -82 62 -128t161 -46z" />
    <glyph glyph-name="nine.tosf" horiz-adv-x="645" 
d="M323 71q-110 0 -181.5 68t-71.5 169t71.5 168.5t180.5 67.5q117 0 184.5 -73t67.5 -178l1 -80q0 -51 -7 -99t-25.5 -98t-47.5 -87t-77 -60.5t-109 -23.5h-8q-132 0 -204 96l12 11q69 -91 192 -91h8q72 0 123 32t76.5 86.5t36.5 110.5t11 118q-28 -61 -90 -99t-143 -38z
M323 528q-102 0 -168 -63.5t-66 -156.5q0 -94 66 -157.5t168 -63.5q101 0 167 61.5t66 144.5q0 98 -62 166.5t-171 68.5z" />
    <glyph glyph-name="zero.dnom" horiz-adv-x="433" 
d="M216 325q69 0 117.5 -48.5t48.5 -117.5t-48.5 -117.5t-117.5 -48.5t-117.5 48.5t-48.5 117.5t48.5 117.5t117.5 48.5zM217 308q-66 0 -106.5 -41.5t-40.5 -107.5t40.5 -107t106.5 -41t106.5 41t40.5 107t-40.5 107.5t-106.5 41.5z" />
    <glyph glyph-name="one.dnom" horiz-adv-x="203" 
d="M153 0h-19v275l-69 -83l-15 11l97 115h6v-318z" />
    <glyph glyph-name="two.dnom" horiz-adv-x="404" 
d="M354 0h-304v6l198 123q39 23 57 44.5t18 50.5q0 30 -30.5 57t-80.5 27h-7q-44 0 -79 -20.5t-53 -45.5l-13 13q20 29 59 50t85 21h8q60 0 95 -31.5t35 -71.5q0 -37 -23 -61.5t-71 -55.5l-143 -89h249v-17z" />
    <glyph glyph-name="three.dnom" horiz-adv-x="390" 
d="M321 312l-166 -131q14 7 51 7q65 0 99.5 -25t34.5 -66q0 -45 -38.5 -74.5t-99.5 -29.5h-6q-57 1 -94.5 23t-51.5 47l14 12q8 -13 20.5 -25.5t44 -25.5t70.5 -13q51 0 86.5 25t35.5 61q0 31 -30 52t-84 21q-47 0 -74 -11l-17 13l164 129h-193v17h234v-6z" />
    <glyph glyph-name="four.dnom" horiz-adv-x="379" 
d="M282 72v-72h-19v72h-213v7l225 239h7v-228h47v-18h-47zM263 277l-175 -187h175v187z" />
    <glyph glyph-name="five.dnom" horiz-adv-x="390" 
d="M315 300h-213v-123q38 20 105 20q66 0 99.5 -26t33.5 -74q0 -45 -38.5 -74.5t-99.5 -29.5h-6q-57 1 -94.5 23t-51.5 47l14 12q8 -13 20.5 -25.5t44 -25.5t70.5 -13q51 0 86.5 25t35.5 61q0 38 -29.5 60t-84.5 22q-71 0 -107 -21l-17 5v155h232v-18z" />
    <glyph glyph-name="six.dnom" horiz-adv-x="372" 
d="M185 219q60 0 98 -32.5t38 -80.5q0 -49 -38 -81t-98 -32q-65 0 -99.5 34t-34.5 85l-1 39q0 31 6 58.5t20.5 55t44 44t71.5 16.5h3q71 0 107 -46l-13 -13q-34 41 -94 41h-3q-62 0 -90 -41t-32 -96q39 49 115 49zM186 11q52 0 84.5 27.5t32.5 67.5t-32.5 67.5t-84.5 27.5
q-51 0 -83.5 -26.5t-32.5 -62.5q0 -42 31 -71.5t85 -29.5z" />
    <glyph glyph-name="seven.dnom" horiz-adv-x="337" 
d="M287 312l-215 -312h-22l206 301h-195v17h226v-6z" />
    <glyph glyph-name="eight.dnom" horiz-adv-x="359" 
d="M239 172q70 -23 70 -85q0 -43 -35 -68t-91 -26h-4q-57 0 -93 25.5t-36 68.5q0 62 70 85q-56 20 -56 72q0 38 31.5 59t78.5 22h5q49 0 82.5 -21t33.5 -60q0 -52 -56 -72zM180 181q20 0 39 3.5t38 18.5t19 41q0 31 -27.5 47.5t-68.5 16.5t-68.5 -16.5t-27.5 -47.5
q0 -30 26.5 -46t69.5 -17zM180 11q49 0 79.5 20.5t30.5 55.5q0 34 -30.5 55t-79.5 21t-79.5 -21t-30.5 -55q0 -35 30.5 -55.5t79.5 -20.5z" />
    <glyph glyph-name="nine.dnom" horiz-adv-x="372" 
d="M186 99q-60 0 -98 32.5t-38 81.5q0 48 38 80t98 32q66 0 100.5 -34t34.5 -85v-39q0 -31 -6 -58.5t-20.5 -55t-44 -44t-70.5 -16.5h-4q-70 0 -107 46l14 13q34 -41 93 -41h4q61 0 89 41t32 96q-39 -49 -115 -49zM186 307q-52 0 -84.5 -27t-32.5 -67q0 -41 32.5 -68.5
t84.5 -27.5q51 0 83.5 26.5t32.5 62.5q0 42 -31 71.5t-85 29.5z" />
    <glyph glyph-name="zero.numr" horiz-adv-x="433" 
d="M216 707q69 0 117.5 -48.5t48.5 -117.5t-48.5 -117.5t-117.5 -48.5t-117.5 48.5t-48.5 117.5t48.5 117.5t117.5 48.5zM217 689q-66 0 -106.5 -41t-40.5 -107t40.5 -107.5t106.5 -41.5t106.5 41.5t40.5 107.5t-40.5 107t-106.5 41z" />
    <glyph glyph-name="one.numr" horiz-adv-x="203" 
d="M153 382h-19v275l-69 -83l-15 11l97 115h6v-318z" />
    <glyph glyph-name="two.numr" horiz-adv-x="404" 
d="M354 381h-304v7l198 122q39 24 57 45t18 50q0 31 -30.5 57.5t-80.5 26.5h-7q-44 0 -79 -20.5t-53 -44.5l-13 12q20 29 59 50t85 21h8q60 0 95 -31t35 -71q0 -37 -23.5 -62.5t-70.5 -54.5l-143 -89h249v-18z" />
    <glyph glyph-name="three.numr" horiz-adv-x="390" 
d="M321 694l-166 -131q14 7 51 7q65 0 99.5 -25t34.5 -66q0 -45 -38.5 -74.5t-99.5 -29.5h-6q-57 1 -94.5 23t-51.5 46l14 13q8 -13 20.5 -26t44 -26t70.5 -13q51 1 86.5 26t35.5 61q0 31 -30 52t-84 21q-47 0 -74 -11l-17 13l164 129h-193v17h234v-6z" />
    <glyph glyph-name="four.numr" horiz-adv-x="379" 
d="M282 454v-72h-19v72h-213v6l225 240h7v-229h47v-17h-47zM263 659l-175 -188h175v188z" />
    <glyph glyph-name="five.numr" horiz-adv-x="390" 
d="M315 682h-213v-124q36 21 105 21q66 0 99.5 -26t33.5 -74q0 -45 -38.5 -74.5t-99.5 -29.5h-6q-57 1 -94.5 23t-51.5 46l14 13q8 -13 20.5 -26t44 -25.5t70.5 -12.5q51 0 86.5 25t35.5 61q0 37 -29.5 59.5t-84.5 22.5q-71 0 -107 -21l-17 5v155h232v-18z" />
    <glyph glyph-name="six.numr" horiz-adv-x="372" 
d="M185 601q60 0 98 -32.5t38 -80.5q0 -49 -38 -81t-98 -32q-65 0 -99.5 34t-34.5 85l-1 39q0 31 6 58.5t20.5 55t44 44t71.5 16.5h3q71 0 107 -46l-13 -13q-34 41 -94 41h-3q-62 0 -90 -41t-32 -96q39 49 115 49zM186 393q52 0 84.5 27.5t32.5 67.5t-32.5 67.5t-84.5 27.5
q-51 0 -83.5 -26.5t-32.5 -62.5q0 -42 31 -71.5t85 -29.5z" />
    <glyph glyph-name="seven.numr" horiz-adv-x="337" 
d="M287 694l-215 -312h-22l206 301h-195v17h226v-6z" />
    <glyph glyph-name="eight.numr" horiz-adv-x="359" 
d="M239 554q70 -23 70 -86q0 -42 -35 -67t-91 -26h-4q-57 0 -93 25t-36 68q0 63 70 86q-56 20 -56 71q0 39 31.5 60t78.5 22h5q49 0 82.5 -21t33.5 -61q0 -51 -56 -71zM180 562q20 0 39 3.5t38 19t19 41.5q0 31 -27 47t-69 16t-69 -16t-27 -47t26.5 -47t69.5 -17zM180 393
q49 0 79.5 20t30.5 55t-30.5 55.5t-79.5 20.5t-79.5 -20.5t-30.5 -55.5t30.5 -55t79.5 -20z" />
    <glyph glyph-name="nine.numr" horiz-adv-x="372" 
d="M186 481q-60 0 -98 32.5t-38 80.5q0 49 38 81t98 32q66 0 100.5 -34t34.5 -85v-39q0 -31 -6 -58.5t-20.5 -55t-44 -44t-70.5 -16.5h-4q-70 0 -107 46l14 13q34 -41 93 -41h4q61 0 89 41t32 96q-39 -49 -115 -49zM186 689q-52 0 -84.5 -27t-32.5 -68t32.5 -68t84.5 -27
q51 0 83.5 26.5t32.5 62.5q0 42 -31 71.5t-85 29.5z" />
    </font>
</defs>
</svg>
